<mxfile host="drawio-plugin" modified="2024-04-16T00:41:10.515Z" agent="5.0 (X11; Linux x86_64) AppleWebKit/537.36 (KHTML, like Gecko) Chrome/119.0.0.0 Safari/537.36" etag="sW6zZqm2u0qkY1PfHOg0" version="20.5.3" type="embed"><diagram name="第 1 页" id="vhKnoW98yDDdn1REDN2T"><mxGraphModel dx="1660" dy="2044" grid="0" gridSize="10" guides="1" tooltips="1" connect="1" arrows="1" fold="1" page="1" pageScale="1" pageWidth="827" pageHeight="1169" math="0" shadow="0"><root><mxCell id="0"/><mxCell id="1" parent="0"/><UserObject label="" plantUmlData="{&#10;  &quot;data&quot;: &quot;@startuml\n!includeurl https://raw.githubusercontent.com/plantuml-stdlib/C4-PlantUML/master/C4_Component.puml\n\ntitle 志愿者服务组件图\n\nContainer(volunteer_service, \&quot;志愿者服务\&quot;, \&quot;Spring Boot + MyBatis\&quot;, \&quot;志愿者申请、任务管理\&quot;) {\n  Component(volunteer_controller, \&quot;VolunteerController\&quot;, \&quot;处理志愿者申请相关的请求 (审核、查看、搜索)\&quot;)\n  Component(task_controller, \&quot;TaskController\&quot;, \&quot;处理任务相关的请求 (发布、分配、审核)\&quot;)\n  \n  Component(volunteer_service_impl, \&quot;VolunteerServiceImpl\&quot;, \&quot;志愿者服务实现类\&quot;)\n  Component(task_service_impl, \&quot;TaskServiceImpl\&quot;, \&quot;任务服务实现类\&quot;)\n  \n  Component(volunteer_repository, \&quot;VolunteerRepository\&quot;, \&quot;志愿者数据访问层\&quot;)\n  Component(task_repository, \&quot;TaskRepository\&quot;, \&quot;任务数据访问层\&quot;)\n\n  Rel(volunteer_controller, volunteer_service_impl, \&quot;调用\&quot;)\n  Rel(task_controller, task_service_impl, \&quot;调用\&quot;)\n\n  Rel(volunteer_service_impl, volunteer_repository, \&quot;调用\&quot;)\n  Rel(task_service_impl, task_repository, \&quot;调用\&quot;)\n}\n\n@enduml&quot;,&#10;  &quot;format&quot;: &quot;svg&quot;&#10;}" id="5jrJoCIRXb_cUwFcefzs-6"><mxCell style="shape=image;noLabel=1;verticalAlign=top;aspect=fixed;imageAspect=0;image=data:image/svg+xml,PD94bWwgdmVyc2lvbj0iMS4wIiBlbmNvZGluZz0idXMtYXNjaWkiIHN0YW5kYWxvbmU9Im5vIj8+PHN2ZyB4bWxucz0iaHR0cDovL3d3dy53My5vcmcvMjAwMC9zdmciIHhtbG5zOnhsaW5rPSJodHRwOi8vd3d3LnczLm9yZy8xOTk5L3hsaW5rIiBjb250ZW50U3R5bGVUeXBlPSJ0ZXh0L2NzcyIgaGVpZ2h0PSI1MDVweCIgcHJlc2VydmVBc3BlY3RSYXRpbz0ibm9uZSIgc3R5bGU9IndpZHRoOjQwMHB4O2hlaWdodDo1MDVweDtiYWNrZ3JvdW5kOiNGRkZGRkY7IiB2ZXJzaW9uPSIxLjEiIHZpZXdCb3g9IjAgMCA0MDAgNTA1IiB3aWR0aD0iNDAwcHgiIHpvb21BbmRQYW49Im1hZ25pZnkiPjxkZWZzLz48Zz48dGV4dCBmaWxsPSIjMDAwMDAwIiBmb250LWZhbWlseT0ic2Fucy1zZXJpZiIgZm9udC1zaXplPSIxNCIgZm9udC13ZWlnaHQ9ImJvbGQiIGxlbmd0aEFkanVzdD0ic3BhY2luZyIgdGV4dExlbmd0aD0iMTEyIiB4PSIxMzciIHk9IjIzLjIzNDQiPiYjMjQ1MzU7JiMyNDg5NTsmIzMyNzczOyYjMjYzODE7JiMyMTE1MzsmIzMyNDUyOyYjMjAyMTQ7JiMyMjI3MDs8L3RleHQ+PCEtLWNsdXN0ZXIgdm9sdW50ZWVyX3NlcnZpY2UtLT48ZyBpZD0iY2x1c3Rlcl92b2x1bnRlZXJfc2VydmljZSI+PHJlY3QgZmlsbD0iIzQzOERENSIgaGVpZ2h0PSI0NTciIHJ4PSIyLjUiIHJ5PSIyLjUiIHN0eWxlPSJzdHJva2U6IzNDN0ZDMDtzdHJva2Utd2lkdGg6MS4wOyIgd2lkdGg9IjM4NyIgeD0iNyIgeT0iNDIuOTg0NCIvPjx0ZXh0IGZpbGw9IiNGRkZGRkYiIGZvbnQtZmFtaWx5PSJzYW5zLXNlcmlmIiBmb250LXNpemU9IjEyIiBmb250LXN0eWxlPSJpdGFsaWMiIGxlbmd0aEFkanVzdD0ic3BhY2luZyIgdGV4dExlbmd0aD0iNzIiIHg9IjE2NC41IiB5PSI1Ni4zMjgxIj4mIzE3MTtjb250YWluZXImIzE4Nzs8L3RleHQ+PHRleHQgZmlsbD0iI0ZGRkZGRiIgZm9udC1mYW1pbHk9InNhbnMtc2VyaWYiIGZvbnQtc2l6ZT0iMTYiIGZvbnQtd2VpZ2h0PSJib2xkIiBsZW5ndGhBZGp1c3Q9InNwYWNpbmciIHRleHRMZW5ndGg9IjgwIiB4PSIxNjAuNSIgeT0iNzIuOTUzMSI+JiMyNDUzNTsmIzI0ODk1OyYjMzI3NzM7JiMyNjM4MTsmIzIxMTUzOzwvdGV4dD48dGV4dCBmaWxsPSIjRkZGRkZGIiBmb250LWZhbWlseT0ic2Fucy1zZXJpZiIgZm9udC1zaXplPSIxMiIgZm9udC1zdHlsZT0iaXRhbGljIiBmb250LXdlaWdodD0iYm9sZCIgbGVuZ3RoQWRqdXN0PSJzcGFjaW5nIiB0ZXh0TGVuZ3RoPSIxNTEiIHg9IjEyNSIgeT0iODYuMjk2OSI+W1NwcmluZyBCb290ICsgTXlCYXRpc108L3RleHQ+PHRleHQgZmlsbD0iI0ZGRkZGRiIgZm9udC1mYW1pbHk9InNhbnMtc2VyaWYiIGZvbnQtc2l6ZT0iMTQiIGZvbnQtd2VpZ2h0PSJib2xkIiBsZW5ndGhBZGp1c3Q9InNwYWNpbmciIHRleHRMZW5ndGg9IjciIHg9IjE5NyIgeT0iMTAxLjAzMTMiPiYjMTYwOzwvdGV4dD48dGV4dCBmaWxsPSIjRkZGRkZGIiBmb250LWZhbWlseT0ic2Fucy1zZXJpZiIgZm9udC1zaXplPSIxNCIgZm9udC13ZWlnaHQ9ImJvbGQiIGxlbmd0aEFkanVzdD0ic3BhY2luZyIgdGV4dExlbmd0aD0iMTQwIiB4PSIxMzAuNSIgeT0iMTE2LjAxNTYiPiYjMjQ1MzU7JiMyNDg5NTsmIzMyNzczOyYjMzAwMDM7JiMzNTgzMTsmIzEyMjg5OyYjMjAyMTk7JiMyMTE1MzsmIzMxNjQ5OyYjMjk3MDI7PC90ZXh0PjwvZz48IS0tZW50aXR5IHZvbHVudGVlcl9jb250cm9sbGVyLS0+PGcgaWQ9ImVsZW1fdm9sdW50ZWVyX2NvbnRyb2xsZXIiPjxyZWN0IGZpbGw9IiM4NUJCRjAiIGhlaWdodD0iNzUuNjU2MyIgcng9IjIuNSIgcnk9IjIuNSIgc3R5bGU9InN0cm9rZTojNzhBOEQ4O3N0cm9rZS13aWR0aDowLjU7IiB3aWR0aD0iMTcyIiB4PSIyMDIiIHk9IjEzMy45ODQ0Ii8+PHRleHQgZmlsbD0iIzAwMDAwMCIgZm9udC1mYW1pbHk9InNhbnMtc2VyaWYiIGZvbnQtc2l6ZT0iMTIiIGZvbnQtc3R5bGU9Iml0YWxpYyIgbGVuZ3RoQWRqdXN0PSJzcGFjaW5nIiB0ZXh0TGVuZ3RoPSI3MiIgeD0iMjUyIiB5PSIxNTUuMzI4MSI+JiMxNzE7Y29tcG9uZW50JiMxODc7PC90ZXh0Pjx0ZXh0IGZpbGw9IiMwMDAwMDAiIGZvbnQtZmFtaWx5PSJzYW5zLXNlcmlmIiBmb250LXNpemU9IjE2IiBmb250LXdlaWdodD0iYm9sZCIgbGVuZ3RoQWRqdXN0PSJzcGFjaW5nIiB0ZXh0TGVuZ3RoPSIxNTIiIHg9IjIxMiIgeT0iMTcxLjk1MzEiPlZvbHVudGVlckNvbnRyb2xsZXI8L3RleHQ+PHRleHQgZmlsbD0iIzAwMDAwMCIgZm9udC1mYW1pbHk9InNhbnMtc2VyaWYiIGZvbnQtc2l6ZT0iMTIiIGZvbnQtc3R5bGU9Iml0YWxpYyIgbGVuZ3RoQWRqdXN0PSJzcGFjaW5nIiB0ZXh0TGVuZ3RoPSIxNTAiIHg9IjIxMyIgeT0iMTg1LjI5NjkiPlsmIzIyNzg4OyYjMjk3MDI7JiMyNDUzNTsmIzI0ODk1OyYjMzI3NzM7JiMzMDAwMzsmIzM1ODMxOyYjMzA0NTY7JiMyMDg1MTsmIzMwMzQwOyYjMzU4MzE7JiMyNzcxNDs8L3RleHQ+PHRleHQgZmlsbD0iIzAwMDAwMCIgZm9udC1mYW1pbHk9InNhbnMtc2VyaWYiIGZvbnQtc2l6ZT0iMTIiIGZvbnQtc3R5bGU9Iml0YWxpYyIgbGVuZ3RoQWRqdXN0PSJzcGFjaW5nIiB0ZXh0TGVuZ3RoPSIxMTQiIHg9IjIzMSIgeT0iMTk4LjE0MDYiPigmIzIzNDU3OyYjMjY2ODA7JiMxMjI4OTsmIzI2NTk3OyYjMzA0NzU7JiMxMjI4OTsmIzI1NjI4OyYjMzIwMzQ7KV08L3RleHQ+PC9nPjwhLS1lbnRpdHkgdGFza19jb250cm9sbGVyLS0+PGcgaWQ9ImVsZW1fdGFza19jb250cm9sbGVyIj48cmVjdCBmaWxsPSIjODVCQkYwIiBoZWlnaHQ9Ijc1LjY1NjMiIHJ4PSIyLjUiIHJ5PSIyLjUiIHN0eWxlPSJzdHJva2U6Izc4QThEODtzdHJva2Utd2lkdGg6MC41OyIgd2lkdGg9IjEzNCIgeD0iMjYiIHk9IjEzMy45ODQ0Ii8+PHRleHQgZmlsbD0iIzAwMDAwMCIgZm9udC1mYW1pbHk9InNhbnMtc2VyaWYiIGZvbnQtc2l6ZT0iMTIiIGZvbnQtc3R5bGU9Iml0YWxpYyIgbGVuZ3RoQWRqdXN0PSJzcGFjaW5nIiB0ZXh0TGVuZ3RoPSI3MiIgeD0iNTciIHk9IjE1NS4zMjgxIj4mIzE3MTtjb21wb25lbnQmIzE4Nzs8L3RleHQ+PHRleHQgZmlsbD0iIzAwMDAwMCIgZm9udC1mYW1pbHk9InNhbnMtc2VyaWYiIGZvbnQtc2l6ZT0iMTYiIGZvbnQtd2VpZ2h0PSJib2xkIiBsZW5ndGhBZGp1c3Q9InNwYWNpbmciIHRleHRMZW5ndGg9IjExMiIgeD0iMzciIHk9IjE3MS45NTMxIj5UYXNrQ29udHJvbGxlcjwvdGV4dD48dGV4dCBmaWxsPSIjMDAwMDAwIiBmb250LWZhbWlseT0ic2Fucy1zZXJpZiIgZm9udC1zaXplPSIxMiIgZm9udC1zdHlsZT0iaXRhbGljIiBsZW5ndGhBZGp1c3Q9InNwYWNpbmciIHRleHRMZW5ndGg9IjExNCIgeD0iMzYiIHk9IjE4NS4yOTY5Ij5bJiMyMjc4ODsmIzI5NzAyOyYjMjAyMTk7JiMyMTE1MzsmIzMwNDU2OyYjMjA4NTE7JiMzMDM0MDsmIzM1ODMxOyYjMjc3MTQ7PC90ZXh0Pjx0ZXh0IGZpbGw9IiMwMDAwMDAiIGZvbnQtZmFtaWx5PSJzYW5zLXNlcmlmIiBmb250LXNpemU9IjEyIiBmb250LXN0eWxlPSJpdGFsaWMiIGxlbmd0aEFkanVzdD0ic3BhY2luZyIgdGV4dExlbmd0aD0iMTE0IiB4PSIzNiIgeT0iMTk4LjE0MDYiPigmIzIxNDU3OyYjMjQwNjc7JiMxMjI4OTsmIzIwOTk4OyYjMzcxOTc7JiMxMjI4OTsmIzIzNDU3OyYjMjY2ODA7KV08L3RleHQ+PC9nPjwhLS1lbnRpdHkgdm9sdW50ZWVyX3NlcnZpY2VfaW1wbC0tPjxnIGlkPSJlbGVtX3ZvbHVudGVlcl9zZXJ2aWNlX2ltcGwiPjxyZWN0IGZpbGw9IiM4NUJCRjAiIGhlaWdodD0iNjIuODEyNSIgcng9IjIuNSIgcnk9IjIuNSIgc3R5bGU9InN0cm9rZTojNzhBOEQ4O3N0cm9rZS13aWR0aDowLjU7IiB3aWR0aD0iMTgwIiB4PSIxOTgiIHk9IjI4My45ODQ0Ii8+PHRleHQgZmlsbD0iIzAwMDAwMCIgZm9udC1mYW1pbHk9InNhbnMtc2VyaWYiIGZvbnQtc2l6ZT0iMTIiIGZvbnQtc3R5bGU9Iml0YWxpYyIgbGVuZ3RoQWRqdXN0PSJzcGFjaW5nIiB0ZXh0TGVuZ3RoPSI3MiIgeD0iMjUyIiB5PSIzMDUuMzI4MSI+JiMxNzE7Y29tcG9uZW50JiMxODc7PC90ZXh0Pjx0ZXh0IGZpbGw9IiMwMDAwMDAiIGZvbnQtZmFtaWx5PSJzYW5zLXNlcmlmIiBmb250LXNpemU9IjE2IiBmb250LXdlaWdodD0iYm9sZCIgbGVuZ3RoQWRqdXN0PSJzcGFjaW5nIiB0ZXh0TGVuZ3RoPSIxNjAiIHg9IjIwOCIgeT0iMzIxLjk1MzEiPlZvbHVudGVlclNlcnZpY2VJbXBsPC90ZXh0Pjx0ZXh0IGZpbGw9IiMwMDAwMDAiIGZvbnQtZmFtaWx5PSJzYW5zLXNlcmlmIiBmb250LXNpemU9IjEyIiBmb250LXN0eWxlPSJpdGFsaWMiIGxlbmd0aEFkanVzdD0ic3BhY2luZyIgdGV4dExlbmd0aD0iMTA4IiB4PSIyMzQiIHk9IjMzNS4yOTY5Ij5bJiMyNDUzNTsmIzI0ODk1OyYjMzI3NzM7JiMyNjM4MTsmIzIxMTUzOyYjMjM0NTQ7JiMyOTYxNjsmIzMxODY3O108L3RleHQ+PC9nPjwhLS1lbnRpdHkgdGFza19zZXJ2aWNlX2ltcGwtLT48ZyBpZD0iZWxlbV90YXNrX3NlcnZpY2VfaW1wbCI+PHJlY3QgZmlsbD0iIzg1QkJGMCIgaGVpZ2h0PSI2Mi44MTI1IiByeD0iMi41IiByeT0iMi41IiBzdHlsZT0ic3Ryb2tlOiM3OEE4RDg7c3Ryb2tlLXdpZHRoOjAuNTsiIHdpZHRoPSIxNDAiIHg9IjIzIiB5PSIyODMuOTg0NCIvPjx0ZXh0IGZpbGw9IiMwMDAwMDAiIGZvbnQtZmFtaWx5PSJzYW5zLXNlcmlmIiBmb250LXNpemU9IjEyIiBmb250LXN0eWxlPSJpdGFsaWMiIGxlbmd0aEFkanVzdD0ic3BhY2luZyIgdGV4dExlbmd0aD0iNzIiIHg9IjU3IiB5PSIzMDUuMzI4MSI+JiMxNzE7Y29tcG9uZW50JiMxODc7PC90ZXh0Pjx0ZXh0IGZpbGw9IiMwMDAwMDAiIGZvbnQtZmFtaWx5PSJzYW5zLXNlcmlmIiBmb250LXNpemU9IjE2IiBmb250LXdlaWdodD0iYm9sZCIgbGVuZ3RoQWRqdXN0PSJzcGFjaW5nIiB0ZXh0TGVuZ3RoPSIxMjAiIHg9IjMzIiB5PSIzMjEuOTUzMSI+VGFza1NlcnZpY2VJbXBsPC90ZXh0Pjx0ZXh0IGZpbGw9IiMwMDAwMDAiIGZvbnQtZmFtaWx5PSJzYW5zLXNlcmlmIiBmb250LXNpemU9IjEyIiBmb250LXN0eWxlPSJpdGFsaWMiIGxlbmd0aEFkanVzdD0ic3BhY2luZyIgdGV4dExlbmd0aD0iOTYiIHg9IjQ1IiB5PSIzMzUuMjk2OSI+WyYjMjAyMTk7JiMyMTE1MzsmIzI2MzgxOyYjMjExNTM7JiMyMzQ1NDsmIzI5NjE2OyYjMzE4Njc7XTwvdGV4dD48L2c+PCEtLWVudGl0eSB2b2x1bnRlZXJfcmVwb3NpdG9yeS0tPjxnIGlkPSJlbGVtX3ZvbHVudGVlcl9yZXBvc2l0b3J5Ij48cmVjdCBmaWxsPSIjODVCQkYwIiBoZWlnaHQ9IjYyLjgxMjUiIHJ4PSIyLjUiIHJ5PSIyLjUiIHN0eWxlPSJzdHJva2U6Izc4QThEODtzdHJva2Utd2lkdGg6MC41OyIgd2lkdGg9IjE3MiIgeD0iMjAyIiB5PSI0MjAuOTg0NCIvPjx0ZXh0IGZpbGw9IiMwMDAwMDAiIGZvbnQtZmFtaWx5PSJzYW5zLXNlcmlmIiBmb250LXNpemU9IjEyIiBmb250LXN0eWxlPSJpdGFsaWMiIGxlbmd0aEFkanVzdD0ic3BhY2luZyIgdGV4dExlbmd0aD0iNzIiIHg9IjI1MiIgeT0iNDQyLjMyODEiPiYjMTcxO2NvbXBvbmVudCYjMTg3OzwvdGV4dD48dGV4dCBmaWxsPSIjMDAwMDAwIiBmb250LWZhbWlseT0ic2Fucy1zZXJpZiIgZm9udC1zaXplPSIxNiIgZm9udC13ZWlnaHQ9ImJvbGQiIGxlbmd0aEFkanVzdD0ic3BhY2luZyIgdGV4dExlbmd0aD0iMTUyIiB4PSIyMTIiIHk9IjQ1OC45NTMxIj5Wb2x1bnRlZXJSZXBvc2l0b3J5PC90ZXh0Pjx0ZXh0IGZpbGw9IiMwMDAwMDAiIGZvbnQtZmFtaWx5PSJzYW5zLXNlcmlmIiBmb250LXNpemU9IjEyIiBmb250LXN0eWxlPSJpdGFsaWMiIGxlbmd0aEFkanVzdD0ic3BhY2luZyIgdGV4dExlbmd0aD0iMTA4IiB4PSIyMzQiIHk9IjQ3Mi4yOTY5Ij5bJiMyNDUzNTsmIzI0ODk1OyYjMzI3NzM7JiMyNTk2ODsmIzI1NDU0OyYjMzU3NzU7JiMzODM4MjsmIzIzNjE4O108L3RleHQ+PC9nPjwhLS1lbnRpdHkgdGFza19yZXBvc2l0b3J5LS0+PGcgaWQ9ImVsZW1fdGFza19yZXBvc2l0b3J5Ij48cmVjdCBmaWxsPSIjODVCQkYwIiBoZWlnaHQ9IjYyLjgxMjUiIHJ4PSIyLjUiIHJ5PSIyLjUiIHN0eWxlPSJzdHJva2U6Izc4QThEODtzdHJva2Utd2lkdGg6MC41OyIgd2lkdGg9IjEzMiIgeD0iMjciIHk9IjQyMC45ODQ0Ii8+PHRleHQgZmlsbD0iIzAwMDAwMCIgZm9udC1mYW1pbHk9InNhbnMtc2VyaWYiIGZvbnQtc2l6ZT0iMTIiIGZvbnQtc3R5bGU9Iml0YWxpYyIgbGVuZ3RoQWRqdXN0PSJzcGFjaW5nIiB0ZXh0TGVuZ3RoPSI3MiIgeD0iNTciIHk9IjQ0Mi4zMjgxIj4mIzE3MTtjb21wb25lbnQmIzE4Nzs8L3RleHQ+PHRleHQgZmlsbD0iIzAwMDAwMCIgZm9udC1mYW1pbHk9InNhbnMtc2VyaWYiIGZvbnQtc2l6ZT0iMTYiIGZvbnQtd2VpZ2h0PSJib2xkIiBsZW5ndGhBZGp1c3Q9InNwYWNpbmciIHRleHRMZW5ndGg9IjExMiIgeD0iMzciIHk9IjQ1OC45NTMxIj5UYXNrUmVwb3NpdG9yeTwvdGV4dD48dGV4dCBmaWxsPSIjMDAwMDAwIiBmb250LWZhbWlseT0ic2Fucy1zZXJpZiIgZm9udC1zaXplPSIxMiIgZm9udC1zdHlsZT0iaXRhbGljIiBsZW5ndGhBZGp1c3Q9InNwYWNpbmciIHRleHRMZW5ndGg9Ijk2IiB4PSI0NSIgeT0iNDcyLjI5NjkiPlsmIzIwMjE5OyYjMjExNTM7JiMyNTk2ODsmIzI1NDU0OyYjMzU3NzU7JiMzODM4MjsmIzIzNjE4O108L3RleHQ+PC9nPjwhLS1saW5rIHZvbHVudGVlcl9jb250cm9sbGVyIHRvIHZvbHVudGVlcl9zZXJ2aWNlX2ltcGwtLT48ZyBpZD0ibGlua192b2x1bnRlZXJfY29udHJvbGxlcl92b2x1bnRlZXJfc2VydmljZV9pbXBsIj48cGF0aCBkPSJNMjg4LDIxMC4xNjQ0IEMyODgsMjMzLjA4NDQgMjg4LDI1NC4xNDQ0IDI4OCwyNzUuNzU0NCAiIGZpbGw9Im5vbmUiIGlkPSJ2b2x1bnRlZXJfY29udHJvbGxlci10by12b2x1bnRlZXJfc2VydmljZV9pbXBsIiBzdHlsZT0ic3Ryb2tlOiM2NjY2NjY7c3Ryb2tlLXdpZHRoOjEuMDsiLz48cG9seWdvbiBmaWxsPSIjNjY2NjY2IiBwb2ludHM9IjI4OCwyODMuNzU0NCwyOTEsMjc1Ljc1NDQsMjg1LDI3NS43NTQ0LDI4OCwyODMuNzU0NCIgc3R5bGU9InN0cm9rZTojNjY2NjY2O3N0cm9rZS13aWR0aDoxLjA7Ii8+PHRleHQgZmlsbD0iIzY2NjY2NiIgZm9udC1mYW1pbHk9InNhbnMtc2VyaWYiIGZvbnQtc2l6ZT0iMTIiIGZvbnQtd2VpZ2h0PSJib2xkIiBsZW5ndGhBZGp1c3Q9InNwYWNpbmciIHRleHRMZW5ndGg9IjI0IiB4PSIyODkiIHk9IjI1Mi4zMjgxIj4mIzM1ODQzOyYjMjk5OTI7PC90ZXh0PjwvZz48IS0tbGluayB0YXNrX2NvbnRyb2xsZXIgdG8gdGFza19zZXJ2aWNlX2ltcGwtLT48ZyBpZD0ibGlua190YXNrX2NvbnRyb2xsZXJfdGFza19zZXJ2aWNlX2ltcGwiPjxwYXRoIGQ9Ik05MywyMTAuMTY0NCBDOTMsMjMzLjA4NDQgOTMsMjU0LjE0NDQgOTMsMjc1Ljc1NDQgIiBmaWxsPSJub25lIiBpZD0idGFza19jb250cm9sbGVyLXRvLXRhc2tfc2VydmljZV9pbXBsIiBzdHlsZT0ic3Ryb2tlOiM2NjY2NjY7c3Ryb2tlLXdpZHRoOjEuMDsiLz48cG9seWdvbiBmaWxsPSIjNjY2NjY2IiBwb2ludHM9IjkzLDI4My43NTQ0LDk2LDI3NS43NTQ0LDkwLDI3NS43NTQ0LDkzLDI4My43NTQ0IiBzdHlsZT0ic3Ryb2tlOiM2NjY2NjY7c3Ryb2tlLXdpZHRoOjEuMDsiLz48dGV4dCBmaWxsPSIjNjY2NjY2IiBmb250LWZhbWlseT0ic2Fucy1zZXJpZiIgZm9udC1zaXplPSIxMiIgZm9udC13ZWlnaHQ9ImJvbGQiIGxlbmd0aEFkanVzdD0ic3BhY2luZyIgdGV4dExlbmd0aD0iMjQiIHg9Ijk0IiB5PSIyNTIuMzI4MSI+JiMzNTg0MzsmIzI5OTkyOzwvdGV4dD48L2c+PCEtLWxpbmsgdm9sdW50ZWVyX3NlcnZpY2VfaW1wbCB0byB2b2x1bnRlZXJfcmVwb3NpdG9yeS0tPjxnIGlkPSJsaW5rX3ZvbHVudGVlcl9zZXJ2aWNlX2ltcGxfdm9sdW50ZWVyX3JlcG9zaXRvcnkiPjxwYXRoIGQ9Ik0yODgsMzQ3LjExNDQgQzI4OCwzNjkuMjE0NCAyODgsMzkwLjkwNDQgMjg4LDQxMi45NzQ0ICIgZmlsbD0ibm9uZSIgaWQ9InZvbHVudGVlcl9zZXJ2aWNlX2ltcGwtdG8tdm9sdW50ZWVyX3JlcG9zaXRvcnkiIHN0eWxlPSJzdHJva2U6IzY2NjY2NjtzdHJva2Utd2lkdGg6MS4wOyIvPjxwb2x5Z29uIGZpbGw9IiM2NjY2NjYiIHBvaW50cz0iMjg4LDQyMC45NzQ0LDI5MSw0MTIuOTc0NCwyODUsNDEyLjk3NDQsMjg4LDQyMC45NzQ0IiBzdHlsZT0ic3Ryb2tlOiM2NjY2NjY7c3Ryb2tlLXdpZHRoOjEuMDsiLz48dGV4dCBmaWxsPSIjNjY2NjY2IiBmb250LWZhbWlseT0ic2Fucy1zZXJpZiIgZm9udC1zaXplPSIxMiIgZm9udC13ZWlnaHQ9ImJvbGQiIGxlbmd0aEFkanVzdD0ic3BhY2luZyIgdGV4dExlbmd0aD0iMjQiIHg9IjI4OSIgeT0iMzg5LjMyODEiPiYjMzU4NDM7JiMyOTk5Mjs8L3RleHQ+PC9nPjwhLS1saW5rIHRhc2tfc2VydmljZV9pbXBsIHRvIHRhc2tfcmVwb3NpdG9yeS0tPjxnIGlkPSJsaW5rX3Rhc2tfc2VydmljZV9pbXBsX3Rhc2tfcmVwb3NpdG9yeSI+PHBhdGggZD0iTTkzLDM0Ny4xMTQ0IEM5MywzNjkuMjE0NCA5MywzOTAuOTA0NCA5Myw0MTIuOTc0NCAiIGZpbGw9Im5vbmUiIGlkPSJ0YXNrX3NlcnZpY2VfaW1wbC10by10YXNrX3JlcG9zaXRvcnkiIHN0eWxlPSJzdHJva2U6IzY2NjY2NjtzdHJva2Utd2lkdGg6MS4wOyIvPjxwb2x5Z29uIGZpbGw9IiM2NjY2NjYiIHBvaW50cz0iOTMsNDIwLjk3NDQsOTYsNDEyLjk3NDQsOTAsNDEyLjk3NDQsOTMsNDIwLjk3NDQiIHN0eWxlPSJzdHJva2U6IzY2NjY2NjtzdHJva2Utd2lkdGg6MS4wOyIvPjx0ZXh0IGZpbGw9IiM2NjY2NjYiIGZvbnQtZmFtaWx5PSJzYW5zLXNlcmlmIiBmb250LXNpemU9IjEyIiBmb250LXdlaWdodD0iYm9sZCIgbGVuZ3RoQWRqdXN0PSJzcGFjaW5nIiB0ZXh0TGVuZ3RoPSIyNCIgeD0iOTQiIHk9IjM4OS4zMjgxIj4mIzM1ODQzOyYjMjk5OTI7PC90ZXh0PjwvZz48IS0tU1JDPVtUUDlGSS1EMDZDUmwtSElwRVJNaWNlaWRaX09hQTJvd3d4TjRFalhYOXZhbWNJWGI0VnBKb2g5Qkx1TEFHU2pnSFM1SmphTG4ydTdqWHg2SlFSXzVwaEdyRDRyb1V0Y096X2F6cHZqeUc3TzlVeGxHZW5ZSzZORlM1U0VXdmk3STdjOWJSeVRwOElxSGNxNlJCUE04UEpaT2o5YmR1S01OeE1BcU9uSU01cHlmd1NsNmtjNlBCZURLSWlLMmlIbllnbnI3bGpLcVhYWTZXRlVST1JLX0ZBZzVoSmhfcUhQMVRIMnl5ZmpfY2JRRzExRlBhRVJzMlZPYTNUQVkxRS1aNGJtMC1qb1VCZ0tqWG85eDN3bUltaTE3aTU1UERIYm96VGN0ZWw0eV9GRnR4VVh1NDBHQXZoVjVuUGNVMXp5cTBBOXVDcFhMYVhBQzhQS2tzLXpvOExCN3ZXekxRSkE3NDNTek5kaU1yckt2WHpxSmFFRC1FeHBoSU45dS1vWFFGekxtcUg4bHp0YXo3c0NwcV9xUW50d01JWGZuTVk0MUVoX2FsTEZmcHgtVlpNZnJET3BINHIxNnAtYlBZeVhveTZwSmhPYy05Y0t6VU5Ga19uUV9FZzhSZjdNT2lyR2p2am1jMVRBaUNiOUl3MTBOQ0s4aGluYXQ4cEtVeVFlSnJsc1h0bnlyVlR1eklPaU95ckMxdXJSSlYwYVZRUkc5U1NQVmFkZEpPVVRLRDl4NkNUSHN1WmtkN0l0UUlJM1ozcERFYjhRQ0JvUkY0RXFTX1dTMF0tLT48L2c+PC9zdmc+;" parent="1" vertex="1"><mxGeometry x="966" y="776" width="400" height="505" as="geometry"/></mxCell></UserObject><UserObject label="" plantUmlData="{&#10;  &quot;data&quot;: &quot;@startuml\n!includeurl https://raw.githubusercontent.com/plantuml-stdlib/C4-PlantUML/master/C4_Component.puml\n\ntitle 流浪猫服务组件图\n\nContainer(cat_service, \&quot;流浪猫服务\&quot;, \&quot;Spring Boot + MyBatis\&quot;, \&quot;流浪猫信息管理、审核\&quot;) {\n  Component(cat_controller, \&quot;CatController\&quot;, \&quot;处理流浪猫信息相关的请求 (添加、编辑、查看、搜索)\&quot;)\n  Component(request_controller, \&quot;RequestController\&quot;, \&quot;处理求助信息审核相关的请求\&quot;)\n  \n  Component(cat_service_impl, \&quot;CatServiceImpl\&quot;, \&quot;流浪猫服务实现类\&quot;)\n  Component(request_service_impl, \&quot;RequestServiceImpl\&quot;, \&quot;求助信息服务实现类\&quot;)\n  \n  Component(cat_repository, \&quot;CatRepository\&quot;, \&quot;流浪猫数据访问层\&quot;)\n  Component(request_repository, \&quot;RequestRepository\&quot;, \&quot;求助信息数据访问层\&quot;)\n\n  Rel(cat_controller, cat_service_impl, \&quot;调用\&quot;)\n  Rel(request_controller, request_service_impl, \&quot;调用\&quot;)\n\n  Rel(cat_service_impl, cat_repository, \&quot;调用\&quot;)\n  Rel(request_service_impl, request_repository, \&quot;调用\&quot;)\n}\n\n@enduml&quot;,&#10;  &quot;format&quot;: &quot;svg&quot;&#10;}" id="5jrJoCIRXb_cUwFcefzs-7"><mxCell style="shape=image;noLabel=1;verticalAlign=top;aspect=fixed;imageAspect=0;image=data:image/svg+xml,PD94bWwgdmVyc2lvbj0iMS4wIiBlbmNvZGluZz0idXMtYXNjaWkiIHN0YW5kYWxvbmU9Im5vIj8+PHN2ZyB4bWxucz0iaHR0cDovL3d3dy53My5vcmcvMjAwMC9zdmciIHhtbG5zOnhsaW5rPSJodHRwOi8vd3d3LnczLm9yZy8xOTk5L3hsaW5rIiBjb250ZW50U3R5bGVUeXBlPSJ0ZXh0L2NzcyIgaGVpZ2h0PSI1MDVweCIgcHJlc2VydmVBc3BlY3RSYXRpbz0ibm9uZSIgc3R5bGU9IndpZHRoOjQzOHB4O2hlaWdodDo1MDVweDtiYWNrZ3JvdW5kOiNGRkZGRkY7IiB2ZXJzaW9uPSIxLjEiIHZpZXdCb3g9IjAgMCA0MzggNTA1IiB3aWR0aD0iNDM4cHgiIHpvb21BbmRQYW49Im1hZ25pZnkiPjxkZWZzLz48Zz48dGV4dCBmaWxsPSIjMDAwMDAwIiBmb250LWZhbWlseT0ic2Fucy1zZXJpZiIgZm9udC1zaXplPSIxNCIgZm9udC13ZWlnaHQ9ImJvbGQiIGxlbmd0aEFkanVzdD0ic3BhY2luZyIgdGV4dExlbmd0aD0iMTEyIiB4PSIxNTYiIHk9IjIzLjIzNDQiPiYjMjc5Njk7JiMyODAxMDsmIzI5NDgzOyYjMjYzODE7JiMyMTE1MzsmIzMyNDUyOyYjMjAyMTQ7JiMyMjI3MDs8L3RleHQ+PCEtLWNsdXN0ZXIgY2F0X3NlcnZpY2UtLT48ZyBpZD0iY2x1c3Rlcl9jYXRfc2VydmljZSI+PHJlY3QgZmlsbD0iIzQzOERENSIgaGVpZ2h0PSI0NTciIHJ4PSIyLjUiIHJ5PSIyLjUiIHN0eWxlPSJzdHJva2U6IzNDN0ZDMDtzdHJva2Utd2lkdGg6MS4wOyIgd2lkdGg9IjQyNSIgeD0iNyIgeT0iNDIuOTg0NCIvPjx0ZXh0IGZpbGw9IiNGRkZGRkYiIGZvbnQtZmFtaWx5PSJzYW5zLXNlcmlmIiBmb250LXNpemU9IjEyIiBmb250LXN0eWxlPSJpdGFsaWMiIGxlbmd0aEFkanVzdD0ic3BhY2luZyIgdGV4dExlbmd0aD0iNzIiIHg9IjE4My41IiB5PSI1Ni4zMjgxIj4mIzE3MTtjb250YWluZXImIzE4Nzs8L3RleHQ+PHRleHQgZmlsbD0iI0ZGRkZGRiIgZm9udC1mYW1pbHk9InNhbnMtc2VyaWYiIGZvbnQtc2l6ZT0iMTYiIGZvbnQtd2VpZ2h0PSJib2xkIiBsZW5ndGhBZGp1c3Q9InNwYWNpbmciIHRleHRMZW5ndGg9IjgwIiB4PSIxNzkuNSIgeT0iNzIuOTUzMSI+JiMyNzk2OTsmIzI4MDEwOyYjMjk0ODM7JiMyNjM4MTsmIzIxMTUzOzwvdGV4dD48dGV4dCBmaWxsPSIjRkZGRkZGIiBmb250LWZhbWlseT0ic2Fucy1zZXJpZiIgZm9udC1zaXplPSIxMiIgZm9udC1zdHlsZT0iaXRhbGljIiBmb250LXdlaWdodD0iYm9sZCIgbGVuZ3RoQWRqdXN0PSJzcGFjaW5nIiB0ZXh0TGVuZ3RoPSIxNTEiIHg9IjE0NCIgeT0iODYuMjk2OSI+W1NwcmluZyBCb290ICsgTXlCYXRpc108L3RleHQ+PHRleHQgZmlsbD0iI0ZGRkZGRiIgZm9udC1mYW1pbHk9InNhbnMtc2VyaWYiIGZvbnQtc2l6ZT0iMTQiIGZvbnQtd2VpZ2h0PSJib2xkIiBsZW5ndGhBZGp1c3Q9InNwYWNpbmciIHRleHRMZW5ndGg9IjciIHg9IjIxNiIgeT0iMTAxLjAzMTMiPiYjMTYwOzwvdGV4dD48dGV4dCBmaWxsPSIjRkZGRkZGIiBmb250LWZhbWlseT0ic2Fucy1zZXJpZiIgZm9udC1zaXplPSIxNCIgZm9udC13ZWlnaHQ9ImJvbGQiIGxlbmd0aEFkanVzdD0ic3BhY2luZyIgdGV4dExlbmd0aD0iMTQwIiB4PSIxNDkuNSIgeT0iMTE2LjAxNTYiPiYjMjc5Njk7JiMyODAxMDsmIzI5NDgzOyYjMjA0NDk7JiMyNDY4NzsmIzMxNjQ5OyYjMjk3MDI7JiMxMjI4OTsmIzIzNDU3OyYjMjY2ODA7PC90ZXh0PjwvZz48IS0tZW50aXR5IGNhdF9jb250cm9sbGVyLS0+PGcgaWQ9ImVsZW1fY2F0X2NvbnRyb2xsZXIiPjxyZWN0IGZpbGw9IiM4NUJCRjAiIGhlaWdodD0iNzUuNjU2MyIgcng9IjIuNSIgcnk9IjIuNSIgc3R5bGU9InN0cm9rZTojNzhBOEQ4O3N0cm9rZS13aWR0aDowLjU7IiB3aWR0aD0iMTcwIiB4PSIyNDYiIHk9IjEzMy45ODQ0Ii8+PHRleHQgZmlsbD0iIzAwMDAwMCIgZm9udC1mYW1pbHk9InNhbnMtc2VyaWYiIGZvbnQtc2l6ZT0iMTIiIGZvbnQtc3R5bGU9Iml0YWxpYyIgbGVuZ3RoQWRqdXN0PSJzcGFjaW5nIiB0ZXh0TGVuZ3RoPSI3MiIgeD0iMjk1IiB5PSIxNTUuMzI4MSI+JiMxNzE7Y29tcG9uZW50JiMxODc7PC90ZXh0Pjx0ZXh0IGZpbGw9IiMwMDAwMDAiIGZvbnQtZmFtaWx5PSJzYW5zLXNlcmlmIiBmb250LXNpemU9IjE2IiBmb250LXdlaWdodD0iYm9sZCIgbGVuZ3RoQWRqdXN0PSJzcGFjaW5nIiB0ZXh0TGVuZ3RoPSIxMDQiIHg9IjI3OSIgeT0iMTcxLjk1MzEiPkNhdENvbnRyb2xsZXI8L3RleHQ+PHRleHQgZmlsbD0iIzAwMDAwMCIgZm9udC1mYW1pbHk9InNhbnMtc2VyaWYiIGZvbnQtc2l6ZT0iMTIiIGZvbnQtc3R5bGU9Iml0YWxpYyIgbGVuZ3RoQWRqdXN0PSJzcGFjaW5nIiB0ZXh0TGVuZ3RoPSIxNTAiIHg9IjI1NiIgeT0iMTg1LjI5NjkiPlsmIzIyNzg4OyYjMjk3MDI7JiMyNzk2OTsmIzI4MDEwOyYjMjk0ODM7JiMyMDQ0OTsmIzI0Njg3OyYjMzA0NTY7JiMyMDg1MTsmIzMwMzQwOyYjMzU4MzE7JiMyNzcxNDs8L3RleHQ+PHRleHQgZmlsbD0iIzAwMDAwMCIgZm9udC1mYW1pbHk9InNhbnMtc2VyaWYiIGZvbnQtc2l6ZT0iMTIiIGZvbnQtc3R5bGU9Iml0YWxpYyIgbGVuZ3RoQWRqdXN0PSJzcGFjaW5nIiB0ZXh0TGVuZ3RoPSIxNTAiIHg9IjI1NiIgeT0iMTk4LjE0MDYiPigmIzI4MTU1OyYjMjExNTI7JiMxMjI4OTsmIzMyNTM0OyYjMzY3NTM7JiMxMjI4OTsmIzI2NTk3OyYjMzA0NzU7JiMxMjI4OTsmIzI1NjI4OyYjMzIwMzQ7KV08L3RleHQ+PC9nPjwhLS1lbnRpdHkgcmVxdWVzdF9jb250cm9sbGVyLS0+PGcgaWQ9ImVsZW1fcmVxdWVzdF9jb250cm9sbGVyIj48cmVjdCBmaWxsPSIjODVCQkYwIiBoZWlnaHQ9IjYyLjgxMjUiIHJ4PSIyLjUiIHJ5PSIyLjUiIHN0eWxlPSJzdHJva2U6Izc4QThEODtzdHJva2Utd2lkdGg6MC41OyIgd2lkdGg9IjE4OCIgeD0iMjMiIHk9IjE0MC40ODQ0Ii8+PHRleHQgZmlsbD0iIzAwMDAwMCIgZm9udC1mYW1pbHk9InNhbnMtc2VyaWYiIGZvbnQtc2l6ZT0iMTIiIGZvbnQtc3R5bGU9Iml0YWxpYyIgbGVuZ3RoQWRqdXN0PSJzcGFjaW5nIiB0ZXh0TGVuZ3RoPSI3MiIgeD0iODEiIHk9IjE2MS44MjgxIj4mIzE3MTtjb21wb25lbnQmIzE4Nzs8L3RleHQ+PHRleHQgZmlsbD0iIzAwMDAwMCIgZm9udC1mYW1pbHk9InNhbnMtc2VyaWYiIGZvbnQtc2l6ZT0iMTYiIGZvbnQtd2VpZ2h0PSJib2xkIiBsZW5ndGhBZGp1c3Q9InNwYWNpbmciIHRleHRMZW5ndGg9IjEzNiIgeD0iNDkiIHk9IjE3OC40NTMxIj5SZXF1ZXN0Q29udHJvbGxlcjwvdGV4dD48dGV4dCBmaWxsPSIjMDAwMDAwIiBmb250LWZhbWlseT0ic2Fucy1zZXJpZiIgZm9udC1zaXplPSIxMiIgZm9udC1zdHlsZT0iaXRhbGljIiBsZW5ndGhBZGp1c3Q9InNwYWNpbmciIHRleHRMZW5ndGg9IjE2OCIgeD0iMzMiIHk9IjE5MS43OTY5Ij5bJiMyMjc4ODsmIzI5NzAyOyYjMjc3MTQ7JiMyMTE2MTsmIzIwNDQ5OyYjMjQ2ODc7JiMyMzQ1NzsmIzI2NjgwOyYjMzA0NTY7JiMyMDg1MTsmIzMwMzQwOyYjMzU4MzE7JiMyNzcxNDtdPC90ZXh0PjwvZz48IS0tZW50aXR5IGNhdF9zZXJ2aWNlX2ltcGwtLT48ZyBpZD0iZWxlbV9jYXRfc2VydmljZV9pbXBsIj48cmVjdCBmaWxsPSIjODVCQkYwIiBoZWlnaHQ9IjYyLjgxMjUiIHJ4PSIyLjUiIHJ5PSIyLjUiIHN0eWxlPSJzdHJva2U6Izc4QThEODtzdHJva2Utd2lkdGg6MC41OyIgd2lkdGg9IjEzMiIgeD0iMjY1IiB5PSIyODMuOTg0NCIvPjx0ZXh0IGZpbGw9IiMwMDAwMDAiIGZvbnQtZmFtaWx5PSJzYW5zLXNlcmlmIiBmb250LXNpemU9IjEyIiBmb250LXN0eWxlPSJpdGFsaWMiIGxlbmd0aEFkanVzdD0ic3BhY2luZyIgdGV4dExlbmd0aD0iNzIiIHg9IjI5NSIgeT0iMzA1LjMyODEiPiYjMTcxO2NvbXBvbmVudCYjMTg3OzwvdGV4dD48dGV4dCBmaWxsPSIjMDAwMDAwIiBmb250LWZhbWlseT0ic2Fucy1zZXJpZiIgZm9udC1zaXplPSIxNiIgZm9udC13ZWlnaHQ9ImJvbGQiIGxlbmd0aEFkanVzdD0ic3BhY2luZyIgdGV4dExlbmd0aD0iMTEyIiB4PSIyNzUiIHk9IjMyMS45NTMxIj5DYXRTZXJ2aWNlSW1wbDwvdGV4dD48dGV4dCBmaWxsPSIjMDAwMDAwIiBmb250LWZhbWlseT0ic2Fucy1zZXJpZiIgZm9udC1zaXplPSIxMiIgZm9udC1zdHlsZT0iaXRhbGljIiBsZW5ndGhBZGp1c3Q9InNwYWNpbmciIHRleHRMZW5ndGg9IjEwOCIgeD0iMjc3IiB5PSIzMzUuMjk2OSI+WyYjMjc5Njk7JiMyODAxMDsmIzI5NDgzOyYjMjYzODE7JiMyMTE1MzsmIzIzNDU0OyYjMjk2MTY7JiMzMTg2NztdPC90ZXh0PjwvZz48IS0tZW50aXR5IHJlcXVlc3Rfc2VydmljZV9pbXBsLS0+PGcgaWQ9ImVsZW1fcmVxdWVzdF9zZXJ2aWNlX2ltcGwiPjxyZWN0IGZpbGw9IiM4NUJCRjAiIGhlaWdodD0iNjIuODEyNSIgcng9IjIuNSIgcnk9IjIuNSIgc3R5bGU9InN0cm9rZTojNzhBOEQ4O3N0cm9rZS13aWR0aDowLjU7IiB3aWR0aD0iMTY0IiB4PSIzNSIgeT0iMjgzLjk4NDQiLz48dGV4dCBmaWxsPSIjMDAwMDAwIiBmb250LWZhbWlseT0ic2Fucy1zZXJpZiIgZm9udC1zaXplPSIxMiIgZm9udC1zdHlsZT0iaXRhbGljIiBsZW5ndGhBZGp1c3Q9InNwYWNpbmciIHRleHRMZW5ndGg9IjcyIiB4PSI4MSIgeT0iMzA1LjMyODEiPiYjMTcxO2NvbXBvbmVudCYjMTg3OzwvdGV4dD48dGV4dCBmaWxsPSIjMDAwMDAwIiBmb250LWZhbWlseT0ic2Fucy1zZXJpZiIgZm9udC1zaXplPSIxNiIgZm9udC13ZWlnaHQ9ImJvbGQiIGxlbmd0aEFkanVzdD0ic3BhY2luZyIgdGV4dExlbmd0aD0iMTQ0IiB4PSI0NSIgeT0iMzIxLjk1MzEiPlJlcXVlc3RTZXJ2aWNlSW1wbDwvdGV4dD48dGV4dCBmaWxsPSIjMDAwMDAwIiBmb250LWZhbWlseT0ic2Fucy1zZXJpZiIgZm9udC1zaXplPSIxMiIgZm9udC1zdHlsZT0iaXRhbGljIiBsZW5ndGhBZGp1c3Q9InNwYWNpbmciIHRleHRMZW5ndGg9IjEyMCIgeD0iNTciIHk9IjMzNS4yOTY5Ij5bJiMyNzcxNDsmIzIxMTYxOyYjMjA0NDk7JiMyNDY4NzsmIzI2MzgxOyYjMjExNTM7JiMyMzQ1NDsmIzI5NjE2OyYjMzE4Njc7XTwvdGV4dD48L2c+PCEtLWVudGl0eSBjYXRfcmVwb3NpdG9yeS0tPjxnIGlkPSJlbGVtX2NhdF9yZXBvc2l0b3J5Ij48cmVjdCBmaWxsPSIjODVCQkYwIiBoZWlnaHQ9IjYyLjgxMjUiIHJ4PSIyLjUiIHJ5PSIyLjUiIHN0eWxlPSJzdHJva2U6Izc4QThEODtzdHJva2Utd2lkdGg6MC41OyIgd2lkdGg9IjEyOCIgeD0iMjY3IiB5PSI0MjAuOTg0NCIvPjx0ZXh0IGZpbGw9IiMwMDAwMDAiIGZvbnQtZmFtaWx5PSJzYW5zLXNlcmlmIiBmb250LXNpemU9IjEyIiBmb250LXN0eWxlPSJpdGFsaWMiIGxlbmd0aEFkanVzdD0ic3BhY2luZyIgdGV4dExlbmd0aD0iNzIiIHg9IjI5NSIgeT0iNDQyLjMyODEiPiYjMTcxO2NvbXBvbmVudCYjMTg3OzwvdGV4dD48dGV4dCBmaWxsPSIjMDAwMDAwIiBmb250LWZhbWlseT0ic2Fucy1zZXJpZiIgZm9udC1zaXplPSIxNiIgZm9udC13ZWlnaHQ9ImJvbGQiIGxlbmd0aEFkanVzdD0ic3BhY2luZyIgdGV4dExlbmd0aD0iMTA0IiB4PSIyNzkiIHk9IjQ1OC45NTMxIj5DYXRSZXBvc2l0b3J5PC90ZXh0Pjx0ZXh0IGZpbGw9IiMwMDAwMDAiIGZvbnQtZmFtaWx5PSJzYW5zLXNlcmlmIiBmb250LXNpemU9IjEyIiBmb250LXN0eWxlPSJpdGFsaWMiIGxlbmd0aEFkanVzdD0ic3BhY2luZyIgdGV4dExlbmd0aD0iMTA4IiB4PSIyNzciIHk9IjQ3Mi4yOTY5Ij5bJiMyNzk2OTsmIzI4MDEwOyYjMjk0ODM7JiMyNTk2ODsmIzI1NDU0OyYjMzU3NzU7JiMzODM4MjsmIzIzNjE4O108L3RleHQ+PC9nPjwhLS1lbnRpdHkgcmVxdWVzdF9yZXBvc2l0b3J5LS0+PGcgaWQ9ImVsZW1fcmVxdWVzdF9yZXBvc2l0b3J5Ij48cmVjdCBmaWxsPSIjODVCQkYwIiBoZWlnaHQ9IjYyLjgxMjUiIHJ4PSIyLjUiIHJ5PSIyLjUiIHN0eWxlPSJzdHJva2U6Izc4QThEODtzdHJva2Utd2lkdGg6MC41OyIgd2lkdGg9IjE1NiIgeD0iMzkiIHk9IjQyMC45ODQ0Ii8+PHRleHQgZmlsbD0iIzAwMDAwMCIgZm9udC1mYW1pbHk9InNhbnMtc2VyaWYiIGZvbnQtc2l6ZT0iMTIiIGZvbnQtc3R5bGU9Iml0YWxpYyIgbGVuZ3RoQWRqdXN0PSJzcGFjaW5nIiB0ZXh0TGVuZ3RoPSI3MiIgeD0iODEiIHk9IjQ0Mi4zMjgxIj4mIzE3MTtjb21wb25lbnQmIzE4Nzs8L3RleHQ+PHRleHQgZmlsbD0iIzAwMDAwMCIgZm9udC1mYW1pbHk9InNhbnMtc2VyaWYiIGZvbnQtc2l6ZT0iMTYiIGZvbnQtd2VpZ2h0PSJib2xkIiBsZW5ndGhBZGp1c3Q9InNwYWNpbmciIHRleHRMZW5ndGg9IjEzNiIgeD0iNDkiIHk9IjQ1OC45NTMxIj5SZXF1ZXN0UmVwb3NpdG9yeTwvdGV4dD48dGV4dCBmaWxsPSIjMDAwMDAwIiBmb250LWZhbWlseT0ic2Fucy1zZXJpZiIgZm9udC1zaXplPSIxMiIgZm9udC1zdHlsZT0iaXRhbGljIiBsZW5ndGhBZGp1c3Q9InNwYWNpbmciIHRleHRMZW5ndGg9IjEyMCIgeD0iNTciIHk9IjQ3Mi4yOTY5Ij5bJiMyNzcxNDsmIzIxMTYxOyYjMjA0NDk7JiMyNDY4NzsmIzI1OTY4OyYjMjU0NTQ7JiMzNTc3NTsmIzM4MzgyOyYjMjM2MTg7XTwvdGV4dD48L2c+PCEtLWxpbmsgY2F0X2NvbnRyb2xsZXIgdG8gY2F0X3NlcnZpY2VfaW1wbC0tPjxnIGlkPSJsaW5rX2NhdF9jb250cm9sbGVyX2NhdF9zZXJ2aWNlX2ltcGwiPjxwYXRoIGQ9Ik0zMzEsMjEwLjE2NDQgQzMzMSwyMzMuMDg0NCAzMzEsMjU0LjE0NDQgMzMxLDI3NS43NTQ0ICIgZmlsbD0ibm9uZSIgaWQ9ImNhdF9jb250cm9sbGVyLXRvLWNhdF9zZXJ2aWNlX2ltcGwiIHN0eWxlPSJzdHJva2U6IzY2NjY2NjtzdHJva2Utd2lkdGg6MS4wOyIvPjxwb2x5Z29uIGZpbGw9IiM2NjY2NjYiIHBvaW50cz0iMzMxLDI4My43NTQ0LDMzNCwyNzUuNzU0NCwzMjgsMjc1Ljc1NDQsMzMxLDI4My43NTQ0IiBzdHlsZT0ic3Ryb2tlOiM2NjY2NjY7c3Ryb2tlLXdpZHRoOjEuMDsiLz48dGV4dCBmaWxsPSIjNjY2NjY2IiBmb250LWZhbWlseT0ic2Fucy1zZXJpZiIgZm9udC1zaXplPSIxMiIgZm9udC13ZWlnaHQ9ImJvbGQiIGxlbmd0aEFkanVzdD0ic3BhY2luZyIgdGV4dExlbmd0aD0iMjQiIHg9IjMzMiIgeT0iMjUyLjMyODEiPiYjMzU4NDM7JiMyOTk5Mjs8L3RleHQ+PC9nPjwhLS1saW5rIHJlcXVlc3RfY29udHJvbGxlciB0byByZXF1ZXN0X3NlcnZpY2VfaW1wbC0tPjxnIGlkPSJsaW5rX3JlcXVlc3RfY29udHJvbGxlcl9yZXF1ZXN0X3NlcnZpY2VfaW1wbCI+PHBhdGggZD0iTTExNywyMDMuNjg0NCBDMTE3LDIyNy40MjQ0IDExNywyNTIuMTI0NCAxMTcsMjc1Ljg0NDQgIiBmaWxsPSJub25lIiBpZD0icmVxdWVzdF9jb250cm9sbGVyLXRvLXJlcXVlc3Rfc2VydmljZV9pbXBsIiBzdHlsZT0ic3Ryb2tlOiM2NjY2NjY7c3Ryb2tlLXdpZHRoOjEuMDsiLz48cG9seWdvbiBmaWxsPSIjNjY2NjY2IiBwb2ludHM9IjExNywyODMuODQ0NCwxMjAsMjc1Ljg0NDQsMTE0LDI3NS44NDQ0LDExNywyODMuODQ0NCIgc3R5bGU9InN0cm9rZTojNjY2NjY2O3N0cm9rZS13aWR0aDoxLjA7Ii8+PHRleHQgZmlsbD0iIzY2NjY2NiIgZm9udC1mYW1pbHk9InNhbnMtc2VyaWYiIGZvbnQtc2l6ZT0iMTIiIGZvbnQtd2VpZ2h0PSJib2xkIiBsZW5ndGhBZGp1c3Q9InNwYWNpbmciIHRleHRMZW5ndGg9IjI0IiB4PSIxMTgiIHk9IjI1Mi4zMjgxIj4mIzM1ODQzOyYjMjk5OTI7PC90ZXh0PjwvZz48IS0tbGluayBjYXRfc2VydmljZV9pbXBsIHRvIGNhdF9yZXBvc2l0b3J5LS0+PGcgaWQ9ImxpbmtfY2F0X3NlcnZpY2VfaW1wbF9jYXRfcmVwb3NpdG9yeSI+PHBhdGggZD0iTTMzMSwzNDcuMTE0NCBDMzMxLDM2OS4yMTQ0IDMzMSwzOTAuOTA0NCAzMzEsNDEyLjk3NDQgIiBmaWxsPSJub25lIiBpZD0iY2F0X3NlcnZpY2VfaW1wbC10by1jYXRfcmVwb3NpdG9yeSIgc3R5bGU9InN0cm9rZTojNjY2NjY2O3N0cm9rZS13aWR0aDoxLjA7Ii8+PHBvbHlnb24gZmlsbD0iIzY2NjY2NiIgcG9pbnRzPSIzMzEsNDIwLjk3NDQsMzM0LDQxMi45NzQ0LDMyOCw0MTIuOTc0NCwzMzEsNDIwLjk3NDQiIHN0eWxlPSJzdHJva2U6IzY2NjY2NjtzdHJva2Utd2lkdGg6MS4wOyIvPjx0ZXh0IGZpbGw9IiM2NjY2NjYiIGZvbnQtZmFtaWx5PSJzYW5zLXNlcmlmIiBmb250LXNpemU9IjEyIiBmb250LXdlaWdodD0iYm9sZCIgbGVuZ3RoQWRqdXN0PSJzcGFjaW5nIiB0ZXh0TGVuZ3RoPSIyNCIgeD0iMzMyIiB5PSIzODkuMzI4MSI+JiMzNTg0MzsmIzI5OTkyOzwvdGV4dD48L2c+PCEtLWxpbmsgcmVxdWVzdF9zZXJ2aWNlX2ltcGwgdG8gcmVxdWVzdF9yZXBvc2l0b3J5LS0+PGcgaWQ9ImxpbmtfcmVxdWVzdF9zZXJ2aWNlX2ltcGxfcmVxdWVzdF9yZXBvc2l0b3J5Ij48cGF0aCBkPSJNMTE3LDM0Ny4xMTQ0IEMxMTcsMzY5LjIxNDQgMTE3LDM5MC45MDQ0IDExNyw0MTIuOTc0NCAiIGZpbGw9Im5vbmUiIGlkPSJyZXF1ZXN0X3NlcnZpY2VfaW1wbC10by1yZXF1ZXN0X3JlcG9zaXRvcnkiIHN0eWxlPSJzdHJva2U6IzY2NjY2NjtzdHJva2Utd2lkdGg6MS4wOyIvPjxwb2x5Z29uIGZpbGw9IiM2NjY2NjYiIHBvaW50cz0iMTE3LDQyMC45NzQ0LDEyMCw0MTIuOTc0NCwxMTQsNDEyLjk3NDQsMTE3LDQyMC45NzQ0IiBzdHlsZT0ic3Ryb2tlOiM2NjY2NjY7c3Ryb2tlLXdpZHRoOjEuMDsiLz48dGV4dCBmaWxsPSIjNjY2NjY2IiBmb250LWZhbWlseT0ic2Fucy1zZXJpZiIgZm9udC1zaXplPSIxMiIgZm9udC13ZWlnaHQ9ImJvbGQiIGxlbmd0aEFkanVzdD0ic3BhY2luZyIgdGV4dExlbmd0aD0iMjQiIHg9IjExOCIgeT0iMzg5LjMyODEiPiYjMzU4NDM7JiMyOTk5Mjs8L3RleHQ+PC9nPjwhLS1TUkM9W1RQOURJLUQwN0NSbC1ISFpKWFBWU2pjSkh0Q0k1OVFBdm5CWmUwRUpKN09vU0g1UHNCaExHdHIxbUxyMVl6ZmI1dE9McWZRcmdyM0gzd0NwS3gtNWF3UTR2Z010Y0pfcEZDX2xfb0dKb0JMbmkwTzNZaTQ2T3Z1X1BuWkstWm94WmpYNmkxaHVhRGg0UFQxYmlwUG4zMHpSQldpU0ZFRXBET25NM1ZGM3BDVGVqQkFxUTNZTXBvMUxldWY5NzgtdWFTUEpScE1EOE9PWDREc2d3RHg4V3JsSEVFSnJma3BMTmRsXy1TTUpmZmFnbUs4a2Y5RXNuSWVnU1hGUFMxaGU2T01rSGlpVUhVdXdjMlU0V0ljbWozTGxDVUpoZXN6VmR2a1lzZjlYS254bGxOb2p5aDBmaFhfcTRqWk0wNFowMWE3SE9mSFczQWRJY25PcGF0amFvN19MYjRGTXprQTF4X3dKdnhMLXdydnFUaTJha0Vfbi1oTkFhT3lfLWF5ZHdZMmtWaWw2VmRHdVJpWXhkb016YjBnY3k1QzBfS251RUh1TTBkSHNVRnJsZDF4bGFjNE8tRVRzNnZQT0dPdzd1LXNNdXljMjZrWnZSZGJ1QU9fUWlqQ1JXdmxuNm05ZEZLVE9Zc25wYjFId240VUNxQXNPaVBwU3F1WlZzLThteDhWRlJzU1g3c3dTSHFvUDNHNHBYZ0R5RUt6Yk1lT3V6c1NLakRibFZ2RWRWbU9PYVFCZWF1eGZCTDZFWEFNVnY2ZVA0dlBNNU5RR0FCLXkwbTAwXS0tPjwvZz48L3N2Zz4=;" parent="1" vertex="1"><mxGeometry x="950" y="223.5" width="438" height="505" as="geometry"/></mxCell></UserObject><UserObject label="" plantUmlData="{&#10;  &quot;data&quot;: &quot;@startuml\n!includeurl https://raw.githubusercontent.com/plantuml-stdlib/C4-PlantUML/master/C4_Component.puml\n\ntitle 用户服务组件图\n\nContainer(user_service, \&quot;用户服务\&quot;, \&quot;Spring Boot + MyBatis\&quot;, \&quot;用户信息管理\&quot;) {\n  Component(user_controller, \&quot;UserController\&quot;, \&quot;处理用户相关的请求 (查看、搜索、编辑、禁用/启用)\&quot;)\n  \n  Component(user_service_impl, \&quot;UserServiceImpl\&quot;, \&quot;用户服务实现类\&quot;)\n  Component(user_repository, \&quot;UserRepository\&quot;, \&quot;用户数据访问层\&quot;)\n\n  Rel(user_controller, user_service_impl, \&quot;调用\&quot;)\n  Rel(user_service_impl, user_repository, \&quot;调用\&quot;)\n}\n\n@enduml&quot;,&#10;  &quot;format&quot;: &quot;svg&quot;&#10;}" id="5jrJoCIRXb_cUwFcefzs-8"><mxCell style="shape=image;noLabel=1;verticalAlign=top;aspect=fixed;imageAspect=0;image=data:image/svg+xml,PD94bWwgdmVyc2lvbj0iMS4wIiBlbmNvZGluZz0idXMtYXNjaWkiIHN0YW5kYWxvbmU9Im5vIj8+PHN2ZyB4bWxucz0iaHR0cDovL3d3dy53My5vcmcvMjAwMC9zdmciIHhtbG5zOnhsaW5rPSJodHRwOi8vd3d3LnczLm9yZy8xOTk5L3hsaW5rIiBjb250ZW50U3R5bGVUeXBlPSJ0ZXh0L2NzcyIgaGVpZ2h0PSI1MDVweCIgcHJlc2VydmVBc3BlY3RSYXRpbz0ibm9uZSIgc3R5bGU9IndpZHRoOjI0N3B4O2hlaWdodDo1MDVweDtiYWNrZ3JvdW5kOiNGRkZGRkY7IiB2ZXJzaW9uPSIxLjEiIHZpZXdCb3g9IjAgMCAyNDcgNTA1IiB3aWR0aD0iMjQ3cHgiIHpvb21BbmRQYW49Im1hZ25pZnkiPjxkZWZzLz48Zz48dGV4dCBmaWxsPSIjMDAwMDAwIiBmb250LWZhbWlseT0ic2Fucy1zZXJpZiIgZm9udC1zaXplPSIxNCIgZm9udC13ZWlnaHQ9ImJvbGQiIGxlbmd0aEFkanVzdD0ic3BhY2luZyIgdGV4dExlbmd0aD0iOTgiIHg9IjY3LjUiIHk9IjIzLjIzNDQiPiYjMjk5OTI7JiMyNTE0MzsmIzI2MzgxOyYjMjExNTM7JiMzMjQ1MjsmIzIwMjE0OyYjMjIyNzA7PC90ZXh0PjwhLS1jbHVzdGVyIHVzZXJfc2VydmljZS0tPjxnIGlkPSJjbHVzdGVyX3VzZXJfc2VydmljZSI+PHJlY3QgZmlsbD0iIzQzOERENSIgaGVpZ2h0PSI0NTciIHJ4PSIyLjUiIHJ5PSIyLjUiIHN0eWxlPSJzdHJva2U6IzNDN0ZDMDtzdHJva2Utd2lkdGg6MS4wOyIgd2lkdGg9IjIzNCIgeD0iNyIgeT0iNDIuOTg0NCIvPjx0ZXh0IGZpbGw9IiNGRkZGRkYiIGZvbnQtZmFtaWx5PSJzYW5zLXNlcmlmIiBmb250LXNpemU9IjEyIiBmb250LXN0eWxlPSJpdGFsaWMiIGxlbmd0aEFkanVzdD0ic3BhY2luZyIgdGV4dExlbmd0aD0iNzIiIHg9Ijg4IiB5PSI1Ni4zMjgxIj4mIzE3MTtjb250YWluZXImIzE4Nzs8L3RleHQ+PHRleHQgZmlsbD0iI0ZGRkZGRiIgZm9udC1mYW1pbHk9InNhbnMtc2VyaWYiIGZvbnQtc2l6ZT0iMTYiIGZvbnQtd2VpZ2h0PSJib2xkIiBsZW5ndGhBZGp1c3Q9InNwYWNpbmciIHRleHRMZW5ndGg9IjY0IiB4PSI5MiIgeT0iNzIuOTUzMSI+JiMyOTk5MjsmIzI1MTQzOyYjMjYzODE7JiMyMTE1Mzs8L3RleHQ+PHRleHQgZmlsbD0iI0ZGRkZGRiIgZm9udC1mYW1pbHk9InNhbnMtc2VyaWYiIGZvbnQtc2l6ZT0iMTIiIGZvbnQtc3R5bGU9Iml0YWxpYyIgZm9udC13ZWlnaHQ9ImJvbGQiIGxlbmd0aEFkanVzdD0ic3BhY2luZyIgdGV4dExlbmd0aD0iMTUxIiB4PSI0OC41IiB5PSI4Ni4yOTY5Ij5bU3ByaW5nIEJvb3QgKyBNeUJhdGlzXTwvdGV4dD48dGV4dCBmaWxsPSIjRkZGRkZGIiBmb250LWZhbWlseT0ic2Fucy1zZXJpZiIgZm9udC1zaXplPSIxNCIgZm9udC13ZWlnaHQ9ImJvbGQiIGxlbmd0aEFkanVzdD0ic3BhY2luZyIgdGV4dExlbmd0aD0iNyIgeD0iMTIwLjUiIHk9IjEwMS4wMzEzIj4mIzE2MDs8L3RleHQ+PHRleHQgZmlsbD0iI0ZGRkZGRiIgZm9udC1mYW1pbHk9InNhbnMtc2VyaWYiIGZvbnQtc2l6ZT0iMTQiIGZvbnQtd2VpZ2h0PSJib2xkIiBsZW5ndGhBZGp1c3Q9InNwYWNpbmciIHRleHRMZW5ndGg9Ijg0IiB4PSI4MiIgeT0iMTE2LjAxNTYiPiYjMjk5OTI7JiMyNTE0MzsmIzIwNDQ5OyYjMjQ2ODc7JiMzMTY0OTsmIzI5NzAyOzwvdGV4dD48L2c+PCEtLWVudGl0eSB1c2VyX2NvbnRyb2xsZXItLT48ZyBpZD0iZWxlbV91c2VyX2NvbnRyb2xsZXIiPjxyZWN0IGZpbGw9IiM4NUJCRjAiIGhlaWdodD0iNzUuNjU2MyIgcng9IjIuNSIgcnk9IjIuNSIgc3R5bGU9InN0cm9rZTojNzhBOEQ4O3N0cm9rZS13aWR0aDowLjU7IiB3aWR0aD0iMjAxIiB4PSIyMy41IiB5PSIxMzMuOTg0NCIvPjx0ZXh0IGZpbGw9IiMwMDAwMDAiIGZvbnQtZmFtaWx5PSJzYW5zLXNlcmlmIiBmb250LXNpemU9IjEyIiBmb250LXN0eWxlPSJpdGFsaWMiIGxlbmd0aEFkanVzdD0ic3BhY2luZyIgdGV4dExlbmd0aD0iNzIiIHg9Ijg4IiB5PSIxNTUuMzI4MSI+JiMxNzE7Y29tcG9uZW50JiMxODc7PC90ZXh0Pjx0ZXh0IGZpbGw9IiMwMDAwMDAiIGZvbnQtZmFtaWx5PSJzYW5zLXNlcmlmIiBmb250LXNpemU9IjE2IiBmb250LXdlaWdodD0iYm9sZCIgbGVuZ3RoQWRqdXN0PSJzcGFjaW5nIiB0ZXh0TGVuZ3RoPSIxMTIiIHg9IjY4IiB5PSIxNzEuOTUzMSI+VXNlckNvbnRyb2xsZXI8L3RleHQ+PHRleHQgZmlsbD0iIzAwMDAwMCIgZm9udC1mYW1pbHk9InNhbnMtc2VyaWYiIGZvbnQtc2l6ZT0iMTIiIGZvbnQtc3R5bGU9Iml0YWxpYyIgbGVuZ3RoQWRqdXN0PSJzcGFjaW5nIiB0ZXh0TGVuZ3RoPSIxMTQiIHg9IjY3IiB5PSIxODUuMjk2OSI+WyYjMjI3ODg7JiMyOTcwMjsmIzI5OTkyOyYjMjUxNDM7JiMzMDQ1NjsmIzIwODUxOyYjMzAzNDA7JiMzNTgzMTsmIzI3NzE0OzwvdGV4dD48dGV4dCBmaWxsPSIjMDAwMDAwIiBmb250LWZhbWlseT0ic2Fucy1zZXJpZiIgZm9udC1zaXplPSIxMiIgZm9udC1zdHlsZT0iaXRhbGljIiBsZW5ndGhBZGp1c3Q9InNwYWNpbmciIHRleHRMZW5ndGg9IjE4MSIgeD0iMzMuNSIgeT0iMTk4LjE0MDYiPigmIzI2NTk3OyYjMzA0NzU7JiMxMjI4OTsmIzI1NjI4OyYjMzIwMzQ7JiMxMjI4OTsmIzMyNTM0OyYjMzY3NTM7JiMxMjI4OTsmIzMxMTA1OyYjMjk5OTI7LyYjMjE1NTE7JiMyOTk5MjspXTwvdGV4dD48L2c+PCEtLWVudGl0eSB1c2VyX3NlcnZpY2VfaW1wbC0tPjxnIGlkPSJlbGVtX3VzZXJfc2VydmljZV9pbXBsIj48cmVjdCBmaWxsPSIjODVCQkYwIiBoZWlnaHQ9IjYyLjgxMjUiIHJ4PSIyLjUiIHJ5PSIyLjUiIHN0eWxlPSJzdHJva2U6Izc4QThEODtzdHJva2Utd2lkdGg6MC41OyIgd2lkdGg9IjE0MCIgeD0iNTQiIHk9IjI4My45ODQ0Ii8+PHRleHQgZmlsbD0iIzAwMDAwMCIgZm9udC1mYW1pbHk9InNhbnMtc2VyaWYiIGZvbnQtc2l6ZT0iMTIiIGZvbnQtc3R5bGU9Iml0YWxpYyIgbGVuZ3RoQWRqdXN0PSJzcGFjaW5nIiB0ZXh0TGVuZ3RoPSI3MiIgeD0iODgiIHk9IjMwNS4zMjgxIj4mIzE3MTtjb21wb25lbnQmIzE4Nzs8L3RleHQ+PHRleHQgZmlsbD0iIzAwMDAwMCIgZm9udC1mYW1pbHk9InNhbnMtc2VyaWYiIGZvbnQtc2l6ZT0iMTYiIGZvbnQtd2VpZ2h0PSJib2xkIiBsZW5ndGhBZGp1c3Q9InNwYWNpbmciIHRleHRMZW5ndGg9IjEyMCIgeD0iNjQiIHk9IjMyMS45NTMxIj5Vc2VyU2VydmljZUltcGw8L3RleHQ+PHRleHQgZmlsbD0iIzAwMDAwMCIgZm9udC1mYW1pbHk9InNhbnMtc2VyaWYiIGZvbnQtc2l6ZT0iMTIiIGZvbnQtc3R5bGU9Iml0YWxpYyIgbGVuZ3RoQWRqdXN0PSJzcGFjaW5nIiB0ZXh0TGVuZ3RoPSI5NiIgeD0iNzYiIHk9IjMzNS4yOTY5Ij5bJiMyOTk5MjsmIzI1MTQzOyYjMjYzODE7JiMyMTE1MzsmIzIzNDU0OyYjMjk2MTY7JiMzMTg2NztdPC90ZXh0PjwvZz48IS0tZW50aXR5IHVzZXJfcmVwb3NpdG9yeS0tPjxnIGlkPSJlbGVtX3VzZXJfcmVwb3NpdG9yeSI+PHJlY3QgZmlsbD0iIzg1QkJGMCIgaGVpZ2h0PSI2Mi44MTI1IiByeD0iMi41IiByeT0iMi41IiBzdHlsZT0ic3Ryb2tlOiM3OEE4RDg7c3Ryb2tlLXdpZHRoOjAuNTsiIHdpZHRoPSIxMzIiIHg9IjU4IiB5PSI0MjAuOTg0NCIvPjx0ZXh0IGZpbGw9IiMwMDAwMDAiIGZvbnQtZmFtaWx5PSJzYW5zLXNlcmlmIiBmb250LXNpemU9IjEyIiBmb250LXN0eWxlPSJpdGFsaWMiIGxlbmd0aEFkanVzdD0ic3BhY2luZyIgdGV4dExlbmd0aD0iNzIiIHg9Ijg4IiB5PSI0NDIuMzI4MSI+JiMxNzE7Y29tcG9uZW50JiMxODc7PC90ZXh0Pjx0ZXh0IGZpbGw9IiMwMDAwMDAiIGZvbnQtZmFtaWx5PSJzYW5zLXNlcmlmIiBmb250LXNpemU9IjE2IiBmb250LXdlaWdodD0iYm9sZCIgbGVuZ3RoQWRqdXN0PSJzcGFjaW5nIiB0ZXh0TGVuZ3RoPSIxMTIiIHg9IjY4IiB5PSI0NTguOTUzMSI+VXNlclJlcG9zaXRvcnk8L3RleHQ+PHRleHQgZmlsbD0iIzAwMDAwMCIgZm9udC1mYW1pbHk9InNhbnMtc2VyaWYiIGZvbnQtc2l6ZT0iMTIiIGZvbnQtc3R5bGU9Iml0YWxpYyIgbGVuZ3RoQWRqdXN0PSJzcGFjaW5nIiB0ZXh0TGVuZ3RoPSI5NiIgeD0iNzYiIHk9IjQ3Mi4yOTY5Ij5bJiMyOTk5MjsmIzI1MTQzOyYjMjU5Njg7JiMyNTQ1NDsmIzM1Nzc1OyYjMzgzODI7JiMyMzYxODtdPC90ZXh0PjwvZz48IS0tbGluayB1c2VyX2NvbnRyb2xsZXIgdG8gdXNlcl9zZXJ2aWNlX2ltcGwtLT48ZyBpZD0ibGlua191c2VyX2NvbnRyb2xsZXJfdXNlcl9zZXJ2aWNlX2ltcGwiPjxwYXRoIGQ9Ik0xMjQsMjEwLjE2NDQgQzEyNCwyMzMuMDg0NCAxMjQsMjU0LjE0NDQgMTI0LDI3NS43NTQ0ICIgZmlsbD0ibm9uZSIgaWQ9InVzZXJfY29udHJvbGxlci10by11c2VyX3NlcnZpY2VfaW1wbCIgc3R5bGU9InN0cm9rZTojNjY2NjY2O3N0cm9rZS13aWR0aDoxLjA7Ii8+PHBvbHlnb24gZmlsbD0iIzY2NjY2NiIgcG9pbnRzPSIxMjQsMjgzLjc1NDQsMTI3LDI3NS43NTQ0LDEyMSwyNzUuNzU0NCwxMjQsMjgzLjc1NDQiIHN0eWxlPSJzdHJva2U6IzY2NjY2NjtzdHJva2Utd2lkdGg6MS4wOyIvPjx0ZXh0IGZpbGw9IiM2NjY2NjYiIGZvbnQtZmFtaWx5PSJzYW5zLXNlcmlmIiBmb250LXNpemU9IjEyIiBmb250LXdlaWdodD0iYm9sZCIgbGVuZ3RoQWRqdXN0PSJzcGFjaW5nIiB0ZXh0TGVuZ3RoPSIyNCIgeD0iMTI1IiB5PSIyNTIuMzI4MSI+JiMzNTg0MzsmIzI5OTkyOzwvdGV4dD48L2c+PCEtLWxpbmsgdXNlcl9zZXJ2aWNlX2ltcGwgdG8gdXNlcl9yZXBvc2l0b3J5LS0+PGcgaWQ9ImxpbmtfdXNlcl9zZXJ2aWNlX2ltcGxfdXNlcl9yZXBvc2l0b3J5Ij48cGF0aCBkPSJNMTI0LDM0Ny4xMTQ0IEMxMjQsMzY5LjIxNDQgMTI0LDM5MC45MDQ0IDEyNCw0MTIuOTc0NCAiIGZpbGw9Im5vbmUiIGlkPSJ1c2VyX3NlcnZpY2VfaW1wbC10by11c2VyX3JlcG9zaXRvcnkiIHN0eWxlPSJzdHJva2U6IzY2NjY2NjtzdHJva2Utd2lkdGg6MS4wOyIvPjxwb2x5Z29uIGZpbGw9IiM2NjY2NjYiIHBvaW50cz0iMTI0LDQyMC45NzQ0LDEyNyw0MTIuOTc0NCwxMjEsNDEyLjk3NDQsMTI0LDQyMC45NzQ0IiBzdHlsZT0ic3Ryb2tlOiM2NjY2NjY7c3Ryb2tlLXdpZHRoOjEuMDsiLz48dGV4dCBmaWxsPSIjNjY2NjY2IiBmb250LWZhbWlseT0ic2Fucy1zZXJpZiIgZm9udC1zaXplPSIxMiIgZm9udC13ZWlnaHQ9ImJvbGQiIGxlbmd0aEFkanVzdD0ic3BhY2luZyIgdGV4dExlbmd0aD0iMjQiIHg9IjEyNSIgeT0iMzg5LjMyODEiPiYjMzU4NDM7JiMyOTk5Mjs8L3RleHQ+PC9nPjwhLS1TUkM9W1JQMUZJbTkxNkNSbC1vY2NGSWNiVS1kS3FKcTUyTTV1YmRLVFQ2MXNQdmNUQklJMkQ4aWUzOEYtRzRmWEw3SFFiSTgzR3B6Q3hpeHNCUGZMTUtteDNGRkVtX2x5ZGxVVDVNSmdzMmIwWHM5R09pb29Ebkk1UWRsOThjOGI5LV9PYUVoNFBEMWFJUHFPWWVLcmFwYTZKallpVzU1VUtUU0pzdzZLSk15ZlhjT3BJOE1LS3ViWDRKRnFNQTlOYVhYWTYwOS16VWdWemxyTXRKamh5cTVqRkZabWNhRDlLV0xVR29RYWlKMGk5eXVrcWs0UWFFVnhQVjdVaUlXb1lvMTUyMEVoODVyRVFHcFBTakd1N2hOekllVXhSVHV1YVVEV05tOFdjY0VBM1hVWDE2RDhYSWFoNTNLSUdlcHRMMUZNQU9tdEZ4dFpEdHZOMnBmemxyUzVDVl9YY1JWRWxteWhWZ0Y1dG56NW1SemtXazViTUJuS1g0ZG42WHJublVNdTI1eEVkZ3NMR3VRNVAtYXhLc2JKQUZCMmtmdnhwby13bDNVT3ExUEc1NWg0SGVwR3lXb0tZT0d2cGROTmh4azFFX2d2VFJyVUxOMDRBMEZueWFfeURyeEdGSEFPSU5aYS1Ua29GNGRhRVZXNV0tLT48L2c+PC9zdmc+;" parent="1" vertex="1"><mxGeometry x="1424" y="230" width="247" height="505" as="geometry"/></mxCell></UserObject><UserObject label="" plantUmlData="{&#10;  &quot;data&quot;: &quot;@startuml\n!includeurl https://raw.githubusercontent.com/plantuml-stdlib/C4-PlantUML/master/C4_Container.puml\n\ntitle 流浪猫救助平台后台管理系统架构图\n\nPerson(admin, \&quot;管理员\&quot;, \&quot;平台管理人员\&quot;)\nSystem_Ext(frontend, \&quot;前端\&quot;, \&quot;Vue.js\&quot;, \&quot;负责管理员界面和交互\&quot;)\nSystem_Ext(db, \&quot;数据库\&quot;, \&quot;MySQL\&quot;, \&quot;存储平台数据\&quot;)\nSystem_Ext(cache, \&quot;缓存\&quot;, \&quot;Redis\&quot;, \&quot;缓存热点数据\&quot;)\nSystem_Ext(storage, \&quot;文件存储\&quot;, \&quot;AWS S3\&quot;, \&quot;存储图片和视频\&quot;)\n\nContainer(api_gateway, \&quot;API 网关\&quot;, \&quot;Spring Cloud Gateway\&quot;, \&quot;统一管理 API 接口\&quot;)\nContainerDb(auth_service, \&quot;认证授权服务\&quot;, \&quot;Spring Security + JWT\&quot;, \&quot;管理员登录、权限管理\&quot;)\nContainerDb(user_service, \&quot;用户服务\&quot;, \&quot;Spring Boot + MyBatis\&quot;, \&quot;用户信息管理\&quot;)\nContainerDb(cat_service, \&quot;流浪猫服务\&quot;, \&quot;Spring Boot + MyBatis\&quot;, \&quot;流浪猫信息管理、审核\&quot;)\nContainerDb(volunteer_service, \&quot;志愿者服务\&quot;, \&quot;Spring Boot + MyBatis\&quot;, \&quot;志愿者申请、任务管理\&quot;)\nContainerDb(adoption_service, \&quot;领养服务\&quot;, \&quot;Spring Boot + MyBatis\&quot;, \&quot;领养申请审批、进度跟踪\&quot;)\nContainerDb(medical_service, \&quot;医疗救助服务\&quot;, \&quot;Spring Boot + MyBatis\&quot;, \&quot;医疗救助信息、记录管理\&quot;)\nContainerDb(donation_service, \&quot;捐赠服务\&quot;, \&quot;Spring Boot + MyBatis\&quot;, \&quot;捐赠记录、物资管理\&quot;)\nContainerDb(notice_service, \&quot;公告服务\&quot;, \&quot;Spring Boot + MyBatis\&quot;, \&quot;公告发布、管理\&quot;)\n\nRel(admin, frontend, \&quot;使用\&quot;)\nRel(frontend, api_gateway, \&quot;调用 API\&quot;)\n\nRel(api_gateway, auth_service, \&quot;调用\&quot;)\nRel(api_gateway, user_service, \&quot;调用\&quot;)\nRel(api_gateway, cat_service, \&quot;调用\&quot;)\nRel(api_gateway, volunteer_service, \&quot;调用\&quot;)\nRel(api_gateway, adoption_service, \&quot;调用\&quot;)\nRel(api_gateway, medical_service, \&quot;调用\&quot;)\nRel(api_gateway, donation_service, \&quot;调用\&quot;)\nRel(api_gateway, notice_service, \&quot;调用\&quot;)\n\nRel(auth_service, db, \&quot;读写\&quot;)\nRel(user_service, db, \&quot;读写\&quot;)\nRel(cat_service, db, \&quot;读写\&quot;)\nRel(volunteer_service, db, \&quot;读写\&quot;)\nRel(adoption_service, db, \&quot;读写\&quot;)\nRel(medical_service, db, \&quot;读写\&quot;)\nRel(donation_service, db, \&quot;读写\&quot;)\nRel(notice_service, db, \&quot;读写\&quot;)\n\nRel(user_service, cache, \&quot;读写\&quot;)\nRel(cat_service, cache, \&quot;读写\&quot;)\n\nRel(cat_service, storage, \&quot;上传/下载文件\&quot;)\nRel(notice_service, storage, \&quot;上传/下载文件\&quot;)\n\n@enduml&quot;,&#10;  &quot;format&quot;: &quot;svg&quot;&#10;}" id="iwc2kgBUIP-5sk2xWvdT-1"><mxCell style="shape=image;noLabel=1;verticalAlign=top;aspect=fixed;imageAspect=0;image=data:image/svg+xml,PD94bWwgdmVyc2lvbj0iMS4wIiBlbmNvZGluZz0idXMtYXNjaWkiIHN0YW5kYWxvbmU9Im5vIj8+PHN2ZyB4bWxucz0iaHR0cDovL3d3dy53My5vcmcvMjAwMC9zdmciIHhtbG5zOnhsaW5rPSJodHRwOi8vd3d3LnczLm9yZy8xOTk5L3hsaW5rIiBjb250ZW50U3R5bGVUeXBlPSJ0ZXh0L2NzcyIgaGVpZ2h0PSI4NTdweCIgcHJlc2VydmVBc3BlY3RSYXRpbz0ibm9uZSIgc3R5bGU9IndpZHRoOjE2NDFweDtoZWlnaHQ6ODU3cHg7YmFja2dyb3VuZDojRkZGRkZGOyIgdmVyc2lvbj0iMS4xIiB2aWV3Qm94PSIwIDAgMTY0MSA4NTciIHdpZHRoPSIxNjQxcHgiIHpvb21BbmRQYW49Im1hZ25pZnkiPjxkZWZzLz48Zz48dGV4dCBmaWxsPSIjMDAwMDAwIiBmb250LWZhbWlseT0ic2Fucy1zZXJpZiIgZm9udC1zaXplPSIxNCIgZm9udC13ZWlnaHQ9ImJvbGQiIGxlbmd0aEFkanVzdD0ic3BhY2luZyIgdGV4dExlbmd0aD0iMjI0IiB4PSI3MDEuNSIgeT0iMjMuMjM0NCI+JiMyNzk2OTsmIzI4MDEwOyYjMjk0ODM7JiMyNTkzNzsmIzIxMTYxOyYjMjQxNzk7JiMyMTQ4ODsmIzIxNTE4OyYjMjE0ODg7JiMzMTY0OTsmIzI5NzAyOyYjMzE5OTU7JiMzMjQ3OTsmIzI2NTUwOyYjMjY1MDA7JiMyMjI3MDs8L3RleHQ+PCEtLWVudGl0eSBhZG1pbi0tPjxnIGlkPSJlbGVtX2FkbWluIj48cmVjdCBmaWxsPSIjMDg0MjdCIiBoZWlnaHQ9IjEyNy45Mzc1IiByeD0iMi41IiByeT0iMi41IiBzdHlsZT0ic3Ryb2tlOiMwNzNCNkY7c3Ryb2tlLXdpZHRoOjAuNTsiIHdpZHRoPSIxMDQiIHg9IjczMC41IiB5PSI0Mi45ODQ0Ii8+PHRleHQgZmlsbD0iI0ZGRkZGRiIgZm9udC1mYW1pbHk9InNhbnMtc2VyaWYiIGZvbnQtc2l6ZT0iMTIiIGZvbnQtc3R5bGU9Iml0YWxpYyIgbGVuZ3RoQWRqdXN0PSJzcGFjaW5nIiB0ZXh0TGVuZ3RoPSI1NCIgeD0iNzU1LjUiIHk9IjY0LjMyODEiPiYjMTcxO3BlcnNvbiYjMTg3OzwvdGV4dD48aW1hZ2UgaGVpZ2h0PSI0OCIgd2lkdGg9IjQ4IiB4PSI3NTguNSIgeGxpbms6aHJlZj0iZGF0YTppbWFnZS9wbmc7YmFzZTY0LGlWQk9SdzBLR2dvQUFBQU5TVWhFVWdBQUFEQUFBQUF3Q0FZQUFBQlhBdm1IQUFBQ01FbEVRVlI0WHUyWXZVckZRQkNGYitraitBaStncTNZMlBnQStnQ0N0WjJWMkFocWFTTmlxWTFnWVdNamFDdlh5a29FS3kyMXNMQ05mRUxnTXNja3N6OG1XZkRBQjNLdXllN3NUbVlubWN3dGJVOUtSb3pTRUNPVmxhM1Q2dVRxdnJxWlBsY1BUNjgvWE53K1Z0dkgxOVhDK3NHZS9mOVV4SWhsOC9DeSt2ajhxcnBFWUlzYlIxTjdmU3hpaERLL3Vydk1Lb2VLSGJIM2lrR01FSmk4WjlXYnRIOTJseHlFR0NIRXJMd1ZxV2Z2RzRJWVhraUJYR0luN2YyOWlPR0JBZTBrVWtUVnNtTjRFY01EMjU1YmRnd3ZZbmlnRk9ZVzU0Y2R4NE1ZSGxJcVQ1Tml5Nm9ZSHV6Z09SUmJVc1h3WUFmUG9WNERlSGw3dCtNbksvWThFTU1EelZsdTlmb1E1eTZqRkFVN2hoY3h2T1NzUkxINUQySjRLYnFWcU1seG9LM3RuRWV2UG9nUkFpdVhVcEZpRDY5WnhJZ2haaWRTVjc1R2pGaVlrR2MzS01FcE9XOFJJeFhlZDBrTkpzck9BTzB5cFRmbnhHdkVLQTB4U2tNTUQzemZJZWRKRlE0aENQbFV3clgxZGFRV2JVUnNlb25SQmhOdWUxRDVyYzUzSmtWUXdOOWMyMVd0K0QyMEp4TGpON2hwenRhaFN3VGkzUkV4TERsYmhoQ3htNTVQa1dMTWtydnJEQlc3M3JVVFl0U1F1L2FHUTRoMHNuTnpCZEQxd1BXcHRyWkREQmpMNnRmaWViQnpiQTJBVWpnMk5UM1FZa0JiclI5S1RTLzlZb0M5ZUF4cWV1MFVJL2VIMjF5aXU3VnpMU3FBcG5JcXhuOEFmNlRpQTNBL0E5Qm41K2xWMHhjTU1XRG9KczZxcmFrVG80YTZPd1p4cUxhOTdZa3hDMUh6TWtNek5RUnRFM2NGVUFKaWxNWTNPR1ROTDBORExxSUFBQUFBU1VWT1JLNUNZSUk9IiB5PSI2NS44MjgxIi8+PHRleHQgZmlsbD0iI0ZGRkZGRiIgZm9udC1mYW1pbHk9InNhbnMtc2VyaWYiIGZvbnQtc2l6ZT0iMTYiIGZvbnQtd2VpZ2h0PSJib2xkIiBsZW5ndGhBZGp1c3Q9InNwYWNpbmciIHRleHRMZW5ndGg9IjQ4IiB4PSI3NTguNSIgeT0iMTI4Ljk1MzEiPiYjMzE2NDk7JiMyOTcwMjsmIzIxNTkyOzwvdGV4dD48dGV4dCBmaWxsPSIjRkZGRkZGIiBmb250LWZhbWlseT0ic2Fucy1zZXJpZiIgZm9udC1zaXplPSIxNCIgbGVuZ3RoQWRqdXN0PSJzcGFjaW5nIiB0ZXh0TGVuZ3RoPSI3IiB4PSI3NzkiIHk9IjE0NC4xODc1Ij4mIzE2MDs8L3RleHQ+PHRleHQgZmlsbD0iI0ZGRkZGRiIgZm9udC1mYW1pbHk9InNhbnMtc2VyaWYiIGZvbnQtc2l6ZT0iMTQiIGxlbmd0aEFkanVzdD0ic3BhY2luZyIgdGV4dExlbmd0aD0iODQiIHg9Ijc0MC41IiB5PSIxNTkuMTcxOSI+JiMyNDE3OTsmIzIxNDg4OyYjMzE2NDk7JiMyOTcwMjsmIzIwMTU0OyYjMjE1OTI7PC90ZXh0PjwvZz48IS0tZW50aXR5IGZyb250ZW5kLS0+PGcgaWQ9ImVsZW1fZnJvbnRlbmQiPjxyZWN0IGZpbGw9IiM5OTk5OTkiIGhlaWdodD0iOTQuOTIxOSIgcng9IjIuNSIgcnk9IjIuNSIgc3R5bGU9InN0cm9rZTojOEE4QThBO3N0cm9rZS13aWR0aDowLjU7IiB3aWR0aD0iMTMyIiB4PSI3MTYuNSIgeT0iMjQ0Ljk4NDQiLz48dGV4dCBmaWxsPSIjRkZGRkZGIiBmb250LWZhbWlseT0ic2Fucy1zZXJpZiIgZm9udC1zaXplPSIxMiIgZm9udC1zdHlsZT0iaXRhbGljIiBsZW5ndGhBZGp1c3Q9InNwYWNpbmciIHRleHRMZW5ndGg9IjExMiIgeD0iNzI2LjUiIHk9IjI2Ni4zMjgxIj4mIzE3MTtleHRlcm5hbF9zeXN0ZW0mIzE4Nzs8L3RleHQ+PHRleHQgZmlsbD0iI0ZGRkZGRiIgZm9udC1mYW1pbHk9InNhbnMtc2VyaWYiIGZvbnQtc2l6ZT0iMTQiIGxlbmd0aEFkanVzdD0ic3BhY2luZyIgdGV4dExlbmd0aD0iNyIgeD0iNzc5IiB5PSIyODEuMDYyNSI+JiMxNjA7PC90ZXh0Pjx0ZXh0IGZpbGw9IiNGRkZGRkYiIGZvbnQtZmFtaWx5PSJzYW5zLXNlcmlmIiBmb250LXNpemU9IjE2IiBmb250LXdlaWdodD0iYm9sZCIgbGVuZ3RoQWRqdXN0PSJzcGFjaW5nIiB0ZXh0TGVuZ3RoPSIzMiIgeD0iNzY2LjUiIHk9IjI5Ny45Mzc1Ij4mIzIxMDY5OyYjMzE0NzE7PC90ZXh0Pjx0ZXh0IGZpbGw9IiNGRkZGRkYiIGZvbnQtZmFtaWx5PSJzYW5zLXNlcmlmIiBmb250LXNpemU9IjE0IiBsZW5ndGhBZGp1c3Q9InNwYWNpbmciIHRleHRMZW5ndGg9IjciIHg9Ijc3OSIgeT0iMzEzLjE3MTkiPiYjMTYwOzwvdGV4dD48dGV4dCBmaWxsPSIjRkZGRkZGIiBmb250LWZhbWlseT0ic2Fucy1zZXJpZiIgZm9udC1zaXplPSIxNCIgbGVuZ3RoQWRqdXN0PSJzcGFjaW5nIiB0ZXh0TGVuZ3RoPSI0MiIgeD0iNzYxLjUiIHk9IjMyOC4xNTYzIj5WdWUuanM8L3RleHQ+PC9nPjwhLS1lbnRpdHkgZGItLT48ZyBpZD0iZWxlbV9kYiI+PHJlY3QgZmlsbD0iIzk5OTk5OSIgaGVpZ2h0PSI5NC45MjE5IiByeD0iMi41IiByeT0iMi41IiBzdHlsZT0ic3Ryb2tlOiM4QThBOEE7c3Ryb2tlLXdpZHRoOjAuNTsiIHdpZHRoPSIxMzIiIHg9IjcxNi41IiB5PSI3NTYuOTg0NCIvPjx0ZXh0IGZpbGw9IiNGRkZGRkYiIGZvbnQtZmFtaWx5PSJzYW5zLXNlcmlmIiBmb250LXNpemU9IjEyIiBmb250LXN0eWxlPSJpdGFsaWMiIGxlbmd0aEFkanVzdD0ic3BhY2luZyIgdGV4dExlbmd0aD0iMTEyIiB4PSI3MjYuNSIgeT0iNzc4LjMyODEiPiYjMTcxO2V4dGVybmFsX3N5c3RlbSYjMTg3OzwvdGV4dD48dGV4dCBmaWxsPSIjRkZGRkZGIiBmb250LWZhbWlseT0ic2Fucy1zZXJpZiIgZm9udC1zaXplPSIxNCIgbGVuZ3RoQWRqdXN0PSJzcGFjaW5nIiB0ZXh0TGVuZ3RoPSI3IiB4PSI3NzkiIHk9Ijc5My4wNjI1Ij4mIzE2MDs8L3RleHQ+PHRleHQgZmlsbD0iI0ZGRkZGRiIgZm9udC1mYW1pbHk9InNhbnMtc2VyaWYiIGZvbnQtc2l6ZT0iMTYiIGZvbnQtd2VpZ2h0PSJib2xkIiBsZW5ndGhBZGp1c3Q9InNwYWNpbmciIHRleHRMZW5ndGg9IjQ4IiB4PSI3NTguNSIgeT0iODA5LjkzNzUiPiYjMjU5Njg7JiMyNTQ1NDsmIzI0MjExOzwvdGV4dD48dGV4dCBmaWxsPSIjRkZGRkZGIiBmb250LWZhbWlseT0ic2Fucy1zZXJpZiIgZm9udC1zaXplPSIxNCIgbGVuZ3RoQWRqdXN0PSJzcGFjaW5nIiB0ZXh0TGVuZ3RoPSI3IiB4PSI3NzkiIHk9IjgyNS4xNzE5Ij4mIzE2MDs8L3RleHQ+PHRleHQgZmlsbD0iI0ZGRkZGRiIgZm9udC1mYW1pbHk9InNhbnMtc2VyaWYiIGZvbnQtc2l6ZT0iMTQiIGxlbmd0aEFkanVzdD0ic3BhY2luZyIgdGV4dExlbmd0aD0iMzUiIHg9Ijc2NSIgeT0iODQwLjE1NjMiPk15U1FMPC90ZXh0PjwvZz48IS0tZW50aXR5IGNhY2hlLS0+PGcgaWQ9ImVsZW1fY2FjaGUiPjxyZWN0IGZpbGw9IiM5OTk5OTkiIGhlaWdodD0iOTQuOTIxOSIgcng9IjIuNSIgcnk9IjIuNSIgc3R5bGU9InN0cm9rZTojOEE4QThBO3N0cm9rZS13aWR0aDowLjU7IiB3aWR0aD0iMTMyIiB4PSIxMTIxLjUiIHk9Ijc1Ni45ODQ0Ii8+PHRleHQgZmlsbD0iI0ZGRkZGRiIgZm9udC1mYW1pbHk9InNhbnMtc2VyaWYiIGZvbnQtc2l6ZT0iMTIiIGZvbnQtc3R5bGU9Iml0YWxpYyIgbGVuZ3RoQWRqdXN0PSJzcGFjaW5nIiB0ZXh0TGVuZ3RoPSIxMTIiIHg9IjExMzEuNSIgeT0iNzc4LjMyODEiPiYjMTcxO2V4dGVybmFsX3N5c3RlbSYjMTg3OzwvdGV4dD48dGV4dCBmaWxsPSIjRkZGRkZGIiBmb250LWZhbWlseT0ic2Fucy1zZXJpZiIgZm9udC1zaXplPSIxNCIgbGVuZ3RoQWRqdXN0PSJzcGFjaW5nIiB0ZXh0TGVuZ3RoPSI3IiB4PSIxMTg0IiB5PSI3OTMuMDYyNSI+JiMxNjA7PC90ZXh0Pjx0ZXh0IGZpbGw9IiNGRkZGRkYiIGZvbnQtZmFtaWx5PSJzYW5zLXNlcmlmIiBmb250LXNpemU9IjE2IiBmb250LXdlaWdodD0iYm9sZCIgbGVuZ3RoQWRqdXN0PSJzcGFjaW5nIiB0ZXh0TGVuZ3RoPSIzMiIgeD0iMTE3MS41IiB5PSI4MDkuOTM3NSI+JiMzMjUzMTsmIzIzMzg0OzwvdGV4dD48dGV4dCBmaWxsPSIjRkZGRkZGIiBmb250LWZhbWlseT0ic2Fucy1zZXJpZiIgZm9udC1zaXplPSIxNCIgbGVuZ3RoQWRqdXN0PSJzcGFjaW5nIiB0ZXh0TGVuZ3RoPSI3IiB4PSIxMTg0IiB5PSI4MjUuMTcxOSI+JiMxNjA7PC90ZXh0Pjx0ZXh0IGZpbGw9IiNGRkZGRkYiIGZvbnQtZmFtaWx5PSJzYW5zLXNlcmlmIiBmb250LXNpemU9IjE0IiBsZW5ndGhBZGp1c3Q9InNwYWNpbmciIHRleHRMZW5ndGg9IjM1IiB4PSIxMTcwIiB5PSI4NDAuMTU2MyI+UmVkaXM8L3RleHQ+PC9nPjwhLS1lbnRpdHkgc3RvcmFnZS0tPjxnIGlkPSJlbGVtX3N0b3JhZ2UiPjxyZWN0IGZpbGw9IiM5OTk5OTkiIGhlaWdodD0iOTQuOTIxOSIgcng9IjIuNSIgcnk9IjIuNSIgc3R5bGU9InN0cm9rZTojOEE4QThBO3N0cm9rZS13aWR0aDowLjU7IiB3aWR0aD0iMTMyIiB4PSIxNDEwLjUiIHk9Ijc1Ni45ODQ0Ii8+PHRleHQgZmlsbD0iI0ZGRkZGRiIgZm9udC1mYW1pbHk9InNhbnMtc2VyaWYiIGZvbnQtc2l6ZT0iMTIiIGZvbnQtc3R5bGU9Iml0YWxpYyIgbGVuZ3RoQWRqdXN0PSJzcGFjaW5nIiB0ZXh0TGVuZ3RoPSIxMTIiIHg9IjE0MjAuNSIgeT0iNzc4LjMyODEiPiYjMTcxO2V4dGVybmFsX3N5c3RlbSYjMTg3OzwvdGV4dD48dGV4dCBmaWxsPSIjRkZGRkZGIiBmb250LWZhbWlseT0ic2Fucy1zZXJpZiIgZm9udC1zaXplPSIxNCIgbGVuZ3RoQWRqdXN0PSJzcGFjaW5nIiB0ZXh0TGVuZ3RoPSI3IiB4PSIxNDczIiB5PSI3OTMuMDYyNSI+JiMxNjA7PC90ZXh0Pjx0ZXh0IGZpbGw9IiNGRkZGRkYiIGZvbnQtZmFtaWx5PSJzYW5zLXNlcmlmIiBmb250LXNpemU9IjE2IiBmb250LXdlaWdodD0iYm9sZCIgbGVuZ3RoQWRqdXN0PSJzcGFjaW5nIiB0ZXh0TGVuZ3RoPSI2NCIgeD0iMTQ0NC41IiB5PSI4MDkuOTM3NSI+JiMyNTk5MTsmIzIwMjE0OyYjMjMzODQ7JiMyMDY0ODs8L3RleHQ+PHRleHQgZmlsbD0iI0ZGRkZGRiIgZm9udC1mYW1pbHk9InNhbnMtc2VyaWYiIGZvbnQtc2l6ZT0iMTQiIGxlbmd0aEFkanVzdD0ic3BhY2luZyIgdGV4dExlbmd0aD0iNyIgeD0iMTQ3MyIgeT0iODI1LjE3MTkiPiYjMTYwOzwvdGV4dD48dGV4dCBmaWxsPSIjRkZGRkZGIiBmb250LWZhbWlseT0ic2Fucy1zZXJpZiIgZm9udC1zaXplPSIxNCIgbGVuZ3RoQWRqdXN0PSJzcGFjaW5nIiB0ZXh0TGVuZ3RoPSIyMSIgeD0iMTQ1NS41IiB5PSI4NDAuMTU2MyI+QVdTPC90ZXh0Pjx0ZXh0IGZpbGw9IiNGRkZGRkYiIGZvbnQtZmFtaWx5PSJzYW5zLXNlcmlmIiBmb250LXNpemU9IjE0IiBsZW5ndGhBZGp1c3Q9InNwYWNpbmciIHRleHRMZW5ndGg9IjciIHg9IjE0NzYuNSIgeT0iODQwLjE1NjMiPiYjMTYwOzwvdGV4dD48dGV4dCBmaWxsPSIjRkZGRkZGIiBmb250LWZhbWlseT0ic2Fucy1zZXJpZiIgZm9udC1zaXplPSIxNCIgbGVuZ3RoQWRqdXN0PSJzcGFjaW5nIiB0ZXh0TGVuZ3RoPSIxNCIgeD0iMTQ4My41IiB5PSI4NDAuMTU2MyI+UzM8L3RleHQ+PC9nPjwhLS1lbnRpdHkgYXBpX2dhdGV3YXktLT48ZyBpZD0iZWxlbV9hcGlfZ2F0ZXdheSI+PHJlY3QgZmlsbD0iIzQzOERENSIgaGVpZ2h0PSI5Mi43ODEzIiByeD0iMi41IiByeT0iMi41IiBzdHlsZT0ic3Ryb2tlOiMzQzdGQzA7c3Ryb2tlLXdpZHRoOjAuNTsiIHdpZHRoPSIxNjYiIHg9IjY5OS41IiB5PSI0MTMuOTg0NCIvPjx0ZXh0IGZpbGw9IiNGRkZGRkYiIGZvbnQtZmFtaWx5PSJzYW5zLXNlcmlmIiBmb250LXNpemU9IjEyIiBmb250LXN0eWxlPSJpdGFsaWMiIGxlbmd0aEFkanVzdD0ic3BhY2luZyIgdGV4dExlbmd0aD0iNzIiIHg9Ijc0Ni41IiB5PSI0MzUuMzI4MSI+JiMxNzE7Y29udGFpbmVyJiMxODc7PC90ZXh0Pjx0ZXh0IGZpbGw9IiNGRkZGRkYiIGZvbnQtZmFtaWx5PSJzYW5zLXNlcmlmIiBmb250LXNpemU9IjE2IiBmb250LXdlaWdodD0iYm9sZCIgbGVuZ3RoQWRqdXN0PSJzcGFjaW5nIiB0ZXh0TGVuZ3RoPSIyNCIgeD0iNzUwLjUiIHk9IjQ1MS45NTMxIj5BUEk8L3RleHQ+PHRleHQgZmlsbD0iI0ZGRkZGRiIgZm9udC1mYW1pbHk9InNhbnMtc2VyaWYiIGZvbnQtc2l6ZT0iMTYiIGZvbnQtd2VpZ2h0PSJib2xkIiBsZW5ndGhBZGp1c3Q9InNwYWNpbmciIHRleHRMZW5ndGg9IjgiIHg9Ijc3NC41IiB5PSI0NTEuOTUzMSI+JiMxNjA7PC90ZXh0Pjx0ZXh0IGZpbGw9IiNGRkZGRkYiIGZvbnQtZmFtaWx5PSJzYW5zLXNlcmlmIiBmb250LXNpemU9IjE2IiBmb250LXdlaWdodD0iYm9sZCIgbGVuZ3RoQWRqdXN0PSJzcGFjaW5nIiB0ZXh0TGVuZ3RoPSIzMiIgeD0iNzgyLjUiIHk9IjQ1MS45NTMxIj4mIzMyNTkzOyYjMjA4NTE7PC90ZXh0Pjx0ZXh0IGZpbGw9IiNGRkZGRkYiIGZvbnQtZmFtaWx5PSJzYW5zLXNlcmlmIiBmb250LXNpemU9IjEyIiBmb250LXN0eWxlPSJpdGFsaWMiIGxlbmd0aEFkanVzdD0ic3BhY2luZyIgdGV4dExlbmd0aD0iNDciIHg9IjcwOS41IiB5PSI0NjUuMjk2OSI+W1NwcmluZzwvdGV4dD48dGV4dCBmaWxsPSIjRkZGRkZGIiBmb250LWZhbWlseT0ic2Fucy1zZXJpZiIgZm9udC1zaXplPSIxMiIgZm9udC1zdHlsZT0iaXRhbGljIiBsZW5ndGhBZGp1c3Q9InNwYWNpbmciIHRleHRMZW5ndGg9IjYiIHg9Ijc1Ni41IiB5PSI0NjUuMjk2OSI+JiMxNjA7PC90ZXh0Pjx0ZXh0IGZpbGw9IiNGRkZGRkYiIGZvbnQtZmFtaWx5PSJzYW5zLXNlcmlmIiBmb250LXNpemU9IjEyIiBmb250LXN0eWxlPSJpdGFsaWMiIGxlbmd0aEFkanVzdD0ic3BhY2luZyIgdGV4dExlbmd0aD0iMzQiIHg9Ijc2Mi41IiB5PSI0NjUuMjk2OSI+Q2xvdWQ8L3RleHQ+PHRleHQgZmlsbD0iI0ZGRkZGRiIgZm9udC1mYW1pbHk9InNhbnMtc2VyaWYiIGZvbnQtc2l6ZT0iMTIiIGZvbnQtc3R5bGU9Iml0YWxpYyIgbGVuZ3RoQWRqdXN0PSJzcGFjaW5nIiB0ZXh0TGVuZ3RoPSI2IiB4PSI3OTYuNSIgeT0iNDY1LjI5NjkiPiYjMTYwOzwvdGV4dD48dGV4dCBmaWxsPSIjRkZGRkZGIiBmb250LWZhbWlseT0ic2Fucy1zZXJpZiIgZm9udC1zaXplPSIxMiIgZm9udC1zdHlsZT0iaXRhbGljIiBsZW5ndGhBZGp1c3Q9InNwYWNpbmciIHRleHRMZW5ndGg9IjUzIiB4PSI4MDIuNSIgeT0iNDY1LjI5NjkiPkdhdGV3YXldPC90ZXh0Pjx0ZXh0IGZpbGw9IiNGRkZGRkYiIGZvbnQtZmFtaWx5PSJzYW5zLXNlcmlmIiBmb250LXNpemU9IjE0IiBsZW5ndGhBZGp1c3Q9InNwYWNpbmciIHRleHRMZW5ndGg9IjciIHg9Ijc3OSIgeT0iNDgwLjAzMTMiPiYjMTYwOzwvdGV4dD48dGV4dCBmaWxsPSIjRkZGRkZGIiBmb250LWZhbWlseT0ic2Fucy1zZXJpZiIgZm9udC1zaXplPSIxNCIgbGVuZ3RoQWRqdXN0PSJzcGFjaW5nIiB0ZXh0TGVuZ3RoPSI1NiIgeD0iNzIzIiB5PSI0OTUuMDE1NiI+JiMzMjQ3OTsmIzE5OTY4OyYjMzE2NDk7JiMyOTcwMjs8L3RleHQ+PHRleHQgZmlsbD0iI0ZGRkZGRiIgZm9udC1mYW1pbHk9InNhbnMtc2VyaWYiIGZvbnQtc2l6ZT0iMTQiIGxlbmd0aEFkanVzdD0ic3BhY2luZyIgdGV4dExlbmd0aD0iNyIgeD0iNzc5IiB5PSI0OTUuMDE1NiI+JiMxNjA7PC90ZXh0Pjx0ZXh0IGZpbGw9IiNGRkZGRkYiIGZvbnQtZmFtaWx5PSJzYW5zLXNlcmlmIiBmb250LXNpemU9IjE0IiBsZW5ndGhBZGp1c3Q9InNwYWNpbmciIHRleHRMZW5ndGg9IjIxIiB4PSI3ODYiIHk9IjQ5NS4wMTU2Ij5BUEk8L3RleHQ+PHRleHQgZmlsbD0iI0ZGRkZGRiIgZm9udC1mYW1pbHk9InNhbnMtc2VyaWYiIGZvbnQtc2l6ZT0iMTQiIGxlbmd0aEFkanVzdD0ic3BhY2luZyIgdGV4dExlbmd0aD0iNyIgeD0iODA3IiB5PSI0OTUuMDE1NiI+JiMxNjA7PC90ZXh0Pjx0ZXh0IGZpbGw9IiNGRkZGRkYiIGZvbnQtZmFtaWx5PSJzYW5zLXNlcmlmIiBmb250LXNpemU9IjE0IiBsZW5ndGhBZGp1c3Q9InNwYWNpbmciIHRleHRMZW5ndGg9IjI4IiB4PSI4MTQiIHk9IjQ5NS4wMTU2Ij4mIzI1NTA5OyYjMjE0NzU7PC90ZXh0PjwvZz48IS0tZW50aXR5IGF1dGhfc2VydmljZS0tPjxnIGlkPSJlbGVtX2F1dGhfc2VydmljZSI+PHBhdGggZD0iTTYsNTkwLjk4NDQgQzYsNTgwLjk4NDQgOTAuNSw1ODAuOTg0NCA5MC41LDU4MC45ODQ0IEM5MC41LDU4MC45ODQ0IDE3NSw1ODAuOTg0NCAxNzUsNTkwLjk4NDQgTDE3NSw2NzIuNzY1NiBDMTc1LDY4Mi43NjU2IDkwLjUsNjgyLjc2NTYgOTAuNSw2ODIuNzY1NiBDOTAuNSw2ODIuNzY1NiA2LDY4Mi43NjU2IDYsNjcyLjc2NTYgTDYsNTkwLjk4NDQgIiBmaWxsPSIjNDM4REQ1IiBzdHlsZT0ic3Ryb2tlOiMzQzdGQzA7c3Ryb2tlLXdpZHRoOjAuNTsiLz48cGF0aCBkPSJNNiw1OTAuOTg0NCBDNiw2MDAuOTg0NCA5MC41LDYwMC45ODQ0IDkwLjUsNjAwLjk4NDQgQzkwLjUsNjAwLjk4NDQgMTc1LDYwMC45ODQ0IDE3NSw1OTAuOTg0NCAiIGZpbGw9Im5vbmUiIHN0eWxlPSJzdHJva2U6IzNDN0ZDMDtzdHJva2Utd2lkdGg6MC41OyIvPjx0ZXh0IGZpbGw9IiNGRkZGRkYiIGZvbnQtZmFtaWx5PSJzYW5zLXNlcmlmIiBmb250LXNpemU9IjEyIiBmb250LXN0eWxlPSJpdGFsaWMiIGxlbmd0aEFkanVzdD0ic3BhY2luZyIgdGV4dExlbmd0aD0iNzIiIHg9IjU0LjUiIHk9IjYxNi4zMjgxIj4mIzE3MTtjb250YWluZXImIzE4Nzs8L3RleHQ+PHRleHQgZmlsbD0iI0ZGRkZGRiIgZm9udC1mYW1pbHk9InNhbnMtc2VyaWYiIGZvbnQtc2l6ZT0iMTYiIGZvbnQtd2VpZ2h0PSJib2xkIiBsZW5ndGhBZGp1c3Q9InNwYWNpbmciIHRleHRMZW5ndGg9Ijk2IiB4PSI0Mi41IiB5PSI2MzIuOTUzMSI+JiMzNTc0ODsmIzM1Nzc3OyYjMjU0ODA7JiMyNjQzNTsmIzI2MzgxOyYjMjExNTM7PC90ZXh0Pjx0ZXh0IGZpbGw9IiNGRkZGRkYiIGZvbnQtZmFtaWx5PSJzYW5zLXNlcmlmIiBmb250LXNpemU9IjEyIiBmb250LXN0eWxlPSJpdGFsaWMiIGxlbmd0aEFkanVzdD0ic3BhY2luZyIgdGV4dExlbmd0aD0iNDciIHg9IjE2IiB5PSI2NDYuMjk2OSI+W1NwcmluZzwvdGV4dD48dGV4dCBmaWxsPSIjRkZGRkZGIiBmb250LWZhbWlseT0ic2Fucy1zZXJpZiIgZm9udC1zaXplPSIxMiIgZm9udC1zdHlsZT0iaXRhbGljIiBsZW5ndGhBZGp1c3Q9InNwYWNpbmciIHRleHRMZW5ndGg9IjYiIHg9IjYzIiB5PSI2NDYuMjk2OSI+JiMxNjA7PC90ZXh0Pjx0ZXh0IGZpbGw9IiNGRkZGRkYiIGZvbnQtZmFtaWx5PSJzYW5zLXNlcmlmIiBmb250LXNpemU9IjEyIiBmb250LXN0eWxlPSJpdGFsaWMiIGxlbmd0aEFkanVzdD0ic3BhY2luZyIgdGV4dExlbmd0aD0iNTMiIHg9IjY5IiB5PSI2NDYuMjk2OSI+U2VjdXJpdHk8L3RleHQ+PHRleHQgZmlsbD0iI0ZGRkZGRiIgZm9udC1mYW1pbHk9InNhbnMtc2VyaWYiIGZvbnQtc2l6ZT0iMTIiIGZvbnQtc3R5bGU9Iml0YWxpYyIgbGVuZ3RoQWRqdXN0PSJzcGFjaW5nIiB0ZXh0TGVuZ3RoPSI2IiB4PSIxMjIiIHk9IjY0Ni4yOTY5Ij4mIzE2MDs8L3RleHQ+PHRleHQgZmlsbD0iI0ZGRkZGRiIgZm9udC1mYW1pbHk9InNhbnMtc2VyaWYiIGZvbnQtc2l6ZT0iMTIiIGZvbnQtc3R5bGU9Iml0YWxpYyIgbGVuZ3RoQWRqdXN0PSJzcGFjaW5nIiB0ZXh0TGVuZ3RoPSI2IiB4PSIxMjgiIHk9IjY0Ni4yOTY5Ij4rPC90ZXh0Pjx0ZXh0IGZpbGw9IiNGRkZGRkYiIGZvbnQtZmFtaWx5PSJzYW5zLXNlcmlmIiBmb250LXNpemU9IjEyIiBmb250LXN0eWxlPSJpdGFsaWMiIGxlbmd0aEFkanVzdD0ic3BhY2luZyIgdGV4dExlbmd0aD0iNiIgeD0iMTM0IiB5PSI2NDYuMjk2OSI+JiMxNjA7PC90ZXh0Pjx0ZXh0IGZpbGw9IiNGRkZGRkYiIGZvbnQtZmFtaWx5PSJzYW5zLXNlcmlmIiBmb250LXNpemU9IjEyIiBmb250LXN0eWxlPSJpdGFsaWMiIGxlbmd0aEFkanVzdD0ic3BhY2luZyIgdGV4dExlbmd0aD0iMjUiIHg9IjE0MCIgeT0iNjQ2LjI5NjkiPkpXVF08L3RleHQ+PHRleHQgZmlsbD0iI0ZGRkZGRiIgZm9udC1mYW1pbHk9InNhbnMtc2VyaWYiIGZvbnQtc2l6ZT0iMTQiIGxlbmd0aEFkanVzdD0ic3BhY2luZyIgdGV4dExlbmd0aD0iNyIgeD0iODciIHk9IjY2MS4wMzEzIj4mIzE2MDs8L3RleHQ+PHRleHQgZmlsbD0iI0ZGRkZGRiIgZm9udC1mYW1pbHk9InNhbnMtc2VyaWYiIGZvbnQtc2l6ZT0iMTQiIGxlbmd0aEFkanVzdD0ic3BhY2luZyIgdGV4dExlbmd0aD0iMTQwIiB4PSIyMC41IiB5PSI2NzYuMDE1NiI+JiMzMTY0OTsmIzI5NzAyOyYjMjE1OTI7JiMzMDMzMTsmIzI0NDA1OyYjMTIyODk7JiMyNjQzNTsmIzM4NDgwOyYjMzE2NDk7JiMyOTcwMjs8L3RleHQ+PC9nPjwhLS1lbnRpdHkgdXNlcl9zZXJ2aWNlLS0+PGcgaWQ9ImVsZW1fdXNlcl9zZXJ2aWNlIj48cGF0aCBkPSJNMTA0MSw1OTAuOTg0NCBDMTA0MSw1ODAuOTg0NCAxMTI2LjUsNTgwLjk4NDQgMTEyNi41LDU4MC45ODQ0IEMxMTI2LjUsNTgwLjk4NDQgMTIxMiw1ODAuOTg0NCAxMjEyLDU5MC45ODQ0IEwxMjEyLDY3Mi43NjU2IEMxMjEyLDY4Mi43NjU2IDExMjYuNSw2ODIuNzY1NiAxMTI2LjUsNjgyLjc2NTYgQzExMjYuNSw2ODIuNzY1NiAxMDQxLDY4Mi43NjU2IDEwNDEsNjcyLjc2NTYgTDEwNDEsNTkwLjk4NDQgIiBmaWxsPSIjNDM4REQ1IiBzdHlsZT0ic3Ryb2tlOiMzQzdGQzA7c3Ryb2tlLXdpZHRoOjAuNTsiLz48cGF0aCBkPSJNMTA0MSw1OTAuOTg0NCBDMTA0MSw2MDAuOTg0NCAxMTI2LjUsNjAwLjk4NDQgMTEyNi41LDYwMC45ODQ0IEMxMTI2LjUsNjAwLjk4NDQgMTIxMiw2MDAuOTg0NCAxMjEyLDU5MC45ODQ0ICIgZmlsbD0ibm9uZSIgc3R5bGU9InN0cm9rZTojM0M3RkMwO3N0cm9rZS13aWR0aDowLjU7Ii8+PHRleHQgZmlsbD0iI0ZGRkZGRiIgZm9udC1mYW1pbHk9InNhbnMtc2VyaWYiIGZvbnQtc2l6ZT0iMTIiIGZvbnQtc3R5bGU9Iml0YWxpYyIgbGVuZ3RoQWRqdXN0PSJzcGFjaW5nIiB0ZXh0TGVuZ3RoPSI3MiIgeD0iMTA5MC41IiB5PSI2MTYuMzI4MSI+JiMxNzE7Y29udGFpbmVyJiMxODc7PC90ZXh0Pjx0ZXh0IGZpbGw9IiNGRkZGRkYiIGZvbnQtZmFtaWx5PSJzYW5zLXNlcmlmIiBmb250LXNpemU9IjE2IiBmb250LXdlaWdodD0iYm9sZCIgbGVuZ3RoQWRqdXN0PSJzcGFjaW5nIiB0ZXh0TGVuZ3RoPSI2NCIgeD0iMTA5NC41IiB5PSI2MzIuOTUzMSI+JiMyOTk5MjsmIzI1MTQzOyYjMjYzODE7JiMyMTE1Mzs8L3RleHQ+PHRleHQgZmlsbD0iI0ZGRkZGRiIgZm9udC1mYW1pbHk9InNhbnMtc2VyaWYiIGZvbnQtc2l6ZT0iMTIiIGZvbnQtc3R5bGU9Iml0YWxpYyIgbGVuZ3RoQWRqdXN0PSJzcGFjaW5nIiB0ZXh0TGVuZ3RoPSI0NyIgeD0iMTA1MSIgeT0iNjQ2LjI5NjkiPltTcHJpbmc8L3RleHQ+PHRleHQgZmlsbD0iI0ZGRkZGRiIgZm9udC1mYW1pbHk9InNhbnMtc2VyaWYiIGZvbnQtc2l6ZT0iMTIiIGZvbnQtc3R5bGU9Iml0YWxpYyIgbGVuZ3RoQWRqdXN0PSJzcGFjaW5nIiB0ZXh0TGVuZ3RoPSI2IiB4PSIxMDk4IiB5PSI2NDYuMjk2OSI+JiMxNjA7PC90ZXh0Pjx0ZXh0IGZpbGw9IiNGRkZGRkYiIGZvbnQtZmFtaWx5PSJzYW5zLXNlcmlmIiBmb250LXNpemU9IjEyIiBmb250LXN0eWxlPSJpdGFsaWMiIGxlbmd0aEFkanVzdD0ic3BhY2luZyIgdGV4dExlbmd0aD0iMjciIHg9IjExMDQiIHk9IjY0Ni4yOTY5Ij5Cb290PC90ZXh0Pjx0ZXh0IGZpbGw9IiNGRkZGRkYiIGZvbnQtZmFtaWx5PSJzYW5zLXNlcmlmIiBmb250LXNpemU9IjEyIiBmb250LXN0eWxlPSJpdGFsaWMiIGxlbmd0aEFkanVzdD0ic3BhY2luZyIgdGV4dExlbmd0aD0iNiIgeD0iMTEzMSIgeT0iNjQ2LjI5NjkiPiYjMTYwOzwvdGV4dD48dGV4dCBmaWxsPSIjRkZGRkZGIiBmb250LWZhbWlseT0ic2Fucy1zZXJpZiIgZm9udC1zaXplPSIxMiIgZm9udC1zdHlsZT0iaXRhbGljIiBsZW5ndGhBZGp1c3Q9InNwYWNpbmciIHRleHRMZW5ndGg9IjYiIHg9IjExMzciIHk9IjY0Ni4yOTY5Ij4rPC90ZXh0Pjx0ZXh0IGZpbGw9IiNGRkZGRkYiIGZvbnQtZmFtaWx5PSJzYW5zLXNlcmlmIiBmb250LXNpemU9IjEyIiBmb250LXN0eWxlPSJpdGFsaWMiIGxlbmd0aEFkanVzdD0ic3BhY2luZyIgdGV4dExlbmd0aD0iNiIgeD0iMTE0MyIgeT0iNjQ2LjI5NjkiPiYjMTYwOzwvdGV4dD48dGV4dCBmaWxsPSIjRkZGRkZGIiBmb250LWZhbWlseT0ic2Fucy1zZXJpZiIgZm9udC1zaXplPSIxMiIgZm9udC1zdHlsZT0iaXRhbGljIiBsZW5ndGhBZGp1c3Q9InNwYWNpbmciIHRleHRMZW5ndGg9IjUzIiB4PSIxMTQ5IiB5PSI2NDYuMjk2OSI+TXlCYXRpc108L3RleHQ+PHRleHQgZmlsbD0iI0ZGRkZGRiIgZm9udC1mYW1pbHk9InNhbnMtc2VyaWYiIGZvbnQtc2l6ZT0iMTQiIGxlbmd0aEFkanVzdD0ic3BhY2luZyIgdGV4dExlbmd0aD0iNyIgeD0iMTEyMyIgeT0iNjYxLjAzMTMiPiYjMTYwOzwvdGV4dD48dGV4dCBmaWxsPSIjRkZGRkZGIiBmb250LWZhbWlseT0ic2Fucy1zZXJpZiIgZm9udC1zaXplPSIxNCIgbGVuZ3RoQWRqdXN0PSJzcGFjaW5nIiB0ZXh0TGVuZ3RoPSI4NCIgeD0iMTA4NC41IiB5PSI2NzYuMDE1NiI+JiMyOTk5MjsmIzI1MTQzOyYjMjA0NDk7JiMyNDY4NzsmIzMxNjQ5OyYjMjk3MDI7PC90ZXh0PjwvZz48IS0tZW50aXR5IGNhdF9zZXJ2aWNlLS0+PGcgaWQ9ImVsZW1fY2F0X3NlcnZpY2UiPjxwYXRoIGQ9Ik0xMjQ3LDU5MC45ODQ0IEMxMjQ3LDU4MC45ODQ0IDEzMzIuNSw1ODAuOTg0NCAxMzMyLjUsNTgwLjk4NDQgQzEzMzIuNSw1ODAuOTg0NCAxNDE4LDU4MC45ODQ0IDE0MTgsNTkwLjk4NDQgTDE0MTgsNjcyLjc2NTYgQzE0MTgsNjgyLjc2NTYgMTMzMi41LDY4Mi43NjU2IDEzMzIuNSw2ODIuNzY1NiBDMTMzMi41LDY4Mi43NjU2IDEyNDcsNjgyLjc2NTYgMTI0Nyw2NzIuNzY1NiBMMTI0Nyw1OTAuOTg0NCAiIGZpbGw9IiM0MzhERDUiIHN0eWxlPSJzdHJva2U6IzNDN0ZDMDtzdHJva2Utd2lkdGg6MC41OyIvPjxwYXRoIGQ9Ik0xMjQ3LDU5MC45ODQ0IEMxMjQ3LDYwMC45ODQ0IDEzMzIuNSw2MDAuOTg0NCAxMzMyLjUsNjAwLjk4NDQgQzEzMzIuNSw2MDAuOTg0NCAxNDE4LDYwMC45ODQ0IDE0MTgsNTkwLjk4NDQgIiBmaWxsPSJub25lIiBzdHlsZT0ic3Ryb2tlOiMzQzdGQzA7c3Ryb2tlLXdpZHRoOjAuNTsiLz48dGV4dCBmaWxsPSIjRkZGRkZGIiBmb250LWZhbWlseT0ic2Fucy1zZXJpZiIgZm9udC1zaXplPSIxMiIgZm9udC1zdHlsZT0iaXRhbGljIiBsZW5ndGhBZGp1c3Q9InNwYWNpbmciIHRleHRMZW5ndGg9IjcyIiB4PSIxMjk2LjUiIHk9IjYxNi4zMjgxIj4mIzE3MTtjb250YWluZXImIzE4Nzs8L3RleHQ+PHRleHQgZmlsbD0iI0ZGRkZGRiIgZm9udC1mYW1pbHk9InNhbnMtc2VyaWYiIGZvbnQtc2l6ZT0iMTYiIGZvbnQtd2VpZ2h0PSJib2xkIiBsZW5ndGhBZGp1c3Q9InNwYWNpbmciIHRleHRMZW5ndGg9IjgwIiB4PSIxMjkyLjUiIHk9IjYzMi45NTMxIj4mIzI3OTY5OyYjMjgwMTA7JiMyOTQ4MzsmIzI2MzgxOyYjMjExNTM7PC90ZXh0Pjx0ZXh0IGZpbGw9IiNGRkZGRkYiIGZvbnQtZmFtaWx5PSJzYW5zLXNlcmlmIiBmb250LXNpemU9IjEyIiBmb250LXN0eWxlPSJpdGFsaWMiIGxlbmd0aEFkanVzdD0ic3BhY2luZyIgdGV4dExlbmd0aD0iNDciIHg9IjEyNTciIHk9IjY0Ni4yOTY5Ij5bU3ByaW5nPC90ZXh0Pjx0ZXh0IGZpbGw9IiNGRkZGRkYiIGZvbnQtZmFtaWx5PSJzYW5zLXNlcmlmIiBmb250LXNpemU9IjEyIiBmb250LXN0eWxlPSJpdGFsaWMiIGxlbmd0aEFkanVzdD0ic3BhY2luZyIgdGV4dExlbmd0aD0iNiIgeD0iMTMwNCIgeT0iNjQ2LjI5NjkiPiYjMTYwOzwvdGV4dD48dGV4dCBmaWxsPSIjRkZGRkZGIiBmb250LWZhbWlseT0ic2Fucy1zZXJpZiIgZm9udC1zaXplPSIxMiIgZm9udC1zdHlsZT0iaXRhbGljIiBsZW5ndGhBZGp1c3Q9InNwYWNpbmciIHRleHRMZW5ndGg9IjI3IiB4PSIxMzEwIiB5PSI2NDYuMjk2OSI+Qm9vdDwvdGV4dD48dGV4dCBmaWxsPSIjRkZGRkZGIiBmb250LWZhbWlseT0ic2Fucy1zZXJpZiIgZm9udC1zaXplPSIxMiIgZm9udC1zdHlsZT0iaXRhbGljIiBsZW5ndGhBZGp1c3Q9InNwYWNpbmciIHRleHRMZW5ndGg9IjYiIHg9IjEzMzciIHk9IjY0Ni4yOTY5Ij4mIzE2MDs8L3RleHQ+PHRleHQgZmlsbD0iI0ZGRkZGRiIgZm9udC1mYW1pbHk9InNhbnMtc2VyaWYiIGZvbnQtc2l6ZT0iMTIiIGZvbnQtc3R5bGU9Iml0YWxpYyIgbGVuZ3RoQWRqdXN0PSJzcGFjaW5nIiB0ZXh0TGVuZ3RoPSI2IiB4PSIxMzQzIiB5PSI2NDYuMjk2OSI+KzwvdGV4dD48dGV4dCBmaWxsPSIjRkZGRkZGIiBmb250LWZhbWlseT0ic2Fucy1zZXJpZiIgZm9udC1zaXplPSIxMiIgZm9udC1zdHlsZT0iaXRhbGljIiBsZW5ndGhBZGp1c3Q9InNwYWNpbmciIHRleHRMZW5ndGg9IjYiIHg9IjEzNDkiIHk9IjY0Ni4yOTY5Ij4mIzE2MDs8L3RleHQ+PHRleHQgZmlsbD0iI0ZGRkZGRiIgZm9udC1mYW1pbHk9InNhbnMtc2VyaWYiIGZvbnQtc2l6ZT0iMTIiIGZvbnQtc3R5bGU9Iml0YWxpYyIgbGVuZ3RoQWRqdXN0PSJzcGFjaW5nIiB0ZXh0TGVuZ3RoPSI1MyIgeD0iMTM1NSIgeT0iNjQ2LjI5NjkiPk15QmF0aXNdPC90ZXh0Pjx0ZXh0IGZpbGw9IiNGRkZGRkYiIGZvbnQtZmFtaWx5PSJzYW5zLXNlcmlmIiBmb250LXNpemU9IjE0IiBsZW5ndGhBZGp1c3Q9InNwYWNpbmciIHRleHRMZW5ndGg9IjciIHg9IjEzMjkiIHk9IjY2MS4wMzEzIj4mIzE2MDs8L3RleHQ+PHRleHQgZmlsbD0iI0ZGRkZGRiIgZm9udC1mYW1pbHk9InNhbnMtc2VyaWYiIGZvbnQtc2l6ZT0iMTQiIGxlbmd0aEFkanVzdD0ic3BhY2luZyIgdGV4dExlbmd0aD0iMTQwIiB4PSIxMjYyLjUiIHk9IjY3Ni4wMTU2Ij4mIzI3OTY5OyYjMjgwMTA7JiMyOTQ4MzsmIzIwNDQ5OyYjMjQ2ODc7JiMzMTY0OTsmIzI5NzAyOyYjMTIyODk7JiMyMzQ1NzsmIzI2NjgwOzwvdGV4dD48L2c+PCEtLWVudGl0eSB2b2x1bnRlZXJfc2VydmljZS0tPjxnIGlkPSJlbGVtX3ZvbHVudGVlcl9zZXJ2aWNlIj48cGF0aCBkPSJNODM1LDU5MC45ODQ0IEM4MzUsNTgwLjk4NDQgOTIwLjUsNTgwLjk4NDQgOTIwLjUsNTgwLjk4NDQgQzkyMC41LDU4MC45ODQ0IDEwMDYsNTgwLjk4NDQgMTAwNiw1OTAuOTg0NCBMMTAwNiw2NzIuNzY1NiBDMTAwNiw2ODIuNzY1NiA5MjAuNSw2ODIuNzY1NiA5MjAuNSw2ODIuNzY1NiBDOTIwLjUsNjgyLjc2NTYgODM1LDY4Mi43NjU2IDgzNSw2NzIuNzY1NiBMODM1LDU5MC45ODQ0ICIgZmlsbD0iIzQzOERENSIgc3R5bGU9InN0cm9rZTojM0M3RkMwO3N0cm9rZS13aWR0aDowLjU7Ii8+PHBhdGggZD0iTTgzNSw1OTAuOTg0NCBDODM1LDYwMC45ODQ0IDkyMC41LDYwMC45ODQ0IDkyMC41LDYwMC45ODQ0IEM5MjAuNSw2MDAuOTg0NCAxMDA2LDYwMC45ODQ0IDEwMDYsNTkwLjk4NDQgIiBmaWxsPSJub25lIiBzdHlsZT0ic3Ryb2tlOiMzQzdGQzA7c3Ryb2tlLXdpZHRoOjAuNTsiLz48dGV4dCBmaWxsPSIjRkZGRkZGIiBmb250LWZhbWlseT0ic2Fucy1zZXJpZiIgZm9udC1zaXplPSIxMiIgZm9udC1zdHlsZT0iaXRhbGljIiBsZW5ndGhBZGp1c3Q9InNwYWNpbmciIHRleHRMZW5ndGg9IjcyIiB4PSI4ODQuNSIgeT0iNjE2LjMyODEiPiYjMTcxO2NvbnRhaW5lciYjMTg3OzwvdGV4dD48dGV4dCBmaWxsPSIjRkZGRkZGIiBmb250LWZhbWlseT0ic2Fucy1zZXJpZiIgZm9udC1zaXplPSIxNiIgZm9udC13ZWlnaHQ9ImJvbGQiIGxlbmd0aEFkanVzdD0ic3BhY2luZyIgdGV4dExlbmd0aD0iODAiIHg9Ijg4MC41IiB5PSI2MzIuOTUzMSI+JiMyNDUzNTsmIzI0ODk1OyYjMzI3NzM7JiMyNjM4MTsmIzIxMTUzOzwvdGV4dD48dGV4dCBmaWxsPSIjRkZGRkZGIiBmb250LWZhbWlseT0ic2Fucy1zZXJpZiIgZm9udC1zaXplPSIxMiIgZm9udC1zdHlsZT0iaXRhbGljIiBsZW5ndGhBZGp1c3Q9InNwYWNpbmciIHRleHRMZW5ndGg9IjQ3IiB4PSI4NDUiIHk9IjY0Ni4yOTY5Ij5bU3ByaW5nPC90ZXh0Pjx0ZXh0IGZpbGw9IiNGRkZGRkYiIGZvbnQtZmFtaWx5PSJzYW5zLXNlcmlmIiBmb250LXNpemU9IjEyIiBmb250LXN0eWxlPSJpdGFsaWMiIGxlbmd0aEFkanVzdD0ic3BhY2luZyIgdGV4dExlbmd0aD0iNiIgeD0iODkyIiB5PSI2NDYuMjk2OSI+JiMxNjA7PC90ZXh0Pjx0ZXh0IGZpbGw9IiNGRkZGRkYiIGZvbnQtZmFtaWx5PSJzYW5zLXNlcmlmIiBmb250LXNpemU9IjEyIiBmb250LXN0eWxlPSJpdGFsaWMiIGxlbmd0aEFkanVzdD0ic3BhY2luZyIgdGV4dExlbmd0aD0iMjciIHg9Ijg5OCIgeT0iNjQ2LjI5NjkiPkJvb3Q8L3RleHQ+PHRleHQgZmlsbD0iI0ZGRkZGRiIgZm9udC1mYW1pbHk9InNhbnMtc2VyaWYiIGZvbnQtc2l6ZT0iMTIiIGZvbnQtc3R5bGU9Iml0YWxpYyIgbGVuZ3RoQWRqdXN0PSJzcGFjaW5nIiB0ZXh0TGVuZ3RoPSI2IiB4PSI5MjUiIHk9IjY0Ni4yOTY5Ij4mIzE2MDs8L3RleHQ+PHRleHQgZmlsbD0iI0ZGRkZGRiIgZm9udC1mYW1pbHk9InNhbnMtc2VyaWYiIGZvbnQtc2l6ZT0iMTIiIGZvbnQtc3R5bGU9Iml0YWxpYyIgbGVuZ3RoQWRqdXN0PSJzcGFjaW5nIiB0ZXh0TGVuZ3RoPSI2IiB4PSI5MzEiIHk9IjY0Ni4yOTY5Ij4rPC90ZXh0Pjx0ZXh0IGZpbGw9IiNGRkZGRkYiIGZvbnQtZmFtaWx5PSJzYW5zLXNlcmlmIiBmb250LXNpemU9IjEyIiBmb250LXN0eWxlPSJpdGFsaWMiIGxlbmd0aEFkanVzdD0ic3BhY2luZyIgdGV4dExlbmd0aD0iNiIgeD0iOTM3IiB5PSI2NDYuMjk2OSI+JiMxNjA7PC90ZXh0Pjx0ZXh0IGZpbGw9IiNGRkZGRkYiIGZvbnQtZmFtaWx5PSJzYW5zLXNlcmlmIiBmb250LXNpemU9IjEyIiBmb250LXN0eWxlPSJpdGFsaWMiIGxlbmd0aEFkanVzdD0ic3BhY2luZyIgdGV4dExlbmd0aD0iNTMiIHg9Ijk0MyIgeT0iNjQ2LjI5NjkiPk15QmF0aXNdPC90ZXh0Pjx0ZXh0IGZpbGw9IiNGRkZGRkYiIGZvbnQtZmFtaWx5PSJzYW5zLXNlcmlmIiBmb250LXNpemU9IjE0IiBsZW5ndGhBZGp1c3Q9InNwYWNpbmciIHRleHRMZW5ndGg9IjciIHg9IjkxNyIgeT0iNjYxLjAzMTMiPiYjMTYwOzwvdGV4dD48dGV4dCBmaWxsPSIjRkZGRkZGIiBmb250LWZhbWlseT0ic2Fucy1zZXJpZiIgZm9udC1zaXplPSIxNCIgbGVuZ3RoQWRqdXN0PSJzcGFjaW5nIiB0ZXh0TGVuZ3RoPSIxNDAiIHg9Ijg1MC41IiB5PSI2NzYuMDE1NiI+JiMyNDUzNTsmIzI0ODk1OyYjMzI3NzM7JiMzMDAwMzsmIzM1ODMxOyYjMTIyODk7JiMyMDIxOTsmIzIxMTUzOyYjMzE2NDk7JiMyOTcwMjs8L3RleHQ+PC9nPjwhLS1lbnRpdHkgYWRvcHRpb25fc2VydmljZS0tPjxnIGlkPSJlbGVtX2Fkb3B0aW9uX3NlcnZpY2UiPjxwYXRoIGQ9Ik0yMTAuNSw1OTAuOTg0NCBDMjEwLjUsNTgwLjk4NDQgMjk3LjUsNTgwLjk4NDQgMjk3LjUsNTgwLjk4NDQgQzI5Ny41LDU4MC45ODQ0IDM4NC41LDU4MC45ODQ0IDM4NC41LDU5MC45ODQ0IEwzODQuNSw2NzIuNzY1NiBDMzg0LjUsNjgyLjc2NTYgMjk3LjUsNjgyLjc2NTYgMjk3LjUsNjgyLjc2NTYgQzI5Ny41LDY4Mi43NjU2IDIxMC41LDY4Mi43NjU2IDIxMC41LDY3Mi43NjU2IEwyMTAuNSw1OTAuOTg0NCAiIGZpbGw9IiM0MzhERDUiIHN0eWxlPSJzdHJva2U6IzNDN0ZDMDtzdHJva2Utd2lkdGg6MC41OyIvPjxwYXRoIGQ9Ik0yMTAuNSw1OTAuOTg0NCBDMjEwLjUsNjAwLjk4NDQgMjk3LjUsNjAwLjk4NDQgMjk3LjUsNjAwLjk4NDQgQzI5Ny41LDYwMC45ODQ0IDM4NC41LDYwMC45ODQ0IDM4NC41LDU5MC45ODQ0ICIgZmlsbD0ibm9uZSIgc3R5bGU9InN0cm9rZTojM0M3RkMwO3N0cm9rZS13aWR0aDowLjU7Ii8+PHRleHQgZmlsbD0iI0ZGRkZGRiIgZm9udC1mYW1pbHk9InNhbnMtc2VyaWYiIGZvbnQtc2l6ZT0iMTIiIGZvbnQtc3R5bGU9Iml0YWxpYyIgbGVuZ3RoQWRqdXN0PSJzcGFjaW5nIiB0ZXh0TGVuZ3RoPSI3MiIgeD0iMjYxLjUiIHk9IjYxNi4zMjgxIj4mIzE3MTtjb250YWluZXImIzE4Nzs8L3RleHQ+PHRleHQgZmlsbD0iI0ZGRkZGRiIgZm9udC1mYW1pbHk9InNhbnMtc2VyaWYiIGZvbnQtc2l6ZT0iMTYiIGZvbnQtd2VpZ2h0PSJib2xkIiBsZW5ndGhBZGp1c3Q9InNwYWNpbmciIHRleHRMZW5ndGg9IjY0IiB4PSIyNjUuNSIgeT0iNjMyLjk1MzEiPiYjMzkwNDY7JiMyMDg1OTsmIzI2MzgxOyYjMjExNTM7PC90ZXh0Pjx0ZXh0IGZpbGw9IiNGRkZGRkYiIGZvbnQtZmFtaWx5PSJzYW5zLXNlcmlmIiBmb250LXNpemU9IjEyIiBmb250LXN0eWxlPSJpdGFsaWMiIGxlbmd0aEFkanVzdD0ic3BhY2luZyIgdGV4dExlbmd0aD0iNDciIHg9IjIyMiIgeT0iNjQ2LjI5NjkiPltTcHJpbmc8L3RleHQ+PHRleHQgZmlsbD0iI0ZGRkZGRiIgZm9udC1mYW1pbHk9InNhbnMtc2VyaWYiIGZvbnQtc2l6ZT0iMTIiIGZvbnQtc3R5bGU9Iml0YWxpYyIgbGVuZ3RoQWRqdXN0PSJzcGFjaW5nIiB0ZXh0TGVuZ3RoPSI2IiB4PSIyNjkiIHk9IjY0Ni4yOTY5Ij4mIzE2MDs8L3RleHQ+PHRleHQgZmlsbD0iI0ZGRkZGRiIgZm9udC1mYW1pbHk9InNhbnMtc2VyaWYiIGZvbnQtc2l6ZT0iMTIiIGZvbnQtc3R5bGU9Iml0YWxpYyIgbGVuZ3RoQWRqdXN0PSJzcGFjaW5nIiB0ZXh0TGVuZ3RoPSIyNyIgeD0iMjc1IiB5PSI2NDYuMjk2OSI+Qm9vdDwvdGV4dD48dGV4dCBmaWxsPSIjRkZGRkZGIiBmb250LWZhbWlseT0ic2Fucy1zZXJpZiIgZm9udC1zaXplPSIxMiIgZm9udC1zdHlsZT0iaXRhbGljIiBsZW5ndGhBZGp1c3Q9InNwYWNpbmciIHRleHRMZW5ndGg9IjYiIHg9IjMwMiIgeT0iNjQ2LjI5NjkiPiYjMTYwOzwvdGV4dD48dGV4dCBmaWxsPSIjRkZGRkZGIiBmb250LWZhbWlseT0ic2Fucy1zZXJpZiIgZm9udC1zaXplPSIxMiIgZm9udC1zdHlsZT0iaXRhbGljIiBsZW5ndGhBZGp1c3Q9InNwYWNpbmciIHRleHRMZW5ndGg9IjYiIHg9IjMwOCIgeT0iNjQ2LjI5NjkiPis8L3RleHQ+PHRleHQgZmlsbD0iI0ZGRkZGRiIgZm9udC1mYW1pbHk9InNhbnMtc2VyaWYiIGZvbnQtc2l6ZT0iMTIiIGZvbnQtc3R5bGU9Iml0YWxpYyIgbGVuZ3RoQWRqdXN0PSJzcGFjaW5nIiB0ZXh0TGVuZ3RoPSI2IiB4PSIzMTQiIHk9IjY0Ni4yOTY5Ij4mIzE2MDs8L3RleHQ+PHRleHQgZmlsbD0iI0ZGRkZGRiIgZm9udC1mYW1pbHk9InNhbnMtc2VyaWYiIGZvbnQtc2l6ZT0iMTIiIGZvbnQtc3R5bGU9Iml0YWxpYyIgbGVuZ3RoQWRqdXN0PSJzcGFjaW5nIiB0ZXh0TGVuZ3RoPSI1MyIgeD0iMzIwIiB5PSI2NDYuMjk2OSI+TXlCYXRpc108L3RleHQ+PHRleHQgZmlsbD0iI0ZGRkZGRiIgZm9udC1mYW1pbHk9InNhbnMtc2VyaWYiIGZvbnQtc2l6ZT0iMTQiIGxlbmd0aEFkanVzdD0ic3BhY2luZyIgdGV4dExlbmd0aD0iNyIgeD0iMjk0IiB5PSI2NjEuMDMxMyI+JiMxNjA7PC90ZXh0Pjx0ZXh0IGZpbGw9IiNGRkZGRkYiIGZvbnQtZmFtaWx5PSJzYW5zLXNlcmlmIiBmb250LXNpemU9IjE0IiBsZW5ndGhBZGp1c3Q9InNwYWNpbmciIHRleHRMZW5ndGg9IjE1NCIgeD0iMjIwLjUiIHk9IjY3Ni4wMTU2Ij4mIzM5MDQ2OyYjMjA4NTk7JiMzMDAwMzsmIzM1ODMxOyYjMjM0NTc7JiMyNTIwOTsmIzEyMjg5OyYjMzY4Mjc7JiMyNDIzMDsmIzM2MzE5OyYjMzYzOTQ7PC90ZXh0PjwvZz48IS0tZW50aXR5IG1lZGljYWxfc2VydmljZS0tPjxnIGlkPSJlbGVtX21lZGljYWxfc2VydmljZSI+PHBhdGggZD0iTTQxOS41LDU5MC45ODQ0IEM0MTkuNSw1ODAuOTg0NCA1MDYuNSw1ODAuOTg0NCA1MDYuNSw1ODAuOTg0NCBDNTA2LjUsNTgwLjk4NDQgNTkzLjUsNTgwLjk4NDQgNTkzLjUsNTkwLjk4NDQgTDU5My41LDY3Mi43NjU2IEM1OTMuNSw2ODIuNzY1NiA1MDYuNSw2ODIuNzY1NiA1MDYuNSw2ODIuNzY1NiBDNTA2LjUsNjgyLjc2NTYgNDE5LjUsNjgyLjc2NTYgNDE5LjUsNjcyLjc2NTYgTDQxOS41LDU5MC45ODQ0ICIgZmlsbD0iIzQzOERENSIgc3R5bGU9InN0cm9rZTojM0M3RkMwO3N0cm9rZS13aWR0aDowLjU7Ii8+PHBhdGggZD0iTTQxOS41LDU5MC45ODQ0IEM0MTkuNSw2MDAuOTg0NCA1MDYuNSw2MDAuOTg0NCA1MDYuNSw2MDAuOTg0NCBDNTA2LjUsNjAwLjk4NDQgNTkzLjUsNjAwLjk4NDQgNTkzLjUsNTkwLjk4NDQgIiBmaWxsPSJub25lIiBzdHlsZT0ic3Ryb2tlOiMzQzdGQzA7c3Ryb2tlLXdpZHRoOjAuNTsiLz48dGV4dCBmaWxsPSIjRkZGRkZGIiBmb250LWZhbWlseT0ic2Fucy1zZXJpZiIgZm9udC1zaXplPSIxMiIgZm9udC1zdHlsZT0iaXRhbGljIiBsZW5ndGhBZGp1c3Q9InNwYWNpbmciIHRleHRMZW5ndGg9IjcyIiB4PSI0NzAuNSIgeT0iNjE2LjMyODEiPiYjMTcxO2NvbnRhaW5lciYjMTg3OzwvdGV4dD48dGV4dCBmaWxsPSIjRkZGRkZGIiBmb250LWZhbWlseT0ic2Fucy1zZXJpZiIgZm9udC1zaXplPSIxNiIgZm9udC13ZWlnaHQ9ImJvbGQiIGxlbmd0aEFkanVzdD0ic3BhY2luZyIgdGV4dExlbmd0aD0iOTYiIHg9IjQ1OC41IiB5PSI2MzIuOTUzMSI+JiMyMTMwNzsmIzMwMTAzOyYjMjU5Mzc7JiMyMTE2MTsmIzI2MzgxOyYjMjExNTM7PC90ZXh0Pjx0ZXh0IGZpbGw9IiNGRkZGRkYiIGZvbnQtZmFtaWx5PSJzYW5zLXNlcmlmIiBmb250LXNpemU9IjEyIiBmb250LXN0eWxlPSJpdGFsaWMiIGxlbmd0aEFkanVzdD0ic3BhY2luZyIgdGV4dExlbmd0aD0iNDciIHg9IjQzMSIgeT0iNjQ2LjI5NjkiPltTcHJpbmc8L3RleHQ+PHRleHQgZmlsbD0iI0ZGRkZGRiIgZm9udC1mYW1pbHk9InNhbnMtc2VyaWYiIGZvbnQtc2l6ZT0iMTIiIGZvbnQtc3R5bGU9Iml0YWxpYyIgbGVuZ3RoQWRqdXN0PSJzcGFjaW5nIiB0ZXh0TGVuZ3RoPSI2IiB4PSI0NzgiIHk9IjY0Ni4yOTY5Ij4mIzE2MDs8L3RleHQ+PHRleHQgZmlsbD0iI0ZGRkZGRiIgZm9udC1mYW1pbHk9InNhbnMtc2VyaWYiIGZvbnQtc2l6ZT0iMTIiIGZvbnQtc3R5bGU9Iml0YWxpYyIgbGVuZ3RoQWRqdXN0PSJzcGFjaW5nIiB0ZXh0TGVuZ3RoPSIyNyIgeD0iNDg0IiB5PSI2NDYuMjk2OSI+Qm9vdDwvdGV4dD48dGV4dCBmaWxsPSIjRkZGRkZGIiBmb250LWZhbWlseT0ic2Fucy1zZXJpZiIgZm9udC1zaXplPSIxMiIgZm9udC1zdHlsZT0iaXRhbGljIiBsZW5ndGhBZGp1c3Q9InNwYWNpbmciIHRleHRMZW5ndGg9IjYiIHg9IjUxMSIgeT0iNjQ2LjI5NjkiPiYjMTYwOzwvdGV4dD48dGV4dCBmaWxsPSIjRkZGRkZGIiBmb250LWZhbWlseT0ic2Fucy1zZXJpZiIgZm9udC1zaXplPSIxMiIgZm9udC1zdHlsZT0iaXRhbGljIiBsZW5ndGhBZGp1c3Q9InNwYWNpbmciIHRleHRMZW5ndGg9IjYiIHg9IjUxNyIgeT0iNjQ2LjI5NjkiPis8L3RleHQ+PHRleHQgZmlsbD0iI0ZGRkZGRiIgZm9udC1mYW1pbHk9InNhbnMtc2VyaWYiIGZvbnQtc2l6ZT0iMTIiIGZvbnQtc3R5bGU9Iml0YWxpYyIgbGVuZ3RoQWRqdXN0PSJzcGFjaW5nIiB0ZXh0TGVuZ3RoPSI2IiB4PSI1MjMiIHk9IjY0Ni4yOTY5Ij4mIzE2MDs8L3RleHQ+PHRleHQgZmlsbD0iI0ZGRkZGRiIgZm9udC1mYW1pbHk9InNhbnMtc2VyaWYiIGZvbnQtc2l6ZT0iMTIiIGZvbnQtc3R5bGU9Iml0YWxpYyIgbGVuZ3RoQWRqdXN0PSJzcGFjaW5nIiB0ZXh0TGVuZ3RoPSI1MyIgeD0iNTI5IiB5PSI2NDYuMjk2OSI+TXlCYXRpc108L3RleHQ+PHRleHQgZmlsbD0iI0ZGRkZGRiIgZm9udC1mYW1pbHk9InNhbnMtc2VyaWYiIGZvbnQtc2l6ZT0iMTQiIGxlbmd0aEFkanVzdD0ic3BhY2luZyIgdGV4dExlbmd0aD0iNyIgeD0iNTAzIiB5PSI2NjEuMDMxMyI+JiMxNjA7PC90ZXh0Pjx0ZXh0IGZpbGw9IiNGRkZGRkYiIGZvbnQtZmFtaWx5PSJzYW5zLXNlcmlmIiBmb250LXNpemU9IjE0IiBsZW5ndGhBZGp1c3Q9InNwYWNpbmciIHRleHRMZW5ndGg9IjE1NCIgeD0iNDI5LjUiIHk9IjY3Ni4wMTU2Ij4mIzIxMzA3OyYjMzAxMDM7JiMyNTkzNzsmIzIxMTYxOyYjMjA0NDk7JiMyNDY4NzsmIzEyMjg5OyYjMzU3NjA7JiMyNDQwNTsmIzMxNjQ5OyYjMjk3MDI7PC90ZXh0PjwvZz48IS0tZW50aXR5IGRvbmF0aW9uX3NlcnZpY2UtLT48ZyBpZD0iZWxlbV9kb25hdGlvbl9zZXJ2aWNlIj48cGF0aCBkPSJNNjI5LDU5MC45ODQ0IEM2MjksNTgwLjk4NDQgNzE0LjUsNTgwLjk4NDQgNzE0LjUsNTgwLjk4NDQgQzcxNC41LDU4MC45ODQ0IDgwMCw1ODAuOTg0NCA4MDAsNTkwLjk4NDQgTDgwMCw2NzIuNzY1NiBDODAwLDY4Mi43NjU2IDcxNC41LDY4Mi43NjU2IDcxNC41LDY4Mi43NjU2IEM3MTQuNSw2ODIuNzY1NiA2MjksNjgyLjc2NTYgNjI5LDY3Mi43NjU2IEw2MjksNTkwLjk4NDQgIiBmaWxsPSIjNDM4REQ1IiBzdHlsZT0ic3Ryb2tlOiMzQzdGQzA7c3Ryb2tlLXdpZHRoOjAuNTsiLz48cGF0aCBkPSJNNjI5LDU5MC45ODQ0IEM2MjksNjAwLjk4NDQgNzE0LjUsNjAwLjk4NDQgNzE0LjUsNjAwLjk4NDQgQzcxNC41LDYwMC45ODQ0IDgwMCw2MDAuOTg0NCA4MDAsNTkwLjk4NDQgIiBmaWxsPSJub25lIiBzdHlsZT0ic3Ryb2tlOiMzQzdGQzA7c3Ryb2tlLXdpZHRoOjAuNTsiLz48dGV4dCBmaWxsPSIjRkZGRkZGIiBmb250LWZhbWlseT0ic2Fucy1zZXJpZiIgZm9udC1zaXplPSIxMiIgZm9udC1zdHlsZT0iaXRhbGljIiBsZW5ndGhBZGp1c3Q9InNwYWNpbmciIHRleHRMZW5ndGg9IjcyIiB4PSI2NzguNSIgeT0iNjE2LjMyODEiPiYjMTcxO2NvbnRhaW5lciYjMTg3OzwvdGV4dD48dGV4dCBmaWxsPSIjRkZGRkZGIiBmb250LWZhbWlseT0ic2Fucy1zZXJpZiIgZm9udC1zaXplPSIxNiIgZm9udC13ZWlnaHQ9ImJvbGQiIGxlbmd0aEFkanVzdD0ic3BhY2luZyIgdGV4dExlbmd0aD0iNjQiIHg9IjY4Mi41IiB5PSI2MzIuOTUzMSI+JiMyNTQyNDsmIzM2MTkyOyYjMjYzODE7JiMyMTE1Mzs8L3RleHQ+PHRleHQgZmlsbD0iI0ZGRkZGRiIgZm9udC1mYW1pbHk9InNhbnMtc2VyaWYiIGZvbnQtc2l6ZT0iMTIiIGZvbnQtc3R5bGU9Iml0YWxpYyIgbGVuZ3RoQWRqdXN0PSJzcGFjaW5nIiB0ZXh0TGVuZ3RoPSI0NyIgeD0iNjM5IiB5PSI2NDYuMjk2OSI+W1NwcmluZzwvdGV4dD48dGV4dCBmaWxsPSIjRkZGRkZGIiBmb250LWZhbWlseT0ic2Fucy1zZXJpZiIgZm9udC1zaXplPSIxMiIgZm9udC1zdHlsZT0iaXRhbGljIiBsZW5ndGhBZGp1c3Q9InNwYWNpbmciIHRleHRMZW5ndGg9IjYiIHg9IjY4NiIgeT0iNjQ2LjI5NjkiPiYjMTYwOzwvdGV4dD48dGV4dCBmaWxsPSIjRkZGRkZGIiBmb250LWZhbWlseT0ic2Fucy1zZXJpZiIgZm9udC1zaXplPSIxMiIgZm9udC1zdHlsZT0iaXRhbGljIiBsZW5ndGhBZGp1c3Q9InNwYWNpbmciIHRleHRMZW5ndGg9IjI3IiB4PSI2OTIiIHk9IjY0Ni4yOTY5Ij5Cb290PC90ZXh0Pjx0ZXh0IGZpbGw9IiNGRkZGRkYiIGZvbnQtZmFtaWx5PSJzYW5zLXNlcmlmIiBmb250LXNpemU9IjEyIiBmb250LXN0eWxlPSJpdGFsaWMiIGxlbmd0aEFkanVzdD0ic3BhY2luZyIgdGV4dExlbmd0aD0iNiIgeD0iNzE5IiB5PSI2NDYuMjk2OSI+JiMxNjA7PC90ZXh0Pjx0ZXh0IGZpbGw9IiNGRkZGRkYiIGZvbnQtZmFtaWx5PSJzYW5zLXNlcmlmIiBmb250LXNpemU9IjEyIiBmb250LXN0eWxlPSJpdGFsaWMiIGxlbmd0aEFkanVzdD0ic3BhY2luZyIgdGV4dExlbmd0aD0iNiIgeD0iNzI1IiB5PSI2NDYuMjk2OSI+KzwvdGV4dD48dGV4dCBmaWxsPSIjRkZGRkZGIiBmb250LWZhbWlseT0ic2Fucy1zZXJpZiIgZm9udC1zaXplPSIxMiIgZm9udC1zdHlsZT0iaXRhbGljIiBsZW5ndGhBZGp1c3Q9InNwYWNpbmciIHRleHRMZW5ndGg9IjYiIHg9IjczMSIgeT0iNjQ2LjI5NjkiPiYjMTYwOzwvdGV4dD48dGV4dCBmaWxsPSIjRkZGRkZGIiBmb250LWZhbWlseT0ic2Fucy1zZXJpZiIgZm9udC1zaXplPSIxMiIgZm9udC1zdHlsZT0iaXRhbGljIiBsZW5ndGhBZGp1c3Q9InNwYWNpbmciIHRleHRMZW5ndGg9IjUzIiB4PSI3MzciIHk9IjY0Ni4yOTY5Ij5NeUJhdGlzXTwvdGV4dD48dGV4dCBmaWxsPSIjRkZGRkZGIiBmb250LWZhbWlseT0ic2Fucy1zZXJpZiIgZm9udC1zaXplPSIxNCIgbGVuZ3RoQWRqdXN0PSJzcGFjaW5nIiB0ZXh0TGVuZ3RoPSI3IiB4PSI3MTEiIHk9IjY2MS4wMzEzIj4mIzE2MDs8L3RleHQ+PHRleHQgZmlsbD0iI0ZGRkZGRiIgZm9udC1mYW1pbHk9InNhbnMtc2VyaWYiIGZvbnQtc2l6ZT0iMTQiIGxlbmd0aEFkanVzdD0ic3BhY2luZyIgdGV4dExlbmd0aD0iMTI2IiB4PSI2NTEuNSIgeT0iNjc2LjAxNTYiPiYjMjU0MjQ7JiMzNjE5MjsmIzM1NzYwOyYjMjQ0MDU7JiMxMjI4OTsmIzI5Mjg5OyYjMzYxNjQ7JiMzMTY0OTsmIzI5NzAyOzwvdGV4dD48L2c+PCEtLWVudGl0eSBub3RpY2Vfc2VydmljZS0tPjxnIGlkPSJlbGVtX25vdGljZV9zZXJ2aWNlIj48cGF0aCBkPSJNMTQ1Myw1OTAuOTg0NCBDMTQ1Myw1ODAuOTg0NCAxNTM4LjUsNTgwLjk4NDQgMTUzOC41LDU4MC45ODQ0IEMxNTM4LjUsNTgwLjk4NDQgMTYyNCw1ODAuOTg0NCAxNjI0LDU5MC45ODQ0IEwxNjI0LDY3Mi43NjU2IEMxNjI0LDY4Mi43NjU2IDE1MzguNSw2ODIuNzY1NiAxNTM4LjUsNjgyLjc2NTYgQzE1MzguNSw2ODIuNzY1NiAxNDUzLDY4Mi43NjU2IDE0NTMsNjcyLjc2NTYgTDE0NTMsNTkwLjk4NDQgIiBmaWxsPSIjNDM4REQ1IiBzdHlsZT0ic3Ryb2tlOiMzQzdGQzA7c3Ryb2tlLXdpZHRoOjAuNTsiLz48cGF0aCBkPSJNMTQ1Myw1OTAuOTg0NCBDMTQ1Myw2MDAuOTg0NCAxNTM4LjUsNjAwLjk4NDQgMTUzOC41LDYwMC45ODQ0IEMxNTM4LjUsNjAwLjk4NDQgMTYyNCw2MDAuOTg0NCAxNjI0LDU5MC45ODQ0ICIgZmlsbD0ibm9uZSIgc3R5bGU9InN0cm9rZTojM0M3RkMwO3N0cm9rZS13aWR0aDowLjU7Ii8+PHRleHQgZmlsbD0iI0ZGRkZGRiIgZm9udC1mYW1pbHk9InNhbnMtc2VyaWYiIGZvbnQtc2l6ZT0iMTIiIGZvbnQtc3R5bGU9Iml0YWxpYyIgbGVuZ3RoQWRqdXN0PSJzcGFjaW5nIiB0ZXh0TGVuZ3RoPSI3MiIgeD0iMTUwMi41IiB5PSI2MTYuMzI4MSI+JiMxNzE7Y29udGFpbmVyJiMxODc7PC90ZXh0Pjx0ZXh0IGZpbGw9IiNGRkZGRkYiIGZvbnQtZmFtaWx5PSJzYW5zLXNlcmlmIiBmb250LXNpemU9IjE2IiBmb250LXdlaWdodD0iYm9sZCIgbGVuZ3RoQWRqdXN0PSJzcGFjaW5nIiB0ZXh0TGVuZ3RoPSI2NCIgeD0iMTUwNi41IiB5PSI2MzIuOTUzMSI+JiMyMDg0NDsmIzIxNTc4OyYjMjYzODE7JiMyMTE1Mzs8L3RleHQ+PHRleHQgZmlsbD0iI0ZGRkZGRiIgZm9udC1mYW1pbHk9InNhbnMtc2VyaWYiIGZvbnQtc2l6ZT0iMTIiIGZvbnQtc3R5bGU9Iml0YWxpYyIgbGVuZ3RoQWRqdXN0PSJzcGFjaW5nIiB0ZXh0TGVuZ3RoPSI0NyIgeD0iMTQ2MyIgeT0iNjQ2LjI5NjkiPltTcHJpbmc8L3RleHQ+PHRleHQgZmlsbD0iI0ZGRkZGRiIgZm9udC1mYW1pbHk9InNhbnMtc2VyaWYiIGZvbnQtc2l6ZT0iMTIiIGZvbnQtc3R5bGU9Iml0YWxpYyIgbGVuZ3RoQWRqdXN0PSJzcGFjaW5nIiB0ZXh0TGVuZ3RoPSI2IiB4PSIxNTEwIiB5PSI2NDYuMjk2OSI+JiMxNjA7PC90ZXh0Pjx0ZXh0IGZpbGw9IiNGRkZGRkYiIGZvbnQtZmFtaWx5PSJzYW5zLXNlcmlmIiBmb250LXNpemU9IjEyIiBmb250LXN0eWxlPSJpdGFsaWMiIGxlbmd0aEFkanVzdD0ic3BhY2luZyIgdGV4dExlbmd0aD0iMjciIHg9IjE1MTYiIHk9IjY0Ni4yOTY5Ij5Cb290PC90ZXh0Pjx0ZXh0IGZpbGw9IiNGRkZGRkYiIGZvbnQtZmFtaWx5PSJzYW5zLXNlcmlmIiBmb250LXNpemU9IjEyIiBmb250LXN0eWxlPSJpdGFsaWMiIGxlbmd0aEFkanVzdD0ic3BhY2luZyIgdGV4dExlbmd0aD0iNiIgeD0iMTU0MyIgeT0iNjQ2LjI5NjkiPiYjMTYwOzwvdGV4dD48dGV4dCBmaWxsPSIjRkZGRkZGIiBmb250LWZhbWlseT0ic2Fucy1zZXJpZiIgZm9udC1zaXplPSIxMiIgZm9udC1zdHlsZT0iaXRhbGljIiBsZW5ndGhBZGp1c3Q9InNwYWNpbmciIHRleHRMZW5ndGg9IjYiIHg9IjE1NDkiIHk9IjY0Ni4yOTY5Ij4rPC90ZXh0Pjx0ZXh0IGZpbGw9IiNGRkZGRkYiIGZvbnQtZmFtaWx5PSJzYW5zLXNlcmlmIiBmb250LXNpemU9IjEyIiBmb250LXN0eWxlPSJpdGFsaWMiIGxlbmd0aEFkanVzdD0ic3BhY2luZyIgdGV4dExlbmd0aD0iNiIgeD0iMTU1NSIgeT0iNjQ2LjI5NjkiPiYjMTYwOzwvdGV4dD48dGV4dCBmaWxsPSIjRkZGRkZGIiBmb250LWZhbWlseT0ic2Fucy1zZXJpZiIgZm9udC1zaXplPSIxMiIgZm9udC1zdHlsZT0iaXRhbGljIiBsZW5ndGhBZGp1c3Q9InNwYWNpbmciIHRleHRMZW5ndGg9IjUzIiB4PSIxNTYxIiB5PSI2NDYuMjk2OSI+TXlCYXRpc108L3RleHQ+PHRleHQgZmlsbD0iI0ZGRkZGRiIgZm9udC1mYW1pbHk9InNhbnMtc2VyaWYiIGZvbnQtc2l6ZT0iMTQiIGxlbmd0aEFkanVzdD0ic3BhY2luZyIgdGV4dExlbmd0aD0iNyIgeD0iMTUzNSIgeT0iNjYxLjAzMTMiPiYjMTYwOzwvdGV4dD48dGV4dCBmaWxsPSIjRkZGRkZGIiBmb250LWZhbWlseT0ic2Fucy1zZXJpZiIgZm9udC1zaXplPSIxNCIgbGVuZ3RoQWRqdXN0PSJzcGFjaW5nIiB0ZXh0TGVuZ3RoPSI5OCIgeD0iMTQ4OS41IiB5PSI2NzYuMDE1NiI+JiMyMDg0NDsmIzIxNTc4OyYjMjE0NTc7JiMyNDA2NzsmIzEyMjg5OyYjMzE2NDk7JiMyOTcwMjs8L3RleHQ+PC9nPjwhLS1saW5rIGFkbWluIHRvIGZyb250ZW5kLS0+PGcgaWQ9ImxpbmtfYWRtaW5fZnJvbnRlbmQiPjxwYXRoIGQ9Ik03ODIuNSwxNzEuMTM0NCBDNzgyLjUsMTk1LjI5NDQgNzgyLjUsMjE0LjM4NDQgNzgyLjUsMjM2Ljc0NDQgIiBmaWxsPSJub25lIiBpZD0iYWRtaW4tdG8tZnJvbnRlbmQiIHN0eWxlPSJzdHJva2U6IzY2NjY2NjtzdHJva2Utd2lkdGg6MS4wOyIvPjxwb2x5Z29uIGZpbGw9IiM2NjY2NjYiIHBvaW50cz0iNzgyLjUsMjQ0Ljc0NDQsNzg1LjUsMjM2Ljc0NDQsNzc5LjUsMjM2Ljc0NDQsNzgyLjUsMjQ0Ljc0NDQiIHN0eWxlPSJzdHJva2U6IzY2NjY2NjtzdHJva2Utd2lkdGg6MS4wOyIvPjx0ZXh0IGZpbGw9IiM2NjY2NjYiIGZvbnQtZmFtaWx5PSJzYW5zLXNlcmlmIiBmb250LXNpemU9IjEyIiBmb250LXdlaWdodD0iYm9sZCIgbGVuZ3RoQWRqdXN0PSJzcGFjaW5nIiB0ZXh0TGVuZ3RoPSIyNCIgeD0iNzgzLjUiIHk9IjIxMy4zMjgxIj4mIzIwMzUxOyYjMjk5OTI7PC90ZXh0PjwvZz48IS0tbGluayBmcm9udGVuZCB0byBhcGlfZ2F0ZXdheS0tPjxnIGlkPSJsaW5rX2Zyb250ZW5kX2FwaV9nYXRld2F5Ij48cGF0aCBkPSJNNzgyLjUsMzQwLjE2NDQgQzc4Mi41LDM2My4xODQ0IDc4Mi41LDM4Mi44MzQ0IDc4Mi41LDQwNS43MjQ0ICIgZmlsbD0ibm9uZSIgaWQ9ImZyb250ZW5kLXRvLWFwaV9nYXRld2F5IiBzdHlsZT0ic3Ryb2tlOiM2NjY2NjY7c3Ryb2tlLXdpZHRoOjEuMDsiLz48cG9seWdvbiBmaWxsPSIjNjY2NjY2IiBwb2ludHM9Ijc4Mi41LDQxMy43MjQ0LDc4NS41LDQwNS43MjQ0LDc3OS41LDQwNS43MjQ0LDc4Mi41LDQxMy43MjQ0IiBzdHlsZT0ic3Ryb2tlOiM2NjY2NjY7c3Ryb2tlLXdpZHRoOjEuMDsiLz48dGV4dCBmaWxsPSIjNjY2NjY2IiBmb250LWZhbWlseT0ic2Fucy1zZXJpZiIgZm9udC1zaXplPSIxMiIgZm9udC13ZWlnaHQ9ImJvbGQiIGxlbmd0aEFkanVzdD0ic3BhY2luZyIgdGV4dExlbmd0aD0iMjQiIHg9Ijc4My41IiB5PSIzODIuMzI4MSI+JiMzNTg0MzsmIzI5OTkyOzwvdGV4dD48dGV4dCBmaWxsPSIjNjY2NjY2IiBmb250LWZhbWlseT0ic2Fucy1zZXJpZiIgZm9udC1zaXplPSIxMiIgZm9udC13ZWlnaHQ9ImJvbGQiIGxlbmd0aEFkanVzdD0ic3BhY2luZyIgdGV4dExlbmd0aD0iNiIgeD0iODA3LjUiIHk9IjM4Mi4zMjgxIj4mIzE2MDs8L3RleHQ+PHRleHQgZmlsbD0iIzY2NjY2NiIgZm9udC1mYW1pbHk9InNhbnMtc2VyaWYiIGZvbnQtc2l6ZT0iMTIiIGZvbnQtd2VpZ2h0PSJib2xkIiBsZW5ndGhBZGp1c3Q9InNwYWNpbmciIHRleHRMZW5ndGg9IjIwIiB4PSI4MTMuNSIgeT0iMzgyLjMyODEiPkFQSTwvdGV4dD48L2c+PCEtLWxpbmsgYXBpX2dhdGV3YXkgdG8gYXV0aF9zZXJ2aWNlLS0+PGcgaWQ9ImxpbmtfYXBpX2dhdGV3YXlfYXV0aF9zZXJ2aWNlIj48cGF0aCBkPSJNNjk5LjE0LDQ3MS41MjQ0IEM1ODMuMjQsNDg3LjAwNDQgMzY3Ljg4LDUyMS4zNDQ0IDE5Mi41LDU4MC45ODQ0IEMxODYuODEsNTgyLjkyNDQgMTg4LjQyOTEsNTgyLjA4NjggMTgyLjY1OTEsNTg0LjQzNjggIiBmaWxsPSJub25lIiBpZD0iYXBpX2dhdGV3YXktdG8tYXV0aF9zZXJ2aWNlIiBzdHlsZT0ic3Ryb2tlOiM2NjY2NjY7c3Ryb2tlLXdpZHRoOjEuMDsiLz48cG9seWdvbiBmaWxsPSIjNjY2NjY2IiBwb2ludHM9IjE3NS4yNSw1ODcuNDU0NCwxODMuNzkwNyw1ODcuMjE1MiwxODEuNTI3NSw1ODEuNjU4NCwxNzUuMjUsNTg3LjQ1NDQiIHN0eWxlPSJzdHJva2U6IzY2NjY2NjtzdHJva2Utd2lkdGg6MS4wOyIvPjx0ZXh0IGZpbGw9IiM2NjY2NjYiIGZvbnQtZmFtaWx5PSJzYW5zLXNlcmlmIiBmb250LXNpemU9IjEyIiBmb250LXdlaWdodD0iYm9sZCIgbGVuZ3RoQWRqdXN0PSJzcGFjaW5nIiB0ZXh0TGVuZ3RoPSIyNCIgeD0iMzM2LjUiIHk9IjU0OS4zMjgxIj4mIzM1ODQzOyYjMjk5OTI7PC90ZXh0PjwvZz48IS0tbGluayBhcGlfZ2F0ZXdheSB0byB1c2VyX3NlcnZpY2UtLT48ZyBpZD0ibGlua19hcGlfZ2F0ZXdheV91c2VyX3NlcnZpY2UiPjxwYXRoIGQ9Ik04NjUuNzcsNTAyLjUxNDQgQzkxOC43Niw1MjguNjI0NCA5ODAuMDUzNSw1NTguODI5MSAxMDMzLjUyMzUsNTg1LjE2OTEgIiBmaWxsPSJub25lIiBpZD0iYXBpX2dhdGV3YXktdG8tdXNlcl9zZXJ2aWNlIiBzdHlsZT0ic3Ryb2tlOiM2NjY2NjY7c3Ryb2tlLXdpZHRoOjEuMDsiLz48cG9seWdvbiBmaWxsPSIjNjY2NjY2IiBwb2ludHM9IjEwNDAuNyw1ODguNzA0NCwxMDM0Ljg0OTIsNTgyLjQ3OCwxMDMyLjE5NzgsNTg3Ljg2MDMsMTA0MC43LDU4OC43MDQ0IiBzdHlsZT0ic3Ryb2tlOiM2NjY2NjY7c3Ryb2tlLXdpZHRoOjEuMDsiLz48dGV4dCBmaWxsPSIjNjY2NjY2IiBmb250LWZhbWlseT0ic2Fucy1zZXJpZiIgZm9udC1zaXplPSIxMiIgZm9udC13ZWlnaHQ9ImJvbGQiIGxlbmd0aEFkanVzdD0ic3BhY2luZyIgdGV4dExlbmd0aD0iMjQiIHg9Ijk1NS41IiB5PSI1NDkuMzI4MSI+JiMzNTg0MzsmIzI5OTkyOzwvdGV4dD48L2c+PCEtLWxpbmsgYXBpX2dhdGV3YXkgdG8gY2F0X3NlcnZpY2UtLT48ZyBpZD0ibGlua19hcGlfZ2F0ZXdheV9jYXRfc2VydmljZSI+PHBhdGggZD0iTTg2NS41Myw0NzguNjk0NCBDOTU2LjQxLDQ5OC42NjQ0IDExMDUuNjcsNTM0Ljg1NDQgMTIyOS41LDU4MC45ODQ0IEMxMjM1LjE4LDU4My4xMDQ0IDEyMzMuNjAyNCw1ODIuMzA2OCAxMjM5LjM5MjQsNTg0Ljc1NjggIiBmaWxsPSJub25lIiBpZD0iYXBpX2dhdGV3YXktdG8tY2F0X3NlcnZpY2UiIHN0eWxlPSJzdHJva2U6IzY2NjY2NjtzdHJva2Utd2lkdGg6MS4wOyIvPjxwb2x5Z29uIGZpbGw9IiM2NjY2NjYiIHBvaW50cz0iMTI0Ni43Niw1ODcuODc0NCwxMjQwLjU2MTUsNTgxLjk5NCwxMjM4LjIyMzQsNTg3LjUxOTcsMTI0Ni43Niw1ODcuODc0NCIgc3R5bGU9InN0cm9rZTojNjY2NjY2O3N0cm9rZS13aWR0aDoxLjA7Ii8+PHRleHQgZmlsbD0iIzY2NjY2NiIgZm9udC1mYW1pbHk9InNhbnMtc2VyaWYiIGZvbnQtc2l6ZT0iMTIiIGZvbnQtd2VpZ2h0PSJib2xkIiBsZW5ndGhBZGp1c3Q9InNwYWNpbmciIHRleHRMZW5ndGg9IjI0IiB4PSIxMTM0LjUiIHk9IjU0OS4zMjgxIj4mIzM1ODQzOyYjMjk5OTI7PC90ZXh0PjwvZz48IS0tbGluayBhcGlfZ2F0ZXdheSB0byB2b2x1bnRlZXJfc2VydmljZS0tPjxnIGlkPSJsaW5rX2FwaV9nYXRld2F5X3ZvbHVudGVlcl9zZXJ2aWNlIj48cGF0aCBkPSJNODE5Ljg0LDUwNy4zNTQ0IEM4MzguMzYsNTMwLjEwNDQgODU1LjcyMDYsNTUxLjQwOTIgODc0LjY4MDYsNTc0LjcwOTIgIiBmaWxsPSJub25lIiBpZD0iYXBpX2dhdGV3YXktdG8tdm9sdW50ZWVyX3NlcnZpY2UiIHN0eWxlPSJzdHJva2U6IzY2NjY2NjtzdHJva2Utd2lkdGg6MS4wOyIvPjxwb2x5Z29uIGZpbGw9IiM2NjY2NjYiIHBvaW50cz0iODc5LjczLDU4MC45MTQ0LDg3Ny4wMDc2LDU3Mi44MTU3LDg3Mi4zNTM3LDU3Ni42MDI3LDg3OS43Myw1ODAuOTE0NCIgc3R5bGU9InN0cm9rZTojNjY2NjY2O3N0cm9rZS13aWR0aDoxLjA7Ii8+PHRleHQgZmlsbD0iIzY2NjY2NiIgZm9udC1mYW1pbHk9InNhbnMtc2VyaWYiIGZvbnQtc2l6ZT0iMTIiIGZvbnQtd2VpZ2h0PSJib2xkIiBsZW5ndGhBZGp1c3Q9InNwYWNpbmciIHRleHRMZW5ndGg9IjI0IiB4PSI4NTIuNSIgeT0iNTQ5LjMyODEiPiYjMzU4NDM7JiMyOTk5Mjs8L3RleHQ+PC9nPjwhLS1saW5rIGFwaV9nYXRld2F5IHRvIGFkb3B0aW9uX3NlcnZpY2UtLT48ZyBpZD0ibGlua19hcGlfZ2F0ZXdheV9hZG9wdGlvbl9zZXJ2aWNlIj48cGF0aCBkPSJNNjk5LjE4LDQ4My44NjQ0IEM2MjEuMTgsNTA1LjY5NDQgNTAxLjkzLDU0MS4zMzQ0IDQwMS41LDU4MC45ODQ0IEMzOTYsNTgzLjE1NDQgMzk3LjcyODIsNTgyLjI5ODQgMzkyLjEwODIsNTg0LjczODQgIiBmaWxsPSJub25lIiBpZD0iYXBpX2dhdGV3YXktdG8tYWRvcHRpb25fc2VydmljZSIgc3R5bGU9InN0cm9rZTojNjY2NjY2O3N0cm9rZS13aWR0aDoxLjA7Ii8+PHBvbHlnb24gZmlsbD0iIzY2NjY2NiIgcG9pbnRzPSIzODQuNzcsNTg3LjkyNDQsMzkzLjMwMyw1ODcuNDkwMiwzOTAuOTEzNSw1ODEuOTg2NiwzODQuNzcsNTg3LjkyNDQiIHN0eWxlPSJzdHJva2U6IzY2NjY2NjtzdHJva2Utd2lkdGg6MS4wOyIvPjx0ZXh0IGZpbGw9IiM2NjY2NjYiIGZvbnQtZmFtaWx5PSJzYW5zLXNlcmlmIiBmb250LXNpemU9IjEyIiBmb250LXdlaWdodD0iYm9sZCIgbGVuZ3RoQWRqdXN0PSJzcGFjaW5nIiB0ZXh0TGVuZ3RoPSIyNCIgeD0iNTE2LjUiIHk9IjU0OS4zMjgxIj4mIzM1ODQzOyYjMjk5OTI7PC90ZXh0PjwvZz48IS0tbGluayBhcGlfZ2F0ZXdheSB0byBtZWRpY2FsX3NlcnZpY2UtLT48ZyBpZD0ibGlua19hcGlfZ2F0ZXdheV9tZWRpY2FsX3NlcnZpY2UiPjxwYXRoIGQ9Ik03MDguMTcsNTA3LjEzNDQgQzY3MS4xMyw1MjkuODc0NCA2MzMuMDY3Myw1NTMuMjU4MiA1OTUuMDU3Myw1NzYuNTk4MiAiIGZpbGw9Im5vbmUiIGlkPSJhcGlfZ2F0ZXdheS10by1tZWRpY2FsX3NlcnZpY2UiIHN0eWxlPSJzdHJva2U6IzY2NjY2NjtzdHJva2Utd2lkdGg6MS4wOyIvPjxwb2x5Z29uIGZpbGw9IiM2NjY2NjYiIHBvaW50cz0iNTg4LjI0LDU4MC43ODQ0LDU5Ni42MjcxLDU3OS4xNTQ3LDU5My40ODc1LDU3NC4wNDE3LDU4OC4yNCw1ODAuNzg0NCIgc3R5bGU9InN0cm9rZTojNjY2NjY2O3N0cm9rZS13aWR0aDoxLjA7Ii8+PHRleHQgZmlsbD0iIzY2NjY2NiIgZm9udC1mYW1pbHk9InNhbnMtc2VyaWYiIGZvbnQtc2l6ZT0iMTIiIGZvbnQtd2VpZ2h0PSJib2xkIiBsZW5ndGhBZGp1c3Q9InNwYWNpbmciIHRleHRMZW5ndGg9IjI0IiB4PSI2NTQuNSIgeT0iNTQ5LjMyODEiPiYjMzU4NDM7JiMyOTk5Mjs8L3RleHQ+PC9nPjwhLS1saW5rIGFwaV9nYXRld2F5IHRvIGRvbmF0aW9uX3NlcnZpY2UtLT48ZyBpZD0ibGlua19hcGlfZ2F0ZXdheV9kb25hdGlvbl9zZXJ2aWNlIj48cGF0aCBkPSJNNzY0LjEsNTA3LjM1NDQgQzc1NC45Nyw1MzAuMTA0NCA3NDYuOTA2Niw1NTAuMTg4OCA3MzcuNTY2Niw1NzMuNDg4OCAiIGZpbGw9Im5vbmUiIGlkPSJhcGlfZ2F0ZXdheS10by1kb25hdGlvbl9zZXJ2aWNlIiBzdHlsZT0ic3Ryb2tlOiM2NjY2NjY7c3Ryb2tlLXdpZHRoOjEuMDsiLz48cG9seWdvbiBmaWxsPSIjNjY2NjY2IiBwb2ludHM9IjczNC41OSw1ODAuOTE0NCw3NDAuMzUxMiw1NzQuNjA1LDczNC43ODIsNTcyLjM3MjUsNzM0LjU5LDU4MC45MTQ0IiBzdHlsZT0ic3Ryb2tlOiM2NjY2NjY7c3Ryb2tlLXdpZHRoOjEuMDsiLz48dGV4dCBmaWxsPSIjNjY2NjY2IiBmb250LWZhbWlseT0ic2Fucy1zZXJpZiIgZm9udC1zaXplPSIxMiIgZm9udC13ZWlnaHQ9ImJvbGQiIGxlbmd0aEFkanVzdD0ic3BhY2luZyIgdGV4dExlbmd0aD0iMjQiIHg9Ijc1MS41IiB5PSI1NDkuMzI4MSI+JiMzNTg0MzsmIzI5OTkyOzwvdGV4dD48L2c+PCEtLWxpbmsgYXBpX2dhdGV3YXkgdG8gbm90aWNlX3NlcnZpY2UtLT48ZyBpZD0ibGlua19hcGlfZ2F0ZXdheV9ub3RpY2Vfc2VydmljZSI+PHBhdGggZD0iTTg2NS43MSw0NjkuNDE0NCBDOTkxLjU2LDQ4My4wMjQ0IDEyMzYuNzEsNTE1Ljg4NDQgMTQzNS41LDU4MC45ODQ0IEMxNDQxLjI2LDU4Mi44NzQ0IDE0MzkuNjc1Miw1ODIuMDYwOCAxNDQ1LjUxNTIsNTg0LjM4MDggIiBmaWxsPSJub25lIiBpZD0iYXBpX2dhdGV3YXktdG8tbm90aWNlX3NlcnZpY2UiIHN0eWxlPSJzdHJva2U6IzY2NjY2NjtzdHJva2Utd2lkdGg6MS4wOyIvPjxwb2x5Z29uIGZpbGw9IiM2NjY2NjYiIHBvaW50cz0iMTQ1Mi45NSw1ODcuMzM0NCwxNDQ2LjYyMjgsNTgxLjU5MjgsMTQ0NC40MDc2LDU4Ny4xNjg5LDE0NTIuOTUsNTg3LjMzNDQiIHN0eWxlPSJzdHJva2U6IzY2NjY2NjtzdHJva2Utd2lkdGg6MS4wOyIvPjx0ZXh0IGZpbGw9IiM2NjY2NjYiIGZvbnQtZmFtaWx5PSJzYW5zLXNlcmlmIiBmb250LXNpemU9IjEyIiBmb250LXdlaWdodD0iYm9sZCIgbGVuZ3RoQWRqdXN0PSJzcGFjaW5nIiB0ZXh0TGVuZ3RoPSIyNCIgeD0iMTMzMS41IiB5PSI1NDkuMzI4MSI+JiMzNTg0MzsmIzI5OTkyOzwvdGV4dD48L2c+PCEtLWxpbmsgYXV0aF9zZXJ2aWNlIHRvIGRiLS0+PGcgaWQ9ImxpbmtfYXV0aF9zZXJ2aWNlX2RiIj48cGF0aCBkPSJNMTc1LjI1LDY3Ni41MDQ0IEMxODEuMDIsNjc4Ljg1NDQgMTg2LjgxLDY4MS4wNDQ0IDE5Mi41LDY4Mi45ODQ0IEMzNzcuMDQsNzQ1LjkxNDQgNTk3Ljg5NzYsNzgwLjA2NjggNzA4LjUyNzYsNzk0LjUzNjggIiBmaWxsPSJub25lIiBpZD0iYXV0aF9zZXJ2aWNlLXRvLWRiIiBzdHlsZT0ic3Ryb2tlOiM2NjY2NjY7c3Ryb2tlLXdpZHRoOjEuMDsiLz48cG9seWdvbiBmaWxsPSIjNjY2NjY2IiBwb2ludHM9IjcxNi40Niw3OTUuNTc0NCw3MDguOTE2Niw3OTEuNTYyMiw3MDguMTM4NSw3OTcuNTExNSw3MTYuNDYsNzk1LjU3NDQiIHN0eWxlPSJzdHJva2U6IzY2NjY2NjtzdHJva2Utd2lkdGg6MS4wOyIvPjx0ZXh0IGZpbGw9IiM2NjY2NjYiIGZvbnQtZmFtaWx5PSJzYW5zLXNlcmlmIiBmb250LXNpemU9IjEyIiBmb250LXdlaWdodD0iYm9sZCIgbGVuZ3RoQWRqdXN0PSJzcGFjaW5nIiB0ZXh0TGVuZ3RoPSIyNCIgeD0iMzM2LjUiIHk9IjcyNS4zMjgxIj4mIzM1ODM1OyYjMjA4ODk7PC90ZXh0PjwvZz48IS0tbGluayB1c2VyX3NlcnZpY2UgdG8gZGItLT48ZyBpZD0ibGlua191c2VyX3NlcnZpY2VfZGIiPjxwYXRoIGQ9Ik0xMDQwLjU4LDY3NS41NjQ0IEM5ODEuMTgsNzA1LjAxNDQgOTEwLjQ4ODIsNzQwLjA1MjQgODU1Ljg3ODIsNzY3LjExMjQgIiBmaWxsPSJub25lIiBpZD0idXNlcl9zZXJ2aWNlLXRvLWRiIiBzdHlsZT0ic3Ryb2tlOiM2NjY2NjY7c3Ryb2tlLXdpZHRoOjEuMDsiLz48cG9seWdvbiBmaWxsPSIjNjY2NjY2IiBwb2ludHM9Ijg0OC43MSw3NzAuNjY0NCw4NTcuMjEwMiw3NjkuODAwNSw4NTQuNTQ2Myw3NjQuNDI0Myw4NDguNzEsNzcwLjY2NDQiIHN0eWxlPSJzdHJva2U6IzY2NjY2NjtzdHJva2Utd2lkdGg6MS4wOyIvPjx0ZXh0IGZpbGw9IiM2NjY2NjYiIGZvbnQtZmFtaWx5PSJzYW5zLXNlcmlmIiBmb250LXNpemU9IjEyIiBmb250LXdlaWdodD0iYm9sZCIgbGVuZ3RoQWRqdXN0PSJzcGFjaW5nIiB0ZXh0TGVuZ3RoPSIyNCIgeD0iOTY1LjUiIHk9IjcyNS4zMjgxIj4mIzM1ODM1OyYjMjA4ODk7PC90ZXh0PjwvZz48IS0tbGluayBjYXRfc2VydmljZSB0byBkYi0tPjxnIGlkPSJsaW5rX2NhdF9zZXJ2aWNlX2RiIj48cGF0aCBkPSJNMTI1Ni4wNCw2ODMuMDM0NCBDMTIyOC43LDY5OS4wODQ0IDExOTcuMDgsNzE1LjYxNDQgMTE2Ni41LDcyNi45ODQ0IEMxMDU5LjE0LDc2Ni44OTQ0IDkzNC42OTMsNzg2LjQ2MDcgODU2LjczMyw3OTUuODIwNyAiIGZpbGw9Im5vbmUiIGlkPSJjYXRfc2VydmljZS10by1kYiIgc3R5bGU9InN0cm9rZTojNjY2NjY2O3N0cm9rZS13aWR0aDoxLjA7Ii8+PHBvbHlnb24gZmlsbD0iIzY2NjY2NiIgcG9pbnRzPSI4NDguNzksNzk2Ljc3NDQsODU3LjA5MDYsNzk4Ljc5OTMsODU2LjM3NTMsNzkyLjg0MjEsODQ4Ljc5LDc5Ni43NzQ0IiBzdHlsZT0ic3Ryb2tlOiM2NjY2NjY7c3Ryb2tlLXdpZHRoOjEuMDsiLz48dGV4dCBmaWxsPSIjNjY2NjY2IiBmb250LWZhbWlseT0ic2Fucy1zZXJpZiIgZm9udC1zaXplPSIxMiIgZm9udC13ZWlnaHQ9ImJvbGQiIGxlbmd0aEFkanVzdD0ic3BhY2luZyIgdGV4dExlbmd0aD0iMjQiIHg9IjExOTUuNSIgeT0iNzI1LjMyODEiPiYjMzU4MzU7JiMyMDg4OTs8L3RleHQ+PC9nPjwhLS1saW5rIHZvbHVudGVlcl9zZXJ2aWNlIHRvIGRiLS0+PGcgaWQ9Imxpbmtfdm9sdW50ZWVyX3NlcnZpY2VfZGIiPjxwYXRoIGQ9Ik04NzkuODQsNjgzLjIxNDQgQzg2MSw3MDYuNDk0NCA4NDMuNzczLDcyNy43NzYgODI1LjMwMyw3NTAuNTk2ICIgZmlsbD0ibm9uZSIgaWQ9InZvbHVudGVlcl9zZXJ2aWNlLXRvLWRiIiBzdHlsZT0ic3Ryb2tlOiM2NjY2NjY7c3Ryb2tlLXdpZHRoOjEuMDsiLz48cG9seWdvbiBmaWxsPSIjNjY2NjY2IiBwb2ludHM9IjgyMC4yNyw3NTYuODE0NCw4MjcuNjM0OSw3NTIuNDgzNCw4MjIuOTcxMSw3NDguNzA4Niw4MjAuMjcsNzU2LjgxNDQiIHN0eWxlPSJzdHJva2U6IzY2NjY2NjtzdHJva2Utd2lkdGg6MS4wOyIvPjx0ZXh0IGZpbGw9IiM2NjY2NjYiIGZvbnQtZmFtaWx5PSJzYW5zLXNlcmlmIiBmb250LXNpemU9IjEyIiBmb250LXdlaWdodD0iYm9sZCIgbGVuZ3RoQWRqdXN0PSJzcGFjaW5nIiB0ZXh0TGVuZ3RoPSIyNCIgeD0iODU2LjUiIHk9IjcyNS4zMjgxIj4mIzM1ODM1OyYjMjA4ODk7PC90ZXh0PjwvZz48IS0tbGluayBhZG9wdGlvbl9zZXJ2aWNlIHRvIGRiLS0+PGcgaWQ9ImxpbmtfYWRvcHRpb25fc2VydmljZV9kYiI+PHBhdGggZD0iTTM4NC43Nyw2NzYuMDM0NCBDMzkwLjQsNjc4LjQ2NDQgMzk2LjAxLDY4MC44MDQ0IDQwMS41LDY4Mi45ODQ0IEM1MDkuNjksNzI1Ljg1NDQgNjMxLjk4MzgsNzYyLjEzNjIgNzA4Ljc1MzgsNzgzLjUzNjIgIiBmaWxsPSJub25lIiBpZD0iYWRvcHRpb25fc2VydmljZS10by1kYiIgc3R5bGU9InN0cm9rZTojNjY2NjY2O3N0cm9rZS13aWR0aDoxLjA7Ii8+PHBvbHlnb24gZmlsbD0iIzY2NjY2NiIgcG9pbnRzPSI3MTYuNDYsNzg1LjY4NDQsNzA5LjU1OTQsNzgwLjY0NjQsNzA3Ljk0ODIsNzg2LjQyNjEsNzE2LjQ2LDc4NS42ODQ0IiBzdHlsZT0ic3Ryb2tlOiM2NjY2NjY7c3Ryb2tlLXdpZHRoOjEuMDsiLz48dGV4dCBmaWxsPSIjNjY2NjY2IiBmb250LWZhbWlseT0ic2Fucy1zZXJpZiIgZm9udC1zaXplPSIxMiIgZm9udC13ZWlnaHQ9ImJvbGQiIGxlbmd0aEFkanVzdD0ic3BhY2luZyIgdGV4dExlbmd0aD0iMjQiIHg9IjUxNi41IiB5PSI3MjUuMzI4MSI+JiMzNTgzNTsmIzIwODg5OzwvdGV4dD48L2c+PCEtLWxpbmsgbWVkaWNhbF9zZXJ2aWNlIHRvIGRiLS0+PGcgaWQ9ImxpbmtfbWVkaWNhbF9zZXJ2aWNlX2RiIj48cGF0aCBkPSJNNTg3LjQ0LDY4Mi45ODQ0IEM2MjguNDgsNzA4LjMzNDQgNjcwLjg4NDgsNzM0LjUyODYgNzA5LjYwNDgsNzU4LjQ1ODYgIiBmaWxsPSJub25lIiBpZD0ibWVkaWNhbF9zZXJ2aWNlLXRvLWRiIiBzdHlsZT0ic3Ryb2tlOiM2NjY2NjY7c3Ryb2tlLXdpZHRoOjEuMDsiLz48cG9seWdvbiBmaWxsPSIjNjY2NjY2IiBwb2ludHM9IjcxNi40MSw3NjIuNjY0NCw3MTEuMTgyLDc1NS45MDY2LDcwOC4wMjc2LDc2MS4wMTA1LDcxNi40MSw3NjIuNjY0NCIgc3R5bGU9InN0cm9rZTojNjY2NjY2O3N0cm9rZS13aWR0aDoxLjA7Ii8+PHRleHQgZmlsbD0iIzY2NjY2NiIgZm9udC1mYW1pbHk9InNhbnMtc2VyaWYiIGZvbnQtc2l6ZT0iMTIiIGZvbnQtd2VpZ2h0PSJib2xkIiBsZW5ndGhBZGp1c3Q9InNwYWNpbmciIHRleHRMZW5ndGg9IjI0IiB4PSI2NTQuNSIgeT0iNzI1LjMyODEiPiYjMzU4MzU7JiMyMDg4OTs8L3RleHQ+PC9nPjwhLS1saW5rIGRvbmF0aW9uX3NlcnZpY2UgdG8gZGItLT48ZyBpZD0ibGlua19kb25hdGlvbl9zZXJ2aWNlX2RiIj48cGF0aCBkPSJNNzM0LjUzLDY4My4yMTQ0IEM3NDMuODIsNzA2LjQ5NDQgNzUxLjgyNjcsNzI2LjU2MzQgNzYwLjkyNjcsNzQ5LjM4MzQgIiBmaWxsPSJub25lIiBpZD0iZG9uYXRpb25fc2VydmljZS10by1kYiIgc3R5bGU9InN0cm9rZTojNjY2NjY2O3N0cm9rZS13aWR0aDoxLjA7Ii8+PHBvbHlnb24gZmlsbD0iIzY2NjY2NiIgcG9pbnRzPSI3NjMuODksNzU2LjgxNDQsNzYzLjcxMzMsNzQ4LjI3MjIsNzU4LjE0MDEsNzUwLjQ5NDYsNzYzLjg5LDc1Ni44MTQ0IiBzdHlsZT0ic3Ryb2tlOiM2NjY2NjY7c3Ryb2tlLXdpZHRoOjEuMDsiLz48dGV4dCBmaWxsPSIjNjY2NjY2IiBmb250LWZhbWlseT0ic2Fucy1zZXJpZiIgZm9udC1zaXplPSIxMiIgZm9udC13ZWlnaHQ9ImJvbGQiIGxlbmd0aEFkanVzdD0ic3BhY2luZyIgdGV4dExlbmd0aD0iMjQiIHg9Ijc1MS41IiB5PSI3MjUuMzI4MSI+JiMzNTgzNTsmIzIwODg5OzwvdGV4dD48L2c+PCEtLWxpbmsgbm90aWNlX3NlcnZpY2UgdG8gZGItLT48ZyBpZD0ibGlua19ub3RpY2Vfc2VydmljZV9kYiI+PHBhdGggZD0iTTE0NTIuOTMsNjc1LjY2NDQgQzE0NDcuMDcsNjc4LjIzNDQgMTQ0MS4yMiw2ODAuNjk0NCAxNDM1LjUsNjgyLjk4NDQgQzEzNzUuNzIsNzA2Ljg4NDQgMTM2MC4yMSw3MTIuNDM0NCAxMjk3LjUsNzI2Ljk4NDQgQzEyNzUuODIsNzMyLjAxNDQgOTkwLjQ0NzgsNzczLjQ2MDcgODU2LjQxNzgsNzkyLjgyMDcgIiBmaWxsPSJub25lIiBpZD0ibm90aWNlX3NlcnZpY2UtdG8tZGIiIHN0eWxlPSJzdHJva2U6IzY2NjY2NjtzdHJva2Utd2lkdGg6MS4wOyIvPjxwb2x5Z29uIGZpbGw9IiM2NjY2NjYiIHBvaW50cz0iODQ4LjUsNzkzLjk2NDQsODU2Ljg0NjcsNzk1Ljc4OTksODU1Ljk4ODksNzg5Ljg1MTUsODQ4LjUsNzkzLjk2NDQiIHN0eWxlPSJzdHJva2U6IzY2NjY2NjtzdHJva2Utd2lkdGg6MS4wOyIvPjx0ZXh0IGZpbGw9IiM2NjY2NjYiIGZvbnQtZmFtaWx5PSJzYW5zLXNlcmlmIiBmb250LXNpemU9IjEyIiBmb250LXdlaWdodD0iYm9sZCIgbGVuZ3RoQWRqdXN0PSJzcGFjaW5nIiB0ZXh0TGVuZ3RoPSIyNCIgeD0iMTM1MS41IiB5PSI3MjUuMzI4MSI+JiMzNTgzNTsmIzIwODg5OzwvdGV4dD48L2c+PCEtLWxpbmsgdXNlcl9zZXJ2aWNlIHRvIGNhY2hlLS0+PGcgaWQ9ImxpbmtfdXNlcl9zZXJ2aWNlX2NhY2hlIj48cGF0aCBkPSJNMTEyNy4zNyw2ODMuMjY0NCBDMTEyOC44MSw2OTcuNzA0NCAxMTMxLjUzLDcxMy4yNDQ0IDExMzYuNSw3MjYuOTg0NCBDMTE0MC4xOSw3MzcuMTk0NCAxMTQxLjMxNDQsNzQwLjU2OSAxMTQ3LjE1NDQsNzUwLjAxOSAiIGZpbGw9Im5vbmUiIGlkPSJ1c2VyX3NlcnZpY2UtdG8tY2FjaGUiIHN0eWxlPSJzdHJva2U6IzY2NjY2NjtzdHJva2Utd2lkdGg6MS4wOyIvPjxwb2x5Z29uIGZpbGw9IiM2NjY2NjYiIHBvaW50cz0iMTE1MS4zNiw3NTYuODI0NCwxMTQ5LjcwNjQsNzQ4LjQ0MTksMTE0NC42MDI0LDc1MS41OTYxLDExNTEuMzYsNzU2LjgyNDQiIHN0eWxlPSJzdHJva2U6IzY2NjY2NjtzdHJva2Utd2lkdGg6MS4wOyIvPjx0ZXh0IGZpbGw9IiM2NjY2NjYiIGZvbnQtZmFtaWx5PSJzYW5zLXNlcmlmIiBmb250LXNpemU9IjEyIiBmb250LXdlaWdodD0iYm9sZCIgbGVuZ3RoQWRqdXN0PSJzcGFjaW5nIiB0ZXh0TGVuZ3RoPSIyNCIgeD0iMTEzNy41IiB5PSI3MjUuMzI4MSI+JiMzNTgzNTsmIzIwODg5OzwvdGV4dD48L2c+PCEtLWxpbmsgY2F0X3NlcnZpY2UgdG8gY2FjaGUtLT48ZyBpZD0ibGlua19jYXRfc2VydmljZV9jYWNoZSI+PHBhdGggZD0iTTEyODkuNzgsNjgzLjIxNDQgQzEyNjkuOTgsNzA2LjQ5NDQgMTI1MS43ODMyLDcyNy45MDA2IDEyMzIuMzczMiw3NTAuNzIwNiAiIGZpbGw9Im5vbmUiIGlkPSJjYXRfc2VydmljZS10by1jYWNoZSIgc3R5bGU9InN0cm9rZTojNjY2NjY2O3N0cm9rZS13aWR0aDoxLjA7Ii8+PHBvbHlnb24gZmlsbD0iIzY2NjY2NiIgcG9pbnRzPSIxMjI3LjE5LDc1Ni44MTQ0LDEyMzQuNjU4NCw3NTIuNjY0MywxMjMwLjA4OCw3NDguNzc2OSwxMjI3LjE5LDc1Ni44MTQ0IiBzdHlsZT0ic3Ryb2tlOiM2NjY2NjY7c3Ryb2tlLXdpZHRoOjEuMDsiLz48dGV4dCBmaWxsPSIjNjY2NjY2IiBmb250LWZhbWlseT0ic2Fucy1zZXJpZiIgZm9udC1zaXplPSIxMiIgZm9udC13ZWlnaHQ9ImJvbGQiIGxlbmd0aEFkanVzdD0ic3BhY2luZyIgdGV4dExlbmd0aD0iMjQiIHg9IjEyNjQuNSIgeT0iNzI1LjMyODEiPiYjMzU4MzU7JiMyMDg4OTs8L3RleHQ+PC9nPjwhLS1saW5rIGNhdF9zZXJ2aWNlIHRvIHN0b3JhZ2UtLT48ZyBpZD0ibGlua19jYXRfc2VydmljZV9zdG9yYWdlIj48cGF0aCBkPSJNMTM3NC45Myw2ODMuMjE0NCBDMTM5NC41OSw3MDYuNDk0NCAxNDEyLjY0Nyw3MjcuODgzNCAxNDMxLjkyNyw3NTAuNzAzNCAiIGZpbGw9Im5vbmUiIGlkPSJjYXRfc2VydmljZS10by1zdG9yYWdlIiBzdHlsZT0ic3Ryb2tlOiM2NjY2NjY7c3Ryb2tlLXdpZHRoOjEuMDsiLz48cG9seWdvbiBmaWxsPSIjNjY2NjY2IiBwb2ludHM9IjE0MzcuMDksNzU2LjgxNDQsMTQzNC4yMTg2LDc0OC43NjczLDE0MjkuNjM1NCw3NTIuNjM5NSwxNDM3LjA5LDc1Ni44MTQ0IiBzdHlsZT0ic3Ryb2tlOiM2NjY2NjY7c3Ryb2tlLXdpZHRoOjEuMDsiLz48dGV4dCBmaWxsPSIjNjY2NjY2IiBmb250LWZhbWlseT0ic2Fucy1zZXJpZiIgZm9udC1zaXplPSIxMiIgZm9udC13ZWlnaHQ9ImJvbGQiIGxlbmd0aEFkanVzdD0ic3BhY2luZyIgdGV4dExlbmd0aD0iNzkiIHg9IjE0MDkuNSIgeT0iNzI1LjMyODEiPiYjMTk5Nzg7JiMyMDI1NjsvJiMxOTk3OTsmIzM2NzMzOyYjMjU5OTE7JiMyMDIxNDs8L3RleHQ+PC9nPjwhLS1saW5rIG5vdGljZV9zZXJ2aWNlIHRvIHN0b3JhZ2UtLT48ZyBpZD0ibGlua19ub3RpY2Vfc2VydmljZV9zdG9yYWdlIj48cGF0aCBkPSJNMTUyMC4yMyw2ODMuMjE0NCBDMTUxMS43Nyw3MDYuNDk0NCAxNTA0LjUwNDUsNzI2LjQ3NjIgMTQ5Ni4yMDQ1LDc0OS4yOTYyICIgZmlsbD0ibm9uZSIgaWQ9Im5vdGljZV9zZXJ2aWNlLXRvLXN0b3JhZ2UiIHN0eWxlPSJzdHJva2U6IzY2NjY2NjtzdHJva2Utd2lkdGg6MS4wOyIvPjxwb2x5Z29uIGZpbGw9IiM2NjY2NjYiIHBvaW50cz0iMTQ5My40Nyw3NTYuODE0NCwxNDk5LjAyMzgsNzUwLjMyMTYsMTQ5My4zODUyLDc0OC4yNzA4LDE0OTMuNDcsNzU2LjgxNDQiIHN0eWxlPSJzdHJva2U6IzY2NjY2NjtzdHJva2Utd2lkdGg6MS4wOyIvPjx0ZXh0IGZpbGw9IiM2NjY2NjYiIGZvbnQtZmFtaWx5PSJzYW5zLXNlcmlmIiBmb250LXNpemU9IjEyIiBmb250LXdlaWdodD0iYm9sZCIgbGVuZ3RoQWRqdXN0PSJzcGFjaW5nIiB0ZXh0TGVuZ3RoPSI3OSIgeD0iMTUwOS41IiB5PSI3MjUuMzI4MSI+JiMxOTk3ODsmIzIwMjU2Oy8mIzE5OTc5OyYjMzY3MzM7JiMyNTk5MTsmIzIwMjE0OzwvdGV4dD48L2c+PCEtLVNSQz1bWlBMOUp6ajA1Q1ZsLUhHazl3ZU1TY1hGbEhMUUxRcjBlZ0dqbnNYWWt5NkxPcVZFNjllUi1yUU0xMFlCQTNqak1LZzJuMVBZR1p2Q0ZNRnBCSmhaV00zN1ppV2JTY1AtX19UX3h5cVItdWNheUI4a1lCZWNTeHFHOWJFbG1jNER6QlY2OVRZaG5fSUtnRjZnMGFLNWpsOWc4Zm9LV0dCclhEb0lXZThpblNCakJya3d3REJkcGV2bTBnSVdnOTZiUTNqSDA0YUhqVE9hT0tDWEE0NVB2RjN2ODN1X2pBUUZTMndCZld4R3JJY1FFcTZQTVY5aHZSVWpwOVhyUWJaNjlqd3VtMWlaUUVxYzVFZUlqUElnRDBDWDhJZEZrSVA2ZVVuQTRfZDN2NnA5QjlOZXdqREc5NHJJSTRKVlZlVkROcEtkUk82WWFwRk1LTzZBbGtYWXd4U0tWUkJGRGtzcHRNZjRBcFR6a3h3M3ZnVkRxZnZQY2xVNjRjOTRXN0NkVTJRRklXakt0UGNFVkVubWlaWFVHS0Z4QjFUNlVBS3l1N2o1Y2xocjBhNmZlYmlLOTJTM2pjR0Q3cmozTHE3STU1R3I0QVRZbDNIazZYVkNZWWZWenFJdW8wa05fVGdEREpiRWFoVl9aRHRrUDRjT0tGSzRjYTVJWWlPMTVGajFjYWd4dGRETUVPajZKd2F5YWpHYTlTd3Jvd2VrU0V5T3ZBSGNSOWg1MFRPU1phaG14MnlxanFpMkwtRS1ZSkszN1ZQNm9OcHFJSnBEcWl4bHNPTDFGM2sxcnVWbnBuYXFqVXNvWThZeWhhYW1wSnRaRmxIeVFkOFZmaExnZTdCa3R5MFdxVHNrUGpYd1pIS1RHdlVMalJZRjlvdno5Y3NnMmViMVB4ZURtQmlVRXcxUHNTUTNYUzMwRjgya2sweUotZFplQWtrRUpnZjAtTXN5TFFvbndMRGJkS29aZm1YS01TT1o1TmpXajA2cEFjaWpkamc1SXM5WjZXT0gxVE80MTNLOTlMTG5VVHRrWkE1SGVtNFoxWjhOTWlkYTVWNm9Bc2tlekRrLXRCSUJYcExVMkpCREY5M1RQS3FScmo4b2stQURMRVIyTUlVZk9WdzRaNEhXU09BZ1c5aFl5NHA2Rmp6Z3ZDV1NhMEtkQmpSYVdOcS00a1lZZzkzNFRiU3ItWFRiZm5nZm5tN0hOMU9MWHdkN1ZWSEdqb1pWbHlYU2hvUXBOMjRwSWxSZnppRXd6ekJROXlDNGVYVW42aVl6TnRpRjdWZWtmMFVpa0tOckdVLWpnQ3k1Wk5MekVjMGt3eUYtbVFoRjFpbjRWVFh0ajVNS2lQdmNFY3ota3MyV2lUTXhNRHVVLWxTemhWRGwxdEpDM19hUnZNVHlfVjRaX2hSdWNUZmtVOGMwWWt5X1FGTUJ6WDUtdkU3SlBYUWRwRWtqaTVkeU9QVkJ4M2pOOXhEN0RGeTFdLS0+PC9nPjwvc3ZnPg==;clipPath=inset(0% 0% 0% 0%);" parent="1" vertex="1"><mxGeometry x="15" y="-688" width="1641" height="858.79" as="geometry"/></mxCell></UserObject><UserObject label="" plantUmlData="{&#10;  &quot;data&quot;: &quot;@startuml\n!includeurl https://raw.githubusercontent.com/plantuml-stdlib/C4-PlantUML/master/C4_Component.puml\n\ntitle 认证授权服务组件图\n\nContainer(auth_service, \&quot;认证授权服务\&quot;, \&quot;Spring Security + JWT\&quot;, \&quot;管理员登录、权限管理\&quot;) {\n  Component(auth_controller, \&quot;AuthController\&quot;, \&quot;处理登录、登出相关的请求\&quot;)\n  Component(role_controller, \&quot;RoleController\&quot;, \&quot;处理角色和权限相关的请求\&quot;)\n  \n  Component(auth_service_impl, \&quot;AuthServiceImpl\&quot;, \&quot;认证授权服务实现类\&quot;)\n  Component(role_service_impl, \&quot;RoleServiceImpl\&quot;, \&quot;角色服务实现类\&quot;)\n  \n  Component(admin_repository, \&quot;AdminRepository\&quot;, \&quot;管理员数据访问层\&quot;)\n  Component(role_repository, \&quot;RoleRepository\&quot;, \&quot;角色数据访问层\&quot;)\n\n  Rel(auth_controller, auth_service_impl, \&quot;调用\&quot;)\n  Rel(role_controller, role_service_impl, \&quot;调用\&quot;)\n\n  Rel(auth_service_impl, admin_repository, \&quot;调用\&quot;)\n  Rel(role_service_impl, role_repository, \&quot;调用\&quot;)\n}\n\n@enduml&quot;,&#10;  &quot;format&quot;: &quot;svg&quot;&#10;}" id="iwc2kgBUIP-5sk2xWvdT-2"><mxCell style="shape=image;noLabel=1;verticalAlign=top;aspect=fixed;imageAspect=0;image=data:image/svg+xml,PD94bWwgdmVyc2lvbj0iMS4wIiBlbmNvZGluZz0idXMtYXNjaWkiIHN0YW5kYWxvbmU9Im5vIj8+PHN2ZyB4bWxucz0iaHR0cDovL3d3dy53My5vcmcvMjAwMC9zdmciIHhtbG5zOnhsaW5rPSJodHRwOi8vd3d3LnczLm9yZy8xOTk5L3hsaW5rIiBjb250ZW50U3R5bGVUeXBlPSJ0ZXh0L2NzcyIgaGVpZ2h0PSI0OTJweCIgcHJlc2VydmVBc3BlY3RSYXRpbz0ibm9uZSIgc3R5bGU9IndpZHRoOjQzMnB4O2hlaWdodDo0OTJweDtiYWNrZ3JvdW5kOiNGRkZGRkY7IiB2ZXJzaW9uPSIxLjEiIHZpZXdCb3g9IjAgMCA0MzIgNDkyIiB3aWR0aD0iNDMycHgiIHpvb21BbmRQYW49Im1hZ25pZnkiPjxkZWZzLz48Zz48dGV4dCBmaWxsPSIjMDAwMDAwIiBmb250LWZhbWlseT0ic2Fucy1zZXJpZiIgZm9udC1zaXplPSIxNCIgZm9udC13ZWlnaHQ9ImJvbGQiIGxlbmd0aEFkanVzdD0ic3BhY2luZyIgdGV4dExlbmd0aD0iMTI2IiB4PSIxNDYiIHk9IjIzLjIzNDQiPiYjMzU3NDg7JiMzNTc3NzsmIzI1NDgwOyYjMjY0MzU7JiMyNjM4MTsmIzIxMTUzOyYjMzI0NTI7JiMyMDIxNDsmIzIyMjcwOzwvdGV4dD48IS0tY2x1c3RlciBhdXRoX3NlcnZpY2UtLT48ZyBpZD0iY2x1c3Rlcl9hdXRoX3NlcnZpY2UiPjxyZWN0IGZpbGw9IiM0MzhERDUiIGhlaWdodD0iNDQ0IiByeD0iMi41IiByeT0iMi41IiBzdHlsZT0ic3Ryb2tlOiMzQzdGQzA7c3Ryb2tlLXdpZHRoOjEuMDsiIHdpZHRoPSI0MTkiIHg9IjciIHk9IjQyLjk4NDQiLz48dGV4dCBmaWxsPSIjRkZGRkZGIiBmb250LWZhbWlseT0ic2Fucy1zZXJpZiIgZm9udC1zaXplPSIxMiIgZm9udC1zdHlsZT0iaXRhbGljIiBsZW5ndGhBZGp1c3Q9InNwYWNpbmciIHRleHRMZW5ndGg9IjcyIiB4PSIxODAuNSIgeT0iNTYuMzI4MSI+JiMxNzE7Y29udGFpbmVyJiMxODc7PC90ZXh0Pjx0ZXh0IGZpbGw9IiNGRkZGRkYiIGZvbnQtZmFtaWx5PSJzYW5zLXNlcmlmIiBmb250LXNpemU9IjE2IiBmb250LXdlaWdodD0iYm9sZCIgbGVuZ3RoQWRqdXN0PSJzcGFjaW5nIiB0ZXh0TGVuZ3RoPSI5NiIgeD0iMTY4LjUiIHk9IjcyLjk1MzEiPiYjMzU3NDg7JiMzNTc3NzsmIzI1NDgwOyYjMjY0MzU7JiMyNjM4MTsmIzIxMTUzOzwvdGV4dD48dGV4dCBmaWxsPSIjRkZGRkZGIiBmb250LWZhbWlseT0ic2Fucy1zZXJpZiIgZm9udC1zaXplPSIxMiIgZm9udC1zdHlsZT0iaXRhbGljIiBmb250LXdlaWdodD0iYm9sZCIgbGVuZ3RoQWRqdXN0PSJzcGFjaW5nIiB0ZXh0TGVuZ3RoPSIxNDkiIHg9IjE0MiIgeT0iODYuMjk2OSI+W1NwcmluZyBTZWN1cml0eSArIEpXVF08L3RleHQ+PHRleHQgZmlsbD0iI0ZGRkZGRiIgZm9udC1mYW1pbHk9InNhbnMtc2VyaWYiIGZvbnQtc2l6ZT0iMTQiIGZvbnQtd2VpZ2h0PSJib2xkIiBsZW5ndGhBZGp1c3Q9InNwYWNpbmciIHRleHRMZW5ndGg9IjciIHg9IjIxMyIgeT0iMTAxLjAzMTMiPiYjMTYwOzwvdGV4dD48dGV4dCBmaWxsPSIjRkZGRkZGIiBmb250LWZhbWlseT0ic2Fucy1zZXJpZiIgZm9udC1zaXplPSIxNCIgZm9udC13ZWlnaHQ9ImJvbGQiIGxlbmd0aEFkanVzdD0ic3BhY2luZyIgdGV4dExlbmd0aD0iMTQwIiB4PSIxNDYuNSIgeT0iMTE2LjAxNTYiPiYjMzE2NDk7JiMyOTcwMjsmIzIxNTkyOyYjMzAzMzE7JiMyNDQwNTsmIzEyMjg5OyYjMjY0MzU7JiMzODQ4MDsmIzMxNjQ5OyYjMjk3MDI7PC90ZXh0PjwvZz48IS0tZW50aXR5IGF1dGhfY29udHJvbGxlci0tPjxnIGlkPSJlbGVtX2F1dGhfY29udHJvbGxlciI+PHJlY3QgZmlsbD0iIzg1QkJGMCIgaGVpZ2h0PSI2Mi44MTI1IiByeD0iMi41IiByeT0iMi41IiBzdHlsZT0ic3Ryb2tlOiM3OEE4RDg7c3Ryb2tlLXdpZHRoOjAuNTsiIHdpZHRoPSIxNzYiIHg9IjIzNCIgeT0iMTMzLjk4NDQiLz48dGV4dCBmaWxsPSIjMDAwMDAwIiBmb250LWZhbWlseT0ic2Fucy1zZXJpZiIgZm9udC1zaXplPSIxMiIgZm9udC1zdHlsZT0iaXRhbGljIiBsZW5ndGhBZGp1c3Q9InNwYWNpbmciIHRleHRMZW5ndGg9IjcyIiB4PSIyODYiIHk9IjE1NS4zMjgxIj4mIzE3MTtjb21wb25lbnQmIzE4Nzs8L3RleHQ+PHRleHQgZmlsbD0iIzAwMDAwMCIgZm9udC1mYW1pbHk9InNhbnMtc2VyaWYiIGZvbnQtc2l6ZT0iMTYiIGZvbnQtd2VpZ2h0PSJib2xkIiBsZW5ndGhBZGp1c3Q9InNwYWNpbmciIHRleHRMZW5ndGg9IjExMiIgeD0iMjY2IiB5PSIxNzEuOTUzMSI+QXV0aENvbnRyb2xsZXI8L3RleHQ+PHRleHQgZmlsbD0iIzAwMDAwMCIgZm9udC1mYW1pbHk9InNhbnMtc2VyaWYiIGZvbnQtc2l6ZT0iMTIiIGZvbnQtc3R5bGU9Iml0YWxpYyIgbGVuZ3RoQWRqdXN0PSJzcGFjaW5nIiB0ZXh0TGVuZ3RoPSIxNTYiIHg9IjI0NCIgeT0iMTg1LjI5NjkiPlsmIzIyNzg4OyYjMjk3MDI7JiMzMDMzMTsmIzI0NDA1OyYjMTIyODk7JiMzMDMzMTsmIzIwOTg2OyYjMzA0NTY7JiMyMDg1MTsmIzMwMzQwOyYjMzU4MzE7JiMyNzcxNDtdPC90ZXh0PjwvZz48IS0tZW50aXR5IHJvbGVfY29udHJvbGxlci0tPjxnIGlkPSJlbGVtX3JvbGVfY29udHJvbGxlciI+PHJlY3QgZmlsbD0iIzg1QkJGMCIgaGVpZ2h0PSI2Mi44MTI1IiByeD0iMi41IiByeT0iMi41IiBzdHlsZT0ic3Ryb2tlOiM3OEE4RDg7c3Ryb2tlLXdpZHRoOjAuNTsiIHdpZHRoPSIxNzYiIHg9IjIzIiB5PSIxMzMuOTg0NCIvPjx0ZXh0IGZpbGw9IiMwMDAwMDAiIGZvbnQtZmFtaWx5PSJzYW5zLXNlcmlmIiBmb250LXNpemU9IjEyIiBmb250LXN0eWxlPSJpdGFsaWMiIGxlbmd0aEFkanVzdD0ic3BhY2luZyIgdGV4dExlbmd0aD0iNzIiIHg9Ijc1IiB5PSIxNTUuMzI4MSI+JiMxNzE7Y29tcG9uZW50JiMxODc7PC90ZXh0Pjx0ZXh0IGZpbGw9IiMwMDAwMDAiIGZvbnQtZmFtaWx5PSJzYW5zLXNlcmlmIiBmb250LXNpemU9IjE2IiBmb250LXdlaWdodD0iYm9sZCIgbGVuZ3RoQWRqdXN0PSJzcGFjaW5nIiB0ZXh0TGVuZ3RoPSIxMTIiIHg9IjU1IiB5PSIxNzEuOTUzMSI+Um9sZUNvbnRyb2xsZXI8L3RleHQ+PHRleHQgZmlsbD0iIzAwMDAwMCIgZm9udC1mYW1pbHk9InNhbnMtc2VyaWYiIGZvbnQtc2l6ZT0iMTIiIGZvbnQtc3R5bGU9Iml0YWxpYyIgbGVuZ3RoQWRqdXN0PSJzcGFjaW5nIiB0ZXh0TGVuZ3RoPSIxNTYiIHg9IjMzIiB5PSIxODUuMjk2OSI+WyYjMjI3ODg7JiMyOTcwMjsmIzM1MjgyOyYjMzMzOTQ7JiMyMTY0NDsmIzI2NDM1OyYjMzg0ODA7JiMzMDQ1NjsmIzIwODUxOyYjMzAzNDA7JiMzNTgzMTsmIzI3NzE0O108L3RleHQ+PC9nPjwhLS1lbnRpdHkgYXV0aF9zZXJ2aWNlX2ltcGwtLT48ZyBpZD0iZWxlbV9hdXRoX3NlcnZpY2VfaW1wbCI+PHJlY3QgZmlsbD0iIzg1QkJGMCIgaGVpZ2h0PSI2Mi44MTI1IiByeD0iMi41IiByeT0iMi41IiBzdHlsZT0ic3Ryb2tlOiM3OEE4RDg7c3Ryb2tlLXdpZHRoOjAuNTsiIHdpZHRoPSIxNDAiIHg9IjI1MiIgeT0iMjcwLjk4NDQiLz48dGV4dCBmaWxsPSIjMDAwMDAwIiBmb250LWZhbWlseT0ic2Fucy1zZXJpZiIgZm9udC1zaXplPSIxMiIgZm9udC1zdHlsZT0iaXRhbGljIiBsZW5ndGhBZGp1c3Q9InNwYWNpbmciIHRleHRMZW5ndGg9IjcyIiB4PSIyODYiIHk9IjI5Mi4zMjgxIj4mIzE3MTtjb21wb25lbnQmIzE4Nzs8L3RleHQ+PHRleHQgZmlsbD0iIzAwMDAwMCIgZm9udC1mYW1pbHk9InNhbnMtc2VyaWYiIGZvbnQtc2l6ZT0iMTYiIGZvbnQtd2VpZ2h0PSJib2xkIiBsZW5ndGhBZGp1c3Q9InNwYWNpbmciIHRleHRMZW5ndGg9IjEyMCIgeD0iMjYyIiB5PSIzMDguOTUzMSI+QXV0aFNlcnZpY2VJbXBsPC90ZXh0Pjx0ZXh0IGZpbGw9IiMwMDAwMDAiIGZvbnQtZmFtaWx5PSJzYW5zLXNlcmlmIiBmb250LXNpemU9IjEyIiBmb250LXN0eWxlPSJpdGFsaWMiIGxlbmd0aEFkanVzdD0ic3BhY2luZyIgdGV4dExlbmd0aD0iMTIwIiB4PSIyNjIiIHk9IjMyMi4yOTY5Ij5bJiMzNTc0ODsmIzM1Nzc3OyYjMjU0ODA7JiMyNjQzNTsmIzI2MzgxOyYjMjExNTM7JiMyMzQ1NDsmIzI5NjE2OyYjMzE4Njc7XTwvdGV4dD48L2c+PCEtLWVudGl0eSByb2xlX3NlcnZpY2VfaW1wbC0tPjxnIGlkPSJlbGVtX3JvbGVfc2VydmljZV9pbXBsIj48cmVjdCBmaWxsPSIjODVCQkYwIiBoZWlnaHQ9IjYyLjgxMjUiIHJ4PSIyLjUiIHJ5PSIyLjUiIHN0eWxlPSJzdHJva2U6Izc4QThEODtzdHJva2Utd2lkdGg6MC41OyIgd2lkdGg9IjE0MCIgeD0iNDEiIHk9IjI3MC45ODQ0Ii8+PHRleHQgZmlsbD0iIzAwMDAwMCIgZm9udC1mYW1pbHk9InNhbnMtc2VyaWYiIGZvbnQtc2l6ZT0iMTIiIGZvbnQtc3R5bGU9Iml0YWxpYyIgbGVuZ3RoQWRqdXN0PSJzcGFjaW5nIiB0ZXh0TGVuZ3RoPSI3MiIgeD0iNzUiIHk9IjI5Mi4zMjgxIj4mIzE3MTtjb21wb25lbnQmIzE4Nzs8L3RleHQ+PHRleHQgZmlsbD0iIzAwMDAwMCIgZm9udC1mYW1pbHk9InNhbnMtc2VyaWYiIGZvbnQtc2l6ZT0iMTYiIGZvbnQtd2VpZ2h0PSJib2xkIiBsZW5ndGhBZGp1c3Q9InNwYWNpbmciIHRleHRMZW5ndGg9IjEyMCIgeD0iNTEiIHk9IjMwOC45NTMxIj5Sb2xlU2VydmljZUltcGw8L3RleHQ+PHRleHQgZmlsbD0iIzAwMDAwMCIgZm9udC1mYW1pbHk9InNhbnMtc2VyaWYiIGZvbnQtc2l6ZT0iMTIiIGZvbnQtc3R5bGU9Iml0YWxpYyIgbGVuZ3RoQWRqdXN0PSJzcGFjaW5nIiB0ZXh0TGVuZ3RoPSI5NiIgeD0iNjMiIHk9IjMyMi4yOTY5Ij5bJiMzNTI4MjsmIzMzMzk0OyYjMjYzODE7JiMyMTE1MzsmIzIzNDU0OyYjMjk2MTY7JiMzMTg2NztdPC90ZXh0PjwvZz48IS0tZW50aXR5IGFkbWluX3JlcG9zaXRvcnktLT48ZyBpZD0iZWxlbV9hZG1pbl9yZXBvc2l0b3J5Ij48cmVjdCBmaWxsPSIjODVCQkYwIiBoZWlnaHQ9IjYyLjgxMjUiIHJ4PSIyLjUiIHJ5PSIyLjUiIHN0eWxlPSJzdHJva2U6Izc4QThEODtzdHJva2Utd2lkdGg6MC41OyIgd2lkdGg9IjE0MCIgeD0iMjUyIiB5PSI0MDcuOTg0NCIvPjx0ZXh0IGZpbGw9IiMwMDAwMDAiIGZvbnQtZmFtaWx5PSJzYW5zLXNlcmlmIiBmb250LXNpemU9IjEyIiBmb250LXN0eWxlPSJpdGFsaWMiIGxlbmd0aEFkanVzdD0ic3BhY2luZyIgdGV4dExlbmd0aD0iNzIiIHg9IjI4NiIgeT0iNDI5LjMyODEiPiYjMTcxO2NvbXBvbmVudCYjMTg3OzwvdGV4dD48dGV4dCBmaWxsPSIjMDAwMDAwIiBmb250LWZhbWlseT0ic2Fucy1zZXJpZiIgZm9udC1zaXplPSIxNiIgZm9udC13ZWlnaHQ9ImJvbGQiIGxlbmd0aEFkanVzdD0ic3BhY2luZyIgdGV4dExlbmd0aD0iMTIwIiB4PSIyNjIiIHk9IjQ0NS45NTMxIj5BZG1pblJlcG9zaXRvcnk8L3RleHQ+PHRleHQgZmlsbD0iIzAwMDAwMCIgZm9udC1mYW1pbHk9InNhbnMtc2VyaWYiIGZvbnQtc2l6ZT0iMTIiIGZvbnQtc3R5bGU9Iml0YWxpYyIgbGVuZ3RoQWRqdXN0PSJzcGFjaW5nIiB0ZXh0TGVuZ3RoPSIxMDgiIHg9IjI2OCIgeT0iNDU5LjI5NjkiPlsmIzMxNjQ5OyYjMjk3MDI7JiMyMTU5MjsmIzI1OTY4OyYjMjU0NTQ7JiMzNTc3NTsmIzM4MzgyOyYjMjM2MTg7XTwvdGV4dD48L2c+PCEtLWVudGl0eSByb2xlX3JlcG9zaXRvcnktLT48ZyBpZD0iZWxlbV9yb2xlX3JlcG9zaXRvcnkiPjxyZWN0IGZpbGw9IiM4NUJCRjAiIGhlaWdodD0iNjIuODEyNSIgcng9IjIuNSIgcnk9IjIuNSIgc3R5bGU9InN0cm9rZTojNzhBOEQ4O3N0cm9rZS13aWR0aDowLjU7IiB3aWR0aD0iMTMyIiB4PSI0NSIgeT0iNDA3Ljk4NDQiLz48dGV4dCBmaWxsPSIjMDAwMDAwIiBmb250LWZhbWlseT0ic2Fucy1zZXJpZiIgZm9udC1zaXplPSIxMiIgZm9udC1zdHlsZT0iaXRhbGljIiBsZW5ndGhBZGp1c3Q9InNwYWNpbmciIHRleHRMZW5ndGg9IjcyIiB4PSI3NSIgeT0iNDI5LjMyODEiPiYjMTcxO2NvbXBvbmVudCYjMTg3OzwvdGV4dD48dGV4dCBmaWxsPSIjMDAwMDAwIiBmb250LWZhbWlseT0ic2Fucy1zZXJpZiIgZm9udC1zaXplPSIxNiIgZm9udC13ZWlnaHQ9ImJvbGQiIGxlbmd0aEFkanVzdD0ic3BhY2luZyIgdGV4dExlbmd0aD0iMTEyIiB4PSI1NSIgeT0iNDQ1Ljk1MzEiPlJvbGVSZXBvc2l0b3J5PC90ZXh0Pjx0ZXh0IGZpbGw9IiMwMDAwMDAiIGZvbnQtZmFtaWx5PSJzYW5zLXNlcmlmIiBmb250LXNpemU9IjEyIiBmb250LXN0eWxlPSJpdGFsaWMiIGxlbmd0aEFkanVzdD0ic3BhY2luZyIgdGV4dExlbmd0aD0iOTYiIHg9IjYzIiB5PSI0NTkuMjk2OSI+WyYjMzUyODI7JiMzMzM5NDsmIzI1OTY4OyYjMjU0NTQ7JiMzNTc3NTsmIzM4MzgyOyYjMjM2MTg7XTwvdGV4dD48L2c+PCEtLWxpbmsgYXV0aF9jb250cm9sbGVyIHRvIGF1dGhfc2VydmljZV9pbXBsLS0+PGcgaWQ9ImxpbmtfYXV0aF9jb250cm9sbGVyX2F1dGhfc2VydmljZV9pbXBsIj48cGF0aCBkPSJNMzIyLDE5Ny4xMTQ0IEMzMjIsMjE5LjIxNDQgMzIyLDI0MC45MDQ0IDMyMiwyNjIuOTc0NCAiIGZpbGw9Im5vbmUiIGlkPSJhdXRoX2NvbnRyb2xsZXItdG8tYXV0aF9zZXJ2aWNlX2ltcGwiIHN0eWxlPSJzdHJva2U6IzY2NjY2NjtzdHJva2Utd2lkdGg6MS4wOyIvPjxwb2x5Z29uIGZpbGw9IiM2NjY2NjYiIHBvaW50cz0iMzIyLDI3MC45NzQ0LDMyNSwyNjIuOTc0NCwzMTksMjYyLjk3NDQsMzIyLDI3MC45NzQ0IiBzdHlsZT0ic3Ryb2tlOiM2NjY2NjY7c3Ryb2tlLXdpZHRoOjEuMDsiLz48dGV4dCBmaWxsPSIjNjY2NjY2IiBmb250LWZhbWlseT0ic2Fucy1zZXJpZiIgZm9udC1zaXplPSIxMiIgZm9udC13ZWlnaHQ9ImJvbGQiIGxlbmd0aEFkanVzdD0ic3BhY2luZyIgdGV4dExlbmd0aD0iMjQiIHg9IjMyMyIgeT0iMjM5LjMyODEiPiYjMzU4NDM7JiMyOTk5Mjs8L3RleHQ+PC9nPjwhLS1saW5rIHJvbGVfY29udHJvbGxlciB0byByb2xlX3NlcnZpY2VfaW1wbC0tPjxnIGlkPSJsaW5rX3JvbGVfY29udHJvbGxlcl9yb2xlX3NlcnZpY2VfaW1wbCI+PHBhdGggZD0iTTExMSwxOTcuMTE0NCBDMTExLDIxOS4yMTQ0IDExMSwyNDAuOTA0NCAxMTEsMjYyLjk3NDQgIiBmaWxsPSJub25lIiBpZD0icm9sZV9jb250cm9sbGVyLXRvLXJvbGVfc2VydmljZV9pbXBsIiBzdHlsZT0ic3Ryb2tlOiM2NjY2NjY7c3Ryb2tlLXdpZHRoOjEuMDsiLz48cG9seWdvbiBmaWxsPSIjNjY2NjY2IiBwb2ludHM9IjExMSwyNzAuOTc0NCwxMTQsMjYyLjk3NDQsMTA4LDI2Mi45NzQ0LDExMSwyNzAuOTc0NCIgc3R5bGU9InN0cm9rZTojNjY2NjY2O3N0cm9rZS13aWR0aDoxLjA7Ii8+PHRleHQgZmlsbD0iIzY2NjY2NiIgZm9udC1mYW1pbHk9InNhbnMtc2VyaWYiIGZvbnQtc2l6ZT0iMTIiIGZvbnQtd2VpZ2h0PSJib2xkIiBsZW5ndGhBZGp1c3Q9InNwYWNpbmciIHRleHRMZW5ndGg9IjI0IiB4PSIxMTIiIHk9IjIzOS4zMjgxIj4mIzM1ODQzOyYjMjk5OTI7PC90ZXh0PjwvZz48IS0tbGluayBhdXRoX3NlcnZpY2VfaW1wbCB0byBhZG1pbl9yZXBvc2l0b3J5LS0+PGcgaWQ9ImxpbmtfYXV0aF9zZXJ2aWNlX2ltcGxfYWRtaW5fcmVwb3NpdG9yeSI+PHBhdGggZD0iTTMyMiwzMzQuMTE0NCBDMzIyLDM1Ni4yMTQ0IDMyMiwzNzcuOTA0NCAzMjIsMzk5Ljk3NDQgIiBmaWxsPSJub25lIiBpZD0iYXV0aF9zZXJ2aWNlX2ltcGwtdG8tYWRtaW5fcmVwb3NpdG9yeSIgc3R5bGU9InN0cm9rZTojNjY2NjY2O3N0cm9rZS13aWR0aDoxLjA7Ii8+PHBvbHlnb24gZmlsbD0iIzY2NjY2NiIgcG9pbnRzPSIzMjIsNDA3Ljk3NDQsMzI1LDM5OS45NzQ0LDMxOSwzOTkuOTc0NCwzMjIsNDA3Ljk3NDQiIHN0eWxlPSJzdHJva2U6IzY2NjY2NjtzdHJva2Utd2lkdGg6MS4wOyIvPjx0ZXh0IGZpbGw9IiM2NjY2NjYiIGZvbnQtZmFtaWx5PSJzYW5zLXNlcmlmIiBmb250LXNpemU9IjEyIiBmb250LXdlaWdodD0iYm9sZCIgbGVuZ3RoQWRqdXN0PSJzcGFjaW5nIiB0ZXh0TGVuZ3RoPSIyNCIgeD0iMzIzIiB5PSIzNzYuMzI4MSI+JiMzNTg0MzsmIzI5OTkyOzwvdGV4dD48L2c+PCEtLWxpbmsgcm9sZV9zZXJ2aWNlX2ltcGwgdG8gcm9sZV9yZXBvc2l0b3J5LS0+PGcgaWQ9Imxpbmtfcm9sZV9zZXJ2aWNlX2ltcGxfcm9sZV9yZXBvc2l0b3J5Ij48cGF0aCBkPSJNMTExLDMzNC4xMTQ0IEMxMTEsMzU2LjIxNDQgMTExLDM3Ny45MDQ0IDExMSwzOTkuOTc0NCAiIGZpbGw9Im5vbmUiIGlkPSJyb2xlX3NlcnZpY2VfaW1wbC10by1yb2xlX3JlcG9zaXRvcnkiIHN0eWxlPSJzdHJva2U6IzY2NjY2NjtzdHJva2Utd2lkdGg6MS4wOyIvPjxwb2x5Z29uIGZpbGw9IiM2NjY2NjYiIHBvaW50cz0iMTExLDQwNy45NzQ0LDExNCwzOTkuOTc0NCwxMDgsMzk5Ljk3NDQsMTExLDQwNy45NzQ0IiBzdHlsZT0ic3Ryb2tlOiM2NjY2NjY7c3Ryb2tlLXdpZHRoOjEuMDsiLz48dGV4dCBmaWxsPSIjNjY2NjY2IiBmb250LWZhbWlseT0ic2Fucy1zZXJpZiIgZm9udC1zaXplPSIxMiIgZm9udC13ZWlnaHQ9ImJvbGQiIGxlbmd0aEFkanVzdD0ic3BhY2luZyIgdGV4dExlbmd0aD0iMjQiIHg9IjExMiIgeT0iMzc2LjMyODEiPiYjMzU4NDM7JiMyOTk5Mjs8L3RleHQ+PC9nPjwhLS1TUkM9W1JQN0RJeUNtMENObF9JallKdWhFTlpudmF2cUsxVGFLWndEc09Ha2E3d0lmOFlCdUNKekhLTDVxSldMMXE1Q3Q1TEdTd1gtWlFVZl9PVTk2aUpRdHlmaHRVb3lsRlNZblM1MjYwUzZXSWdkZDNuaTZDVVM3QXVYTVd6ZDBYeUhvN0dlVEVjWXZqazVYcXc2MVpOQy1CTUNxUS1JN1NmREljZnVPRHNwSmZ2MDhnUEh0UlN6cmZDU0pQcE1EOGVlWFlDRVJrQmFJeE16NWJzbEhuSHhSa1VSanNiVnhZSk5VRElxbEdhcGFHRDloMWhIUTRoNXBvODgzR0Mtd1RBNE1GT0FTMllYMkFvMjhCZTEtQzNPcDlOX215OWVWUkIzM0NydmxpeFVKcC1LTHVWa2s3dEhxbEd5aVFXMGFfSmZYeWVCNG5IV0kwSFdISVp1SDk5QlRyOEdydVNjRnBMVlVVNjdoWl9veTVaVVZlX2pMbEktNTVNUU9uWFE0ZWlCNmpxVm56V0N4c2t0TUw2MnBYUmxoYjkzanVNeGJPYVNRNU9na044czVMdG9fblVfUmdnaF9XQkJpVi0xbEpuS2dOUXppOHdUNGVFVndZQmZhR1JRSktZNUhLZXlLZFJJWWxKMEVGeHZGR3dQVUNTTUluVEFlUmd5Q0h1MEE0NlZWTHhMVnQ1aFpudFVfdVRBSlVKcExIOGRkUnIzd1o2OEJMTEJRYkJycHViZHcwRzAwXS0tPjwvZz48L3N2Zz4=;" parent="1" vertex="1"><mxGeometry x="10" y="246" width="432" height="492" as="geometry"/></mxCell></UserObject><UserObject label="" plantUmlData="{&#10;  &quot;data&quot;: &quot;@startuml\n!includeurl https://raw.githubusercontent.com/plantuml-stdlib/C4-PlantUML/master/C4_Component.puml\n\ntitle 公告服务组件图\n\nContainer(notice_service, \&quot;公告服务\&quot;, \&quot;Spring Boot + MyBatis\&quot;, \&quot;公告发布、管理\&quot;) {\n  Component(notice_controller, \&quot;NoticeController\&quot;, \&quot;处理公告相关的请求 (发布、编辑、删除、查看)\&quot;)\n  \n  Component(notice_service_impl, \&quot;NoticeServiceImpl\&quot;, \&quot;公告服务实现类\&quot;)\n  Component(notice_repository, \&quot;NoticeRepository\&quot;, \&quot;公告数据访问层\&quot;)\n\n  Rel(notice_controller, notice_service_impl, \&quot;调用\&quot;)\n  Rel(notice_service_impl, notice_repository, \&quot;调用\&quot;)\n}\n\n@enduml&quot;,&#10;  &quot;format&quot;: &quot;svg&quot;&#10;}" id="iwc2kgBUIP-5sk2xWvdT-3"><mxCell style="shape=image;noLabel=1;verticalAlign=top;aspect=fixed;imageAspect=0;image=data:image/svg+xml,PD94bWwgdmVyc2lvbj0iMS4wIiBlbmNvZGluZz0idXMtYXNjaWkiIHN0YW5kYWxvbmU9Im5vIj8+PHN2ZyB4bWxucz0iaHR0cDovL3d3dy53My5vcmcvMjAwMC9zdmciIHhtbG5zOnhsaW5rPSJodHRwOi8vd3d3LnczLm9yZy8xOTk5L3hsaW5rIiBjb250ZW50U3R5bGVUeXBlPSJ0ZXh0L2NzcyIgaGVpZ2h0PSI1MDVweCIgcHJlc2VydmVBc3BlY3RSYXRpbz0ibm9uZSIgc3R5bGU9IndpZHRoOjIxNXB4O2hlaWdodDo1MDVweDtiYWNrZ3JvdW5kOiNGRkZGRkY7IiB2ZXJzaW9uPSIxLjEiIHZpZXdCb3g9IjAgMCAyMTUgNTA1IiB3aWR0aD0iMjE1cHgiIHpvb21BbmRQYW49Im1hZ25pZnkiPjxkZWZzLz48Zz48dGV4dCBmaWxsPSIjMDAwMDAwIiBmb250LWZhbWlseT0ic2Fucy1zZXJpZiIgZm9udC1zaXplPSIxNCIgZm9udC13ZWlnaHQ9ImJvbGQiIGxlbmd0aEFkanVzdD0ic3BhY2luZyIgdGV4dExlbmd0aD0iOTgiIHg9IjUxLjUiIHk9IjIzLjIzNDQiPiYjMjA4NDQ7JiMyMTU3ODsmIzI2MzgxOyYjMjExNTM7JiMzMjQ1MjsmIzIwMjE0OyYjMjIyNzA7PC90ZXh0PjwhLS1jbHVzdGVyIG5vdGljZV9zZXJ2aWNlLS0+PGcgaWQ9ImNsdXN0ZXJfbm90aWNlX3NlcnZpY2UiPjxyZWN0IGZpbGw9IiM0MzhERDUiIGhlaWdodD0iNDU3IiByeD0iMi41IiByeT0iMi41IiBzdHlsZT0ic3Ryb2tlOiMzQzdGQzA7c3Ryb2tlLXdpZHRoOjEuMDsiIHdpZHRoPSIyMDIiIHg9IjciIHk9IjQyLjk4NDQiLz48dGV4dCBmaWxsPSIjRkZGRkZGIiBmb250LWZhbWlseT0ic2Fucy1zZXJpZiIgZm9udC1zaXplPSIxMiIgZm9udC1zdHlsZT0iaXRhbGljIiBsZW5ndGhBZGp1c3Q9InNwYWNpbmciIHRleHRMZW5ndGg9IjcyIiB4PSI3MiIgeT0iNTYuMzI4MSI+JiMxNzE7Y29udGFpbmVyJiMxODc7PC90ZXh0Pjx0ZXh0IGZpbGw9IiNGRkZGRkYiIGZvbnQtZmFtaWx5PSJzYW5zLXNlcmlmIiBmb250LXNpemU9IjE2IiBmb250LXdlaWdodD0iYm9sZCIgbGVuZ3RoQWRqdXN0PSJzcGFjaW5nIiB0ZXh0TGVuZ3RoPSI2NCIgeD0iNzYiIHk9IjcyLjk1MzEiPiYjMjA4NDQ7JiMyMTU3ODsmIzI2MzgxOyYjMjExNTM7PC90ZXh0Pjx0ZXh0IGZpbGw9IiNGRkZGRkYiIGZvbnQtZmFtaWx5PSJzYW5zLXNlcmlmIiBmb250LXNpemU9IjEyIiBmb250LXN0eWxlPSJpdGFsaWMiIGZvbnQtd2VpZ2h0PSJib2xkIiBsZW5ndGhBZGp1c3Q9InNwYWNpbmciIHRleHRMZW5ndGg9IjE1MSIgeD0iMzIuNSIgeT0iODYuMjk2OSI+W1NwcmluZyBCb290ICsgTXlCYXRpc108L3RleHQ+PHRleHQgZmlsbD0iI0ZGRkZGRiIgZm9udC1mYW1pbHk9InNhbnMtc2VyaWYiIGZvbnQtc2l6ZT0iMTQiIGZvbnQtd2VpZ2h0PSJib2xkIiBsZW5ndGhBZGp1c3Q9InNwYWNpbmciIHRleHRMZW5ndGg9IjciIHg9IjEwNC41IiB5PSIxMDEuMDMxMyI+JiMxNjA7PC90ZXh0Pjx0ZXh0IGZpbGw9IiNGRkZGRkYiIGZvbnQtZmFtaWx5PSJzYW5zLXNlcmlmIiBmb250LXNpemU9IjE0IiBmb250LXdlaWdodD0iYm9sZCIgbGVuZ3RoQWRqdXN0PSJzcGFjaW5nIiB0ZXh0TGVuZ3RoPSI5OCIgeD0iNTkiIHk9IjExNi4wMTU2Ij4mIzIwODQ0OyYjMjE1Nzg7JiMyMTQ1NzsmIzI0MDY3OyYjMTIyODk7JiMzMTY0OTsmIzI5NzAyOzwvdGV4dD48L2c+PCEtLWVudGl0eSBub3RpY2VfY29udHJvbGxlci0tPjxnIGlkPSJlbGVtX25vdGljZV9jb250cm9sbGVyIj48cmVjdCBmaWxsPSIjODVCQkYwIiBoZWlnaHQ9Ijc1LjY1NjMiIHJ4PSIyLjUiIHJ5PSIyLjUiIHN0eWxlPSJzdHJva2U6Izc4QThEODtzdHJva2Utd2lkdGg6MC41OyIgd2lkdGg9IjE3MCIgeD0iMjMiIHk9IjEzMy45ODQ0Ii8+PHRleHQgZmlsbD0iIzAwMDAwMCIgZm9udC1mYW1pbHk9InNhbnMtc2VyaWYiIGZvbnQtc2l6ZT0iMTIiIGZvbnQtc3R5bGU9Iml0YWxpYyIgbGVuZ3RoQWRqdXN0PSJzcGFjaW5nIiB0ZXh0TGVuZ3RoPSI3MiIgeD0iNzIiIHk9IjE1NS4zMjgxIj4mIzE3MTtjb21wb25lbnQmIzE4Nzs8L3RleHQ+PHRleHQgZmlsbD0iIzAwMDAwMCIgZm9udC1mYW1pbHk9InNhbnMtc2VyaWYiIGZvbnQtc2l6ZT0iMTYiIGZvbnQtd2VpZ2h0PSJib2xkIiBsZW5ndGhBZGp1c3Q9InNwYWNpbmciIHRleHRMZW5ndGg9IjEyOCIgeD0iNDQiIHk9IjE3MS45NTMxIj5Ob3RpY2VDb250cm9sbGVyPC90ZXh0Pjx0ZXh0IGZpbGw9IiMwMDAwMDAiIGZvbnQtZmFtaWx5PSJzYW5zLXNlcmlmIiBmb250LXNpemU9IjEyIiBmb250LXN0eWxlPSJpdGFsaWMiIGxlbmd0aEFkanVzdD0ic3BhY2luZyIgdGV4dExlbmd0aD0iMTE0IiB4PSI1MSIgeT0iMTg1LjI5NjkiPlsmIzIyNzg4OyYjMjk3MDI7JiMyMDg0NDsmIzIxNTc4OyYjMzA0NTY7JiMyMDg1MTsmIzMwMzQwOyYjMzU4MzE7JiMyNzcxNDs8L3RleHQ+PHRleHQgZmlsbD0iIzAwMDAwMCIgZm9udC1mYW1pbHk9InNhbnMtc2VyaWYiIGZvbnQtc2l6ZT0iMTIiIGZvbnQtc3R5bGU9Iml0YWxpYyIgbGVuZ3RoQWRqdXN0PSJzcGFjaW5nIiB0ZXh0TGVuZ3RoPSIxNTAiIHg9IjMzIiB5PSIxOTguMTQwNiI+KCYjMjE0NTc7JiMyNDA2NzsmIzEyMjg5OyYjMzI1MzQ7JiMzNjc1MzsmIzEyMjg5OyYjMjEwMjQ7JiMzODUwMDsmIzEyMjg5OyYjMjY1OTc7JiMzMDQ3NTspXTwvdGV4dD48L2c+PCEtLWVudGl0eSBub3RpY2Vfc2VydmljZV9pbXBsLS0+PGcgaWQ9ImVsZW1fbm90aWNlX3NlcnZpY2VfaW1wbCI+PHJlY3QgZmlsbD0iIzg1QkJGMCIgaGVpZ2h0PSI2Mi44MTI1IiByeD0iMi41IiByeT0iMi41IiBzdHlsZT0ic3Ryb2tlOiM3OEE4RDg7c3Ryb2tlLXdpZHRoOjAuNTsiIHdpZHRoPSIxNTYiIHg9IjMwIiB5PSIyODMuOTg0NCIvPjx0ZXh0IGZpbGw9IiMwMDAwMDAiIGZvbnQtZmFtaWx5PSJzYW5zLXNlcmlmIiBmb250LXNpemU9IjEyIiBmb250LXN0eWxlPSJpdGFsaWMiIGxlbmd0aEFkanVzdD0ic3BhY2luZyIgdGV4dExlbmd0aD0iNzIiIHg9IjcyIiB5PSIzMDUuMzI4MSI+JiMxNzE7Y29tcG9uZW50JiMxODc7PC90ZXh0Pjx0ZXh0IGZpbGw9IiMwMDAwMDAiIGZvbnQtZmFtaWx5PSJzYW5zLXNlcmlmIiBmb250LXNpemU9IjE2IiBmb250LXdlaWdodD0iYm9sZCIgbGVuZ3RoQWRqdXN0PSJzcGFjaW5nIiB0ZXh0TGVuZ3RoPSIxMzYiIHg9IjQwIiB5PSIzMjEuOTUzMSI+Tm90aWNlU2VydmljZUltcGw8L3RleHQ+PHRleHQgZmlsbD0iIzAwMDAwMCIgZm9udC1mYW1pbHk9InNhbnMtc2VyaWYiIGZvbnQtc2l6ZT0iMTIiIGZvbnQtc3R5bGU9Iml0YWxpYyIgbGVuZ3RoQWRqdXN0PSJzcGFjaW5nIiB0ZXh0TGVuZ3RoPSI5NiIgeD0iNjAiIHk9IjMzNS4yOTY5Ij5bJiMyMDg0NDsmIzIxNTc4OyYjMjYzODE7JiMyMTE1MzsmIzIzNDU0OyYjMjk2MTY7JiMzMTg2NztdPC90ZXh0PjwvZz48IS0tZW50aXR5IG5vdGljZV9yZXBvc2l0b3J5LS0+PGcgaWQ9ImVsZW1fbm90aWNlX3JlcG9zaXRvcnkiPjxyZWN0IGZpbGw9IiM4NUJCRjAiIGhlaWdodD0iNjIuODEyNSIgcng9IjIuNSIgcnk9IjIuNSIgc3R5bGU9InN0cm9rZTojNzhBOEQ4O3N0cm9rZS13aWR0aDowLjU7IiB3aWR0aD0iMTQ4IiB4PSIzNCIgeT0iNDIwLjk4NDQiLz48dGV4dCBmaWxsPSIjMDAwMDAwIiBmb250LWZhbWlseT0ic2Fucy1zZXJpZiIgZm9udC1zaXplPSIxMiIgZm9udC1zdHlsZT0iaXRhbGljIiBsZW5ndGhBZGp1c3Q9InNwYWNpbmciIHRleHRMZW5ndGg9IjcyIiB4PSI3MiIgeT0iNDQyLjMyODEiPiYjMTcxO2NvbXBvbmVudCYjMTg3OzwvdGV4dD48dGV4dCBmaWxsPSIjMDAwMDAwIiBmb250LWZhbWlseT0ic2Fucy1zZXJpZiIgZm9udC1zaXplPSIxNiIgZm9udC13ZWlnaHQ9ImJvbGQiIGxlbmd0aEFkanVzdD0ic3BhY2luZyIgdGV4dExlbmd0aD0iMTI4IiB4PSI0NCIgeT0iNDU4Ljk1MzEiPk5vdGljZVJlcG9zaXRvcnk8L3RleHQ+PHRleHQgZmlsbD0iIzAwMDAwMCIgZm9udC1mYW1pbHk9InNhbnMtc2VyaWYiIGZvbnQtc2l6ZT0iMTIiIGZvbnQtc3R5bGU9Iml0YWxpYyIgbGVuZ3RoQWRqdXN0PSJzcGFjaW5nIiB0ZXh0TGVuZ3RoPSI5NiIgeD0iNjAiIHk9IjQ3Mi4yOTY5Ij5bJiMyMDg0NDsmIzIxNTc4OyYjMjU5Njg7JiMyNTQ1NDsmIzM1Nzc1OyYjMzgzODI7JiMyMzYxODtdPC90ZXh0PjwvZz48IS0tbGluayBub3RpY2VfY29udHJvbGxlciB0byBub3RpY2Vfc2VydmljZV9pbXBsLS0+PGcgaWQ9Imxpbmtfbm90aWNlX2NvbnRyb2xsZXJfbm90aWNlX3NlcnZpY2VfaW1wbCI+PHBhdGggZD0iTTEwOCwyMTAuMTY0NCBDMTA4LDIzMy4wODQ0IDEwOCwyNTQuMTQ0NCAxMDgsMjc1Ljc1NDQgIiBmaWxsPSJub25lIiBpZD0ibm90aWNlX2NvbnRyb2xsZXItdG8tbm90aWNlX3NlcnZpY2VfaW1wbCIgc3R5bGU9InN0cm9rZTojNjY2NjY2O3N0cm9rZS13aWR0aDoxLjA7Ii8+PHBvbHlnb24gZmlsbD0iIzY2NjY2NiIgcG9pbnRzPSIxMDgsMjgzLjc1NDQsMTExLDI3NS43NTQ0LDEwNSwyNzUuNzU0NCwxMDgsMjgzLjc1NDQiIHN0eWxlPSJzdHJva2U6IzY2NjY2NjtzdHJva2Utd2lkdGg6MS4wOyIvPjx0ZXh0IGZpbGw9IiM2NjY2NjYiIGZvbnQtZmFtaWx5PSJzYW5zLXNlcmlmIiBmb250LXNpemU9IjEyIiBmb250LXdlaWdodD0iYm9sZCIgbGVuZ3RoQWRqdXN0PSJzcGFjaW5nIiB0ZXh0TGVuZ3RoPSIyNCIgeD0iMTA5IiB5PSIyNTIuMzI4MSI+JiMzNTg0MzsmIzI5OTkyOzwvdGV4dD48L2c+PCEtLWxpbmsgbm90aWNlX3NlcnZpY2VfaW1wbCB0byBub3RpY2VfcmVwb3NpdG9yeS0tPjxnIGlkPSJsaW5rX25vdGljZV9zZXJ2aWNlX2ltcGxfbm90aWNlX3JlcG9zaXRvcnkiPjxwYXRoIGQ9Ik0xMDgsMzQ3LjExNDQgQzEwOCwzNjkuMjE0NCAxMDgsMzkwLjkwNDQgMTA4LDQxMi45NzQ0ICIgZmlsbD0ibm9uZSIgaWQ9Im5vdGljZV9zZXJ2aWNlX2ltcGwtdG8tbm90aWNlX3JlcG9zaXRvcnkiIHN0eWxlPSJzdHJva2U6IzY2NjY2NjtzdHJva2Utd2lkdGg6MS4wOyIvPjxwb2x5Z29uIGZpbGw9IiM2NjY2NjYiIHBvaW50cz0iMTA4LDQyMC45NzQ0LDExMSw0MTIuOTc0NCwxMDUsNDEyLjk3NDQsMTA4LDQyMC45NzQ0IiBzdHlsZT0ic3Ryb2tlOiM2NjY2NjY7c3Ryb2tlLXdpZHRoOjEuMDsiLz48dGV4dCBmaWxsPSIjNjY2NjY2IiBmb250LWZhbWlseT0ic2Fucy1zZXJpZiIgZm9udC1zaXplPSIxMiIgZm9udC13ZWlnaHQ9ImJvbGQiIGxlbmd0aEFkanVzdD0ic3BhY2luZyIgdGV4dExlbmd0aD0iMjQiIHg9IjEwOSIgeT0iMzg5LjMyODEiPiYjMzU4NDM7JiMyOTk5Mjs8L3RleHQ+PC9nPjwhLS1TUkM9W1JQMURJbTkxN0NSbC1vY2NGSWNiVS1kS0tLejFIWVlUUExxNzZ2WlRNTVBkMnVjV1Y4YW1oOEhVQUFLSTMzaDRmV0diNkZQWFFmcHJNcEhnUkxRVVBrUlhfX29VdnB6cG8zQW1jdUtrbk0yM0NUalBxWklnUnFMcFk2c3U2VFUxcjIwTVduUUI2aUpLUkFuUnAzTG5uNjVQWjM5UVYzNm9EZkJNNG9rUWdKaUNLWWNidXlJcVlKTm9zNzlNS0hYWTYwOVVWazJyb2cxSHZQTWN3OUstVWkteXRiVUtrQ0pobzg4cVAxNjYzOVlNYVBsb04wM2dqNEVMeHZIRGFQSzNDSzhPYzBVOVY0bmRvNTYzR052U3V6dFktIC13VXk5aFlQNXlEV3NxNVdBM0NEdC1xM29LT0dvZ1Rnc0NqN2FYWk1naWF4SEVjZzdUdi1LYlNiVnA3YnE2ZDA0OF84UV9kVmh5Y0JfcFdUZFpQYWZWMXBQcmU3OFJMaTRvVDVWb3JNMWdQRFd3WUtuRG5NTWhnZHZNdlRvc0VzZ0JKNm5GX3VJWXFZT0NPZVZhMGJXb2FBVFBQVXIzclZFempVRTduSmE2bzkybTl5UXBsYzV0S1JuVjV3VnN1bjlKbHp6MmlKZTVsdm5DMF0tLT48L2c+PC9zdmc+;" parent="1" vertex="1"><mxGeometry x="470" y="230" width="215" height="505" as="geometry"/></mxCell></UserObject><UserObject label="" plantUmlData="{&#10;  &quot;data&quot;: &quot;@startuml\n!includeurl https://raw.githubusercontent.com/plantuml-stdlib/C4-PlantUML/master/C4_Component.puml\n\ntitle 捐赠服务组件图\n\nContainer(donation_service, \&quot;捐赠服务\&quot;, \&quot;Spring Boot + MyBatis\&quot;, \&quot;捐赠记录、物资管理\&quot;) {\n  Component(donation_controller, \&quot;DonationController\&quot;, \&quot;处理捐赠记录相关的请求 (查看)\&quot;)\n  Component(material_controller, \&quot;MaterialController\&quot;, \&quot;处理物资相关的请求 (管理)\&quot;)\n  \n  Component(donation_service_impl, \&quot;DonationServiceImpl\&quot;, \&quot;捐赠服务实现类\&quot;)\n  Component(material_service_impl, \&quot;MaterialServiceImpl\&quot;, \&quot;物资服务实现类\&quot;)\n  \n  Component(donation_repository, \&quot;DonationRepository\&quot;, \&quot;捐赠记录数据访问层\&quot;)\n  Component(material_repository, \&quot;MaterialRepository\&quot;, \&quot;物资数据访问层\&quot;)\n\n  Rel(donation_controller, donation_service_impl, \&quot;调用\&quot;)\n  Rel(material_controller, material_service_impl, \&quot;调用\&quot;)\n\n  Rel(donation_service_impl, donation_repository, \&quot;调用\&quot;)\n  Rel(material_service_impl, material_repository, \&quot;调用\&quot;)\n}\n\n@enduml&quot;,&#10;  &quot;format&quot;: &quot;svg&quot;&#10;}" id="iwc2kgBUIP-5sk2xWvdT-4"><mxCell style="shape=image;noLabel=1;verticalAlign=top;aspect=fixed;imageAspect=0;image=data:image/svg+xml,PD94bWwgdmVyc2lvbj0iMS4wIiBlbmNvZGluZz0idXMtYXNjaWkiIHN0YW5kYWxvbmU9Im5vIj8+PHN2ZyB4bWxucz0iaHR0cDovL3d3dy53My5vcmcvMjAwMC9zdmciIHhtbG5zOnhsaW5rPSJodHRwOi8vd3d3LnczLm9yZy8xOTk5L3hsaW5rIiBjb250ZW50U3R5bGVUeXBlPSJ0ZXh0L2NzcyIgaGVpZ2h0PSI0OTJweCIgcHJlc2VydmVBc3BlY3RSYXRpbz0ibm9uZSIgc3R5bGU9IndpZHRoOjQ2OHB4O2hlaWdodDo0OTJweDtiYWNrZ3JvdW5kOiNGRkZGRkY7IiB2ZXJzaW9uPSIxLjEiIHZpZXdCb3g9IjAgMCA0NjggNDkyIiB3aWR0aD0iNDY4cHgiIHpvb21BbmRQYW49Im1hZ25pZnkiPjxkZWZzLz48Zz48dGV4dCBmaWxsPSIjMDAwMDAwIiBmb250LWZhbWlseT0ic2Fucy1zZXJpZiIgZm9udC1zaXplPSIxNCIgZm9udC13ZWlnaHQ9ImJvbGQiIGxlbmd0aEFkanVzdD0ic3BhY2luZyIgdGV4dExlbmd0aD0iOTgiIHg9IjE3OCIgeT0iMjMuMjM0NCI+JiMyNTQyNDsmIzM2MTkyOyYjMjYzODE7JiMyMTE1MzsmIzMyNDUyOyYjMjAyMTQ7JiMyMjI3MDs8L3RleHQ+PCEtLWNsdXN0ZXIgZG9uYXRpb25fc2VydmljZS0tPjxnIGlkPSJjbHVzdGVyX2RvbmF0aW9uX3NlcnZpY2UiPjxyZWN0IGZpbGw9IiM0MzhERDUiIGhlaWdodD0iNDQ0IiByeD0iMi41IiByeT0iMi41IiBzdHlsZT0ic3Ryb2tlOiMzQzdGQzA7c3Ryb2tlLXdpZHRoOjEuMDsiIHdpZHRoPSI0NTUiIHg9IjciIHk9IjQyLjk4NDQiLz48dGV4dCBmaWxsPSIjRkZGRkZGIiBmb250LWZhbWlseT0ic2Fucy1zZXJpZiIgZm9udC1zaXplPSIxMiIgZm9udC1zdHlsZT0iaXRhbGljIiBsZW5ndGhBZGp1c3Q9InNwYWNpbmciIHRleHRMZW5ndGg9IjcyIiB4PSIxOTguNSIgeT0iNTYuMzI4MSI+JiMxNzE7Y29udGFpbmVyJiMxODc7PC90ZXh0Pjx0ZXh0IGZpbGw9IiNGRkZGRkYiIGZvbnQtZmFtaWx5PSJzYW5zLXNlcmlmIiBmb250LXNpemU9IjE2IiBmb250LXdlaWdodD0iYm9sZCIgbGVuZ3RoQWRqdXN0PSJzcGFjaW5nIiB0ZXh0TGVuZ3RoPSI2NCIgeD0iMjAyLjUiIHk9IjcyLjk1MzEiPiYjMjU0MjQ7JiMzNjE5MjsmIzI2MzgxOyYjMjExNTM7PC90ZXh0Pjx0ZXh0IGZpbGw9IiNGRkZGRkYiIGZvbnQtZmFtaWx5PSJzYW5zLXNlcmlmIiBmb250LXNpemU9IjEyIiBmb250LXN0eWxlPSJpdGFsaWMiIGZvbnQtd2VpZ2h0PSJib2xkIiBsZW5ndGhBZGp1c3Q9InNwYWNpbmciIHRleHRMZW5ndGg9IjE1MSIgeD0iMTU5IiB5PSI4Ni4yOTY5Ij5bU3ByaW5nIEJvb3QgKyBNeUJhdGlzXTwvdGV4dD48dGV4dCBmaWxsPSIjRkZGRkZGIiBmb250LWZhbWlseT0ic2Fucy1zZXJpZiIgZm9udC1zaXplPSIxNCIgZm9udC13ZWlnaHQ9ImJvbGQiIGxlbmd0aEFkanVzdD0ic3BhY2luZyIgdGV4dExlbmd0aD0iNyIgeD0iMjMxIiB5PSIxMDEuMDMxMyI+JiMxNjA7PC90ZXh0Pjx0ZXh0IGZpbGw9IiNGRkZGRkYiIGZvbnQtZmFtaWx5PSJzYW5zLXNlcmlmIiBmb250LXNpemU9IjE0IiBmb250LXdlaWdodD0iYm9sZCIgbGVuZ3RoQWRqdXN0PSJzcGFjaW5nIiB0ZXh0TGVuZ3RoPSIxMjYiIHg9IjE3MS41IiB5PSIxMTYuMDE1NiI+JiMyNTQyNDsmIzM2MTkyOyYjMzU3NjA7JiMyNDQwNTsmIzEyMjg5OyYjMjkyODk7JiMzNjE2NDsmIzMxNjQ5OyYjMjk3MDI7PC90ZXh0PjwvZz48IS0tZW50aXR5IGRvbmF0aW9uX2NvbnRyb2xsZXItLT48ZyBpZD0iZWxlbV9kb25hdGlvbl9jb250cm9sbGVyIj48cmVjdCBmaWxsPSIjODVCQkYwIiBoZWlnaHQ9IjYyLjgxMjUiIHJ4PSIyLjUiIHJ5PSIyLjUiIHN0eWxlPSJzdHJva2U6Izc4QThEODtzdHJva2Utd2lkdGg6MC41OyIgd2lkdGg9IjIwNiIgeD0iMjQwIiB5PSIxMzMuOTg0NCIvPjx0ZXh0IGZpbGw9IiMwMDAwMDAiIGZvbnQtZmFtaWx5PSJzYW5zLXNlcmlmIiBmb250LXNpemU9IjEyIiBmb250LXN0eWxlPSJpdGFsaWMiIGxlbmd0aEFkanVzdD0ic3BhY2luZyIgdGV4dExlbmd0aD0iNzIiIHg9IjMwNyIgeT0iMTU1LjMyODEiPiYjMTcxO2NvbXBvbmVudCYjMTg3OzwvdGV4dD48dGV4dCBmaWxsPSIjMDAwMDAwIiBmb250LWZhbWlseT0ic2Fucy1zZXJpZiIgZm9udC1zaXplPSIxNiIgZm9udC13ZWlnaHQ9ImJvbGQiIGxlbmd0aEFkanVzdD0ic3BhY2luZyIgdGV4dExlbmd0aD0iMTQ0IiB4PSIyNzEiIHk9IjE3MS45NTMxIj5Eb25hdGlvbkNvbnRyb2xsZXI8L3RleHQ+PHRleHQgZmlsbD0iIzAwMDAwMCIgZm9udC1mYW1pbHk9InNhbnMtc2VyaWYiIGZvbnQtc2l6ZT0iMTIiIGZvbnQtc3R5bGU9Iml0YWxpYyIgbGVuZ3RoQWRqdXN0PSJzcGFjaW5nIiB0ZXh0TGVuZ3RoPSIxMzgiIHg9IjI1MCIgeT0iMTg1LjI5NjkiPlsmIzIyNzg4OyYjMjk3MDI7JiMyNTQyNDsmIzM2MTkyOyYjMzU3NjA7JiMyNDQwNTsmIzMwNDU2OyYjMjA4NTE7JiMzMDM0MDsmIzM1ODMxOyYjMjc3MTQ7PC90ZXh0Pjx0ZXh0IGZpbGw9IiMwMDAwMDAiIGZvbnQtZmFtaWx5PSJzYW5zLXNlcmlmIiBmb250LXNpemU9IjEyIiBmb250LXN0eWxlPSJpdGFsaWMiIGxlbmd0aEFkanVzdD0ic3BhY2luZyIgdGV4dExlbmd0aD0iNiIgeD0iMzg4IiB5PSIxODUuMjk2OSI+JiMxNjA7PC90ZXh0Pjx0ZXh0IGZpbGw9IiMwMDAwMDAiIGZvbnQtZmFtaWx5PSJzYW5zLXNlcmlmIiBmb250LXNpemU9IjEyIiBmb250LXN0eWxlPSJpdGFsaWMiIGxlbmd0aEFkanVzdD0ic3BhY2luZyIgdGV4dExlbmd0aD0iNDIiIHg9IjM5NCIgeT0iMTg1LjI5NjkiPigmIzI2NTk3OyYjMzA0NzU7KV08L3RleHQ+PC9nPjwhLS1lbnRpdHkgbWF0ZXJpYWxfY29udHJvbGxlci0tPjxnIGlkPSJlbGVtX21hdGVyaWFsX2NvbnRyb2xsZXIiPjxyZWN0IGZpbGw9IiM4NUJCRjAiIGhlaWdodD0iNjIuODEyNSIgcng9IjIuNSIgcnk9IjIuNSIgc3R5bGU9InN0cm9rZTojNzhBOEQ4O3N0cm9rZS13aWR0aDowLjU7IiB3aWR0aD0iMTgyIiB4PSIyMyIgeT0iMTMzLjk4NDQiLz48dGV4dCBmaWxsPSIjMDAwMDAwIiBmb250LWZhbWlseT0ic2Fucy1zZXJpZiIgZm9udC1zaXplPSIxMiIgZm9udC1zdHlsZT0iaXRhbGljIiBsZW5ndGhBZGp1c3Q9InNwYWNpbmciIHRleHRMZW5ndGg9IjcyIiB4PSI3OCIgeT0iMTU1LjMyODEiPiYjMTcxO2NvbXBvbmVudCYjMTg3OzwvdGV4dD48dGV4dCBmaWxsPSIjMDAwMDAwIiBmb250LWZhbWlseT0ic2Fucy1zZXJpZiIgZm9udC1zaXplPSIxNiIgZm9udC13ZWlnaHQ9ImJvbGQiIGxlbmd0aEFkanVzdD0ic3BhY2luZyIgdGV4dExlbmd0aD0iMTQ0IiB4PSI0MiIgeT0iMTcxLjk1MzEiPk1hdGVyaWFsQ29udHJvbGxlcjwvdGV4dD48dGV4dCBmaWxsPSIjMDAwMDAwIiBmb250LWZhbWlseT0ic2Fucy1zZXJpZiIgZm9udC1zaXplPSIxMiIgZm9udC1zdHlsZT0iaXRhbGljIiBsZW5ndGhBZGp1c3Q9InNwYWNpbmciIHRleHRMZW5ndGg9IjExNCIgeD0iMzMiIHk9IjE4NS4yOTY5Ij5bJiMyMjc4ODsmIzI5NzAyOyYjMjkyODk7JiMzNjE2NDsmIzMwNDU2OyYjMjA4NTE7JiMzMDM0MDsmIzM1ODMxOyYjMjc3MTQ7PC90ZXh0Pjx0ZXh0IGZpbGw9IiMwMDAwMDAiIGZvbnQtZmFtaWx5PSJzYW5zLXNlcmlmIiBmb250LXNpemU9IjEyIiBmb250LXN0eWxlPSJpdGFsaWMiIGxlbmd0aEFkanVzdD0ic3BhY2luZyIgdGV4dExlbmd0aD0iNiIgeD0iMTQ3IiB5PSIxODUuMjk2OSI+JiMxNjA7PC90ZXh0Pjx0ZXh0IGZpbGw9IiMwMDAwMDAiIGZvbnQtZmFtaWx5PSJzYW5zLXNlcmlmIiBmb250LXNpemU9IjEyIiBmb250LXN0eWxlPSJpdGFsaWMiIGxlbmd0aEFkanVzdD0ic3BhY2luZyIgdGV4dExlbmd0aD0iNDIiIHg9IjE1MyIgeT0iMTg1LjI5NjkiPigmIzMxNjQ5OyYjMjk3MDI7KV08L3RleHQ+PC9nPjwhLS1lbnRpdHkgZG9uYXRpb25fc2VydmljZV9pbXBsLS0+PGcgaWQ9ImVsZW1fZG9uYXRpb25fc2VydmljZV9pbXBsIj48cmVjdCBmaWxsPSIjODVCQkYwIiBoZWlnaHQ9IjYyLjgxMjUiIHJ4PSIyLjUiIHJ5PSIyLjUiIHN0eWxlPSJzdHJva2U6Izc4QThEODtzdHJva2Utd2lkdGg6MC41OyIgd2lkdGg9IjE3MiIgeD0iMjU3IiB5PSIyNzAuOTg0NCIvPjx0ZXh0IGZpbGw9IiMwMDAwMDAiIGZvbnQtZmFtaWx5PSJzYW5zLXNlcmlmIiBmb250LXNpemU9IjEyIiBmb250LXN0eWxlPSJpdGFsaWMiIGxlbmd0aEFkanVzdD0ic3BhY2luZyIgdGV4dExlbmd0aD0iNzIiIHg9IjMwNyIgeT0iMjkyLjMyODEiPiYjMTcxO2NvbXBvbmVudCYjMTg3OzwvdGV4dD48dGV4dCBmaWxsPSIjMDAwMDAwIiBmb250LWZhbWlseT0ic2Fucy1zZXJpZiIgZm9udC1zaXplPSIxNiIgZm9udC13ZWlnaHQ9ImJvbGQiIGxlbmd0aEFkanVzdD0ic3BhY2luZyIgdGV4dExlbmd0aD0iMTUyIiB4PSIyNjciIHk9IjMwOC45NTMxIj5Eb25hdGlvblNlcnZpY2VJbXBsPC90ZXh0Pjx0ZXh0IGZpbGw9IiMwMDAwMDAiIGZvbnQtZmFtaWx5PSJzYW5zLXNlcmlmIiBmb250LXNpemU9IjEyIiBmb250LXN0eWxlPSJpdGFsaWMiIGxlbmd0aEFkanVzdD0ic3BhY2luZyIgdGV4dExlbmd0aD0iOTYiIHg9IjI5NSIgeT0iMzIyLjI5NjkiPlsmIzI1NDI0OyYjMzYxOTI7JiMyNjM4MTsmIzIxMTUzOyYjMjM0NTQ7JiMyOTYxNjsmIzMxODY3O108L3RleHQ+PC9nPjwhLS1lbnRpdHkgbWF0ZXJpYWxfc2VydmljZV9pbXBsLS0+PGcgaWQ9ImVsZW1fbWF0ZXJpYWxfc2VydmljZV9pbXBsIj48cmVjdCBmaWxsPSIjODVCQkYwIiBoZWlnaHQ9IjYyLjgxMjUiIHJ4PSIyLjUiIHJ5PSIyLjUiIHN0eWxlPSJzdHJva2U6Izc4QThEODtzdHJva2Utd2lkdGg6MC41OyIgd2lkdGg9IjE3MiIgeD0iMjgiIHk9IjI3MC45ODQ0Ii8+PHRleHQgZmlsbD0iIzAwMDAwMCIgZm9udC1mYW1pbHk9InNhbnMtc2VyaWYiIGZvbnQtc2l6ZT0iMTIiIGZvbnQtc3R5bGU9Iml0YWxpYyIgbGVuZ3RoQWRqdXN0PSJzcGFjaW5nIiB0ZXh0TGVuZ3RoPSI3MiIgeD0iNzgiIHk9IjI5Mi4zMjgxIj4mIzE3MTtjb21wb25lbnQmIzE4Nzs8L3RleHQ+PHRleHQgZmlsbD0iIzAwMDAwMCIgZm9udC1mYW1pbHk9InNhbnMtc2VyaWYiIGZvbnQtc2l6ZT0iMTYiIGZvbnQtd2VpZ2h0PSJib2xkIiBsZW5ndGhBZGp1c3Q9InNwYWNpbmciIHRleHRMZW5ndGg9IjE1MiIgeD0iMzgiIHk9IjMwOC45NTMxIj5NYXRlcmlhbFNlcnZpY2VJbXBsPC90ZXh0Pjx0ZXh0IGZpbGw9IiMwMDAwMDAiIGZvbnQtZmFtaWx5PSJzYW5zLXNlcmlmIiBmb250LXNpemU9IjEyIiBmb250LXN0eWxlPSJpdGFsaWMiIGxlbmd0aEFkanVzdD0ic3BhY2luZyIgdGV4dExlbmd0aD0iOTYiIHg9IjY2IiB5PSIzMjIuMjk2OSI+WyYjMjkyODk7JiMzNjE2NDsmIzI2MzgxOyYjMjExNTM7JiMyMzQ1NDsmIzI5NjE2OyYjMzE4Njc7XTwvdGV4dD48L2c+PCEtLWVudGl0eSBkb25hdGlvbl9yZXBvc2l0b3J5LS0+PGcgaWQ9ImVsZW1fZG9uYXRpb25fcmVwb3NpdG9yeSI+PHJlY3QgZmlsbD0iIzg1QkJGMCIgaGVpZ2h0PSI2Mi44MTI1IiByeD0iMi41IiByeT0iMi41IiBzdHlsZT0ic3Ryb2tlOiM3OEE4RDg7c3Ryb2tlLXdpZHRoOjAuNTsiIHdpZHRoPSIxNjQiIHg9IjI2MSIgeT0iNDA3Ljk4NDQiLz48dGV4dCBmaWxsPSIjMDAwMDAwIiBmb250LWZhbWlseT0ic2Fucy1zZXJpZiIgZm9udC1zaXplPSIxMiIgZm9udC1zdHlsZT0iaXRhbGljIiBsZW5ndGhBZGp1c3Q9InNwYWNpbmciIHRleHRMZW5ndGg9IjcyIiB4PSIzMDciIHk9IjQyOS4zMjgxIj4mIzE3MTtjb21wb25lbnQmIzE4Nzs8L3RleHQ+PHRleHQgZmlsbD0iIzAwMDAwMCIgZm9udC1mYW1pbHk9InNhbnMtc2VyaWYiIGZvbnQtc2l6ZT0iMTYiIGZvbnQtd2VpZ2h0PSJib2xkIiBsZW5ndGhBZGp1c3Q9InNwYWNpbmciIHRleHRMZW5ndGg9IjE0NCIgeD0iMjcxIiB5PSI0NDUuOTUzMSI+RG9uYXRpb25SZXBvc2l0b3J5PC90ZXh0Pjx0ZXh0IGZpbGw9IiMwMDAwMDAiIGZvbnQtZmFtaWx5PSJzYW5zLXNlcmlmIiBmb250LXNpemU9IjEyIiBmb250LXN0eWxlPSJpdGFsaWMiIGxlbmd0aEFkanVzdD0ic3BhY2luZyIgdGV4dExlbmd0aD0iMTIwIiB4PSIyODMiIHk9IjQ1OS4yOTY5Ij5bJiMyNTQyNDsmIzM2MTkyOyYjMzU3NjA7JiMyNDQwNTsmIzI1OTY4OyYjMjU0NTQ7JiMzNTc3NTsmIzM4MzgyOyYjMjM2MTg7XTwvdGV4dD48L2c+PCEtLWVudGl0eSBtYXRlcmlhbF9yZXBvc2l0b3J5LS0+PGcgaWQ9ImVsZW1fbWF0ZXJpYWxfcmVwb3NpdG9yeSI+PHJlY3QgZmlsbD0iIzg1QkJGMCIgaGVpZ2h0PSI2Mi44MTI1IiByeD0iMi41IiByeT0iMi41IiBzdHlsZT0ic3Ryb2tlOiM3OEE4RDg7c3Ryb2tlLXdpZHRoOjAuNTsiIHdpZHRoPSIxNjQiIHg9IjMyIiB5PSI0MDcuOTg0NCIvPjx0ZXh0IGZpbGw9IiMwMDAwMDAiIGZvbnQtZmFtaWx5PSJzYW5zLXNlcmlmIiBmb250LXNpemU9IjEyIiBmb250LXN0eWxlPSJpdGFsaWMiIGxlbmd0aEFkanVzdD0ic3BhY2luZyIgdGV4dExlbmd0aD0iNzIiIHg9Ijc4IiB5PSI0MjkuMzI4MSI+JiMxNzE7Y29tcG9uZW50JiMxODc7PC90ZXh0Pjx0ZXh0IGZpbGw9IiMwMDAwMDAiIGZvbnQtZmFtaWx5PSJzYW5zLXNlcmlmIiBmb250LXNpemU9IjE2IiBmb250LXdlaWdodD0iYm9sZCIgbGVuZ3RoQWRqdXN0PSJzcGFjaW5nIiB0ZXh0TGVuZ3RoPSIxNDQiIHg9IjQyIiB5PSI0NDUuOTUzMSI+TWF0ZXJpYWxSZXBvc2l0b3J5PC90ZXh0Pjx0ZXh0IGZpbGw9IiMwMDAwMDAiIGZvbnQtZmFtaWx5PSJzYW5zLXNlcmlmIiBmb250LXNpemU9IjEyIiBmb250LXN0eWxlPSJpdGFsaWMiIGxlbmd0aEFkanVzdD0ic3BhY2luZyIgdGV4dExlbmd0aD0iOTYiIHg9IjY2IiB5PSI0NTkuMjk2OSI+WyYjMjkyODk7JiMzNjE2NDsmIzI1OTY4OyYjMjU0NTQ7JiMzNTc3NTsmIzM4MzgyOyYjMjM2MTg7XTwvdGV4dD48L2c+PCEtLWxpbmsgZG9uYXRpb25fY29udHJvbGxlciB0byBkb25hdGlvbl9zZXJ2aWNlX2ltcGwtLT48ZyBpZD0ibGlua19kb25hdGlvbl9jb250cm9sbGVyX2RvbmF0aW9uX3NlcnZpY2VfaW1wbCI+PHBhdGggZD0iTTM0MywxOTcuMTE0NCBDMzQzLDIxOS4yMTQ0IDM0MywyNDAuOTA0NCAzNDMsMjYyLjk3NDQgIiBmaWxsPSJub25lIiBpZD0iZG9uYXRpb25fY29udHJvbGxlci10by1kb25hdGlvbl9zZXJ2aWNlX2ltcGwiIHN0eWxlPSJzdHJva2U6IzY2NjY2NjtzdHJva2Utd2lkdGg6MS4wOyIvPjxwb2x5Z29uIGZpbGw9IiM2NjY2NjYiIHBvaW50cz0iMzQzLDI3MC45NzQ0LDM0NiwyNjIuOTc0NCwzNDAsMjYyLjk3NDQsMzQzLDI3MC45NzQ0IiBzdHlsZT0ic3Ryb2tlOiM2NjY2NjY7c3Ryb2tlLXdpZHRoOjEuMDsiLz48dGV4dCBmaWxsPSIjNjY2NjY2IiBmb250LWZhbWlseT0ic2Fucy1zZXJpZiIgZm9udC1zaXplPSIxMiIgZm9udC13ZWlnaHQ9ImJvbGQiIGxlbmd0aEFkanVzdD0ic3BhY2luZyIgdGV4dExlbmd0aD0iMjQiIHg9IjM0NCIgeT0iMjM5LjMyODEiPiYjMzU4NDM7JiMyOTk5Mjs8L3RleHQ+PC9nPjwhLS1saW5rIG1hdGVyaWFsX2NvbnRyb2xsZXIgdG8gbWF0ZXJpYWxfc2VydmljZV9pbXBsLS0+PGcgaWQ9ImxpbmtfbWF0ZXJpYWxfY29udHJvbGxlcl9tYXRlcmlhbF9zZXJ2aWNlX2ltcGwiPjxwYXRoIGQ9Ik0xMTQsMTk3LjExNDQgQzExNCwyMTkuMjE0NCAxMTQsMjQwLjkwNDQgMTE0LDI2Mi45NzQ0ICIgZmlsbD0ibm9uZSIgaWQ9Im1hdGVyaWFsX2NvbnRyb2xsZXItdG8tbWF0ZXJpYWxfc2VydmljZV9pbXBsIiBzdHlsZT0ic3Ryb2tlOiM2NjY2NjY7c3Ryb2tlLXdpZHRoOjEuMDsiLz48cG9seWdvbiBmaWxsPSIjNjY2NjY2IiBwb2ludHM9IjExNCwyNzAuOTc0NCwxMTcsMjYyLjk3NDQsMTExLDI2Mi45NzQ0LDExNCwyNzAuOTc0NCIgc3R5bGU9InN0cm9rZTojNjY2NjY2O3N0cm9rZS13aWR0aDoxLjA7Ii8+PHRleHQgZmlsbD0iIzY2NjY2NiIgZm9udC1mYW1pbHk9InNhbnMtc2VyaWYiIGZvbnQtc2l6ZT0iMTIiIGZvbnQtd2VpZ2h0PSJib2xkIiBsZW5ndGhBZGp1c3Q9InNwYWNpbmciIHRleHRMZW5ndGg9IjI0IiB4PSIxMTUiIHk9IjIzOS4zMjgxIj4mIzM1ODQzOyYjMjk5OTI7PC90ZXh0PjwvZz48IS0tbGluayBkb25hdGlvbl9zZXJ2aWNlX2ltcGwgdG8gZG9uYXRpb25fcmVwb3NpdG9yeS0tPjxnIGlkPSJsaW5rX2RvbmF0aW9uX3NlcnZpY2VfaW1wbF9kb25hdGlvbl9yZXBvc2l0b3J5Ij48cGF0aCBkPSJNMzQzLDMzNC4xMTQ0IEMzNDMsMzU2LjIxNDQgMzQzLDM3Ny45MDQ0IDM0MywzOTkuOTc0NCAiIGZpbGw9Im5vbmUiIGlkPSJkb25hdGlvbl9zZXJ2aWNlX2ltcGwtdG8tZG9uYXRpb25fcmVwb3NpdG9yeSIgc3R5bGU9InN0cm9rZTojNjY2NjY2O3N0cm9rZS13aWR0aDoxLjA7Ii8+PHBvbHlnb24gZmlsbD0iIzY2NjY2NiIgcG9pbnRzPSIzNDMsNDA3Ljk3NDQsMzQ2LDM5OS45NzQ0LDM0MCwzOTkuOTc0NCwzNDMsNDA3Ljk3NDQiIHN0eWxlPSJzdHJva2U6IzY2NjY2NjtzdHJva2Utd2lkdGg6MS4wOyIvPjx0ZXh0IGZpbGw9IiM2NjY2NjYiIGZvbnQtZmFtaWx5PSJzYW5zLXNlcmlmIiBmb250LXNpemU9IjEyIiBmb250LXdlaWdodD0iYm9sZCIgbGVuZ3RoQWRqdXN0PSJzcGFjaW5nIiB0ZXh0TGVuZ3RoPSIyNCIgeD0iMzQ0IiB5PSIzNzYuMzI4MSI+JiMzNTg0MzsmIzI5OTkyOzwvdGV4dD48L2c+PCEtLWxpbmsgbWF0ZXJpYWxfc2VydmljZV9pbXBsIHRvIG1hdGVyaWFsX3JlcG9zaXRvcnktLT48ZyBpZD0ibGlua19tYXRlcmlhbF9zZXJ2aWNlX2ltcGxfbWF0ZXJpYWxfcmVwb3NpdG9yeSI+PHBhdGggZD0iTTExNCwzMzQuMTE0NCBDMTE0LDM1Ni4yMTQ0IDExNCwzNzcuOTA0NCAxMTQsMzk5Ljk3NDQgIiBmaWxsPSJub25lIiBpZD0ibWF0ZXJpYWxfc2VydmljZV9pbXBsLXRvLW1hdGVyaWFsX3JlcG9zaXRvcnkiIHN0eWxlPSJzdHJva2U6IzY2NjY2NjtzdHJva2Utd2lkdGg6MS4wOyIvPjxwb2x5Z29uIGZpbGw9IiM2NjY2NjYiIHBvaW50cz0iMTE0LDQwNy45NzQ0LDExNywzOTkuOTc0NCwxMTEsMzk5Ljk3NDQsMTE0LDQwNy45NzQ0IiBzdHlsZT0ic3Ryb2tlOiM2NjY2NjY7c3Ryb2tlLXdpZHRoOjEuMDsiLz48dGV4dCBmaWxsPSIjNjY2NjY2IiBmb250LWZhbWlseT0ic2Fucy1zZXJpZiIgZm9udC1zaXplPSIxMiIgZm9udC13ZWlnaHQ9ImJvbGQiIGxlbmd0aEFkanVzdD0ic3BhY2luZyIgdGV4dExlbmd0aD0iMjQiIHg9IjExNSIgeT0iMzc2LjMyODEiPiYjMzU4NDM7JiMyOTk5Mjs8L3RleHQ+PC9nPjwhLS1TUkM9W1RQOUJJeUQwNThOdC1ITFpMWE9Wc1JYb1FUcTg1YUhuTk04eHI4NzlKOVhDNTE3MUhuSEtBWXVpV2VlRktEMURKMTRWS0RHVmV5ZDRWLTc0bkRaNFA5ZDNGVHl6enFtNjQ2YldrbWJqWGk0WXZ3T3JoY2JDTm52ajhSdmVCeldNUDByQUUySHlqNDREcFNHd3VSUTFIb3BVbjZYMWd1d0RwNEpJVjZyUUN0SUJHb1FiVWZLUTlZTUhudklwWWk4SG5uMDR4U0ZteUo4dVFfanhMd0JkVkZRVV9EQ3RIUWJBbDh1OFA4RERJZElFQUFkQmZLa2UwT1Uxc2t6SHZWVVNvSDFmV0diQUVIVzJqUEs5UVIzS1QzMXFGVi1yeXg2LThOUmxtYVQ3azVWWVM0VWpXNUs1VzNKS3R2eGVDYU9uWGFtSTlYRXJjZWVIcnh6czlBQVZCYXZWX0VxN1NVQTR6eXoxVG5DQzFYU3R1Y29fZWJPb0ltblRiZTVxZDVySUl6SVk5S2RjRjN1LThpT05kdjdLTEtVNllWaUVjT2xiQVFjZ2tJZnp6cm1TVUFCUkFta1RHX3g2cFk3Wm40Tjh1ZzBDY2pIMmRCQUxsZllwZ1BYX253M1oxTXF0VEQtX1pic19rcmNNREtGekpQZ2I5YTdfeUlIbTVrQlk3d0FpdGozUjRhVXRGczRZUi00eGJfTU9VbEVCaXRGNVhQS2pwZGdCUXFjelF6eTBdLS0+PC9nPjwvc3ZnPg==;" parent="1" vertex="1"><mxGeometry x="15" y="789" width="468" height="492" as="geometry"/></mxCell></UserObject><UserObject label="" plantUmlData="{&#10;  &quot;data&quot;: &quot;@startuml\n!includeurl https://raw.githubusercontent.com/plantuml-stdlib/C4-PlantUML/master/C4_Component.puml\n\ntitle 医疗救助服务组件图\n\nContainer(medical_service, \&quot;医疗救助服务\&quot;, \&quot;Spring Boot + MyBatis\&quot;, \&quot;医疗救助信息、记录管理\&quot;) {\n  Component(medical_controller, \&quot;MedicalController\&quot;, \&quot;处理医疗救助信息相关的请求 (审核、查看)\&quot;)\n  Component(record_controller, \&quot;RecordController\&quot;, \&quot;处理医疗记录相关的请求 (查看、管理)\&quot;)\n\n  Component(medical_service_impl, \&quot;MedicalServiceImpl\&quot;, \&quot;医疗救助服务实现类\&quot;)\n  Component(record_service_impl, \&quot;RecordServiceImpl\&quot;, \&quot;医疗记录服务实现类\&quot;)\n  \n  Component(medical_repository, \&quot;MedicalRepository\&quot;, \&quot;医疗救助信息数据访问层\&quot;)\n  Component(record_repository, \&quot;RecordRepository\&quot;, \&quot;医疗记录数据访问层\&quot;)\n\n  Rel(medical_controller, medical_service_impl, \&quot;调用\&quot;)\n  Rel(record_controller, record_service_impl, \&quot;调用\&quot;)\n\n  Rel(medical_service_impl, medical_repository, \&quot;调用\&quot;)\n  Rel(record_service_impl, record_repository, \&quot;调用\&quot;)\n}\n\n@enduml&quot;,&#10;  &quot;format&quot;: &quot;svg&quot;&#10;}" id="iwc2kgBUIP-5sk2xWvdT-5"><mxCell style="shape=image;noLabel=1;verticalAlign=top;aspect=fixed;imageAspect=0;image=data:image/svg+xml,PD94bWwgdmVyc2lvbj0iMS4wIiBlbmNvZGluZz0idXMtYXNjaWkiIHN0YW5kYWxvbmU9Im5vIj8+PHN2ZyB4bWxucz0iaHR0cDovL3d3dy53My5vcmcvMjAwMC9zdmciIHhtbG5zOnhsaW5rPSJodHRwOi8vd3d3LnczLm9yZy8xOTk5L3hsaW5rIiBjb250ZW50U3R5bGVUeXBlPSJ0ZXh0L2NzcyIgaGVpZ2h0PSI1MDVweCIgcHJlc2VydmVBc3BlY3RSYXRpbz0ibm9uZSIgc3R5bGU9IndpZHRoOjQyMHB4O2hlaWdodDo1MDVweDtiYWNrZ3JvdW5kOiNGRkZGRkY7IiB2ZXJzaW9uPSIxLjEiIHZpZXdCb3g9IjAgMCA0MjAgNTA1IiB3aWR0aD0iNDIwcHgiIHpvb21BbmRQYW49Im1hZ25pZnkiPjxkZWZzLz48Zz48dGV4dCBmaWxsPSIjMDAwMDAwIiBmb250LWZhbWlseT0ic2Fucy1zZXJpZiIgZm9udC1zaXplPSIxNCIgZm9udC13ZWlnaHQ9ImJvbGQiIGxlbmd0aEFkanVzdD0ic3BhY2luZyIgdGV4dExlbmd0aD0iMTI2IiB4PSIxNDAiIHk9IjIzLjIzNDQiPiYjMjEzMDc7JiMzMDEwMzsmIzI1OTM3OyYjMjExNjE7JiMyNjM4MTsmIzIxMTUzOyYjMzI0NTI7JiMyMDIxNDsmIzIyMjcwOzwvdGV4dD48IS0tY2x1c3RlciBtZWRpY2FsX3NlcnZpY2UtLT48ZyBpZD0iY2x1c3Rlcl9tZWRpY2FsX3NlcnZpY2UiPjxyZWN0IGZpbGw9IiM0MzhERDUiIGhlaWdodD0iNDU3IiByeD0iMi41IiByeT0iMi41IiBzdHlsZT0ic3Ryb2tlOiMzQzdGQzA7c3Ryb2tlLXdpZHRoOjEuMDsiIHdpZHRoPSI0MDciIHg9IjciIHk9IjQyLjk4NDQiLz48dGV4dCBmaWxsPSIjRkZGRkZGIiBmb250LWZhbWlseT0ic2Fucy1zZXJpZiIgZm9udC1zaXplPSIxMiIgZm9udC1zdHlsZT0iaXRhbGljIiBsZW5ndGhBZGp1c3Q9InNwYWNpbmciIHRleHRMZW5ndGg9IjcyIiB4PSIxNzQuNSIgeT0iNTYuMzI4MSI+JiMxNzE7Y29udGFpbmVyJiMxODc7PC90ZXh0Pjx0ZXh0IGZpbGw9IiNGRkZGRkYiIGZvbnQtZmFtaWx5PSJzYW5zLXNlcmlmIiBmb250LXNpemU9IjE2IiBmb250LXdlaWdodD0iYm9sZCIgbGVuZ3RoQWRqdXN0PSJzcGFjaW5nIiB0ZXh0TGVuZ3RoPSI5NiIgeD0iMTYyLjUiIHk9IjcyLjk1MzEiPiYjMjEzMDc7JiMzMDEwMzsmIzI1OTM3OyYjMjExNjE7JiMyNjM4MTsmIzIxMTUzOzwvdGV4dD48dGV4dCBmaWxsPSIjRkZGRkZGIiBmb250LWZhbWlseT0ic2Fucy1zZXJpZiIgZm9udC1zaXplPSIxMiIgZm9udC1zdHlsZT0iaXRhbGljIiBmb250LXdlaWdodD0iYm9sZCIgbGVuZ3RoQWRqdXN0PSJzcGFjaW5nIiB0ZXh0TGVuZ3RoPSIxNTEiIHg9IjEzNSIgeT0iODYuMjk2OSI+W1NwcmluZyBCb290ICsgTXlCYXRpc108L3RleHQ+PHRleHQgZmlsbD0iI0ZGRkZGRiIgZm9udC1mYW1pbHk9InNhbnMtc2VyaWYiIGZvbnQtc2l6ZT0iMTQiIGZvbnQtd2VpZ2h0PSJib2xkIiBsZW5ndGhBZGp1c3Q9InNwYWNpbmciIHRleHRMZW5ndGg9IjciIHg9IjIwNyIgeT0iMTAxLjAzMTMiPiYjMTYwOzwvdGV4dD48dGV4dCBmaWxsPSIjRkZGRkZGIiBmb250LWZhbWlseT0ic2Fucy1zZXJpZiIgZm9udC1zaXplPSIxNCIgZm9udC13ZWlnaHQ9ImJvbGQiIGxlbmd0aEFkanVzdD0ic3BhY2luZyIgdGV4dExlbmd0aD0iMTU0IiB4PSIxMzMuNSIgeT0iMTE2LjAxNTYiPiYjMjEzMDc7JiMzMDEwMzsmIzI1OTM3OyYjMjExNjE7JiMyMDQ0OTsmIzI0Njg3OyYjMTIyODk7JiMzNTc2MDsmIzI0NDA1OyYjMzE2NDk7JiMyOTcwMjs8L3RleHQ+PC9nPjwhLS1lbnRpdHkgbWVkaWNhbF9jb250cm9sbGVyLS0+PGcgaWQ9ImVsZW1fbWVkaWNhbF9jb250cm9sbGVyIj48cmVjdCBmaWxsPSIjODVCQkYwIiBoZWlnaHQ9Ijc1LjY1NjMiIHJ4PSIyLjUiIHJ5PSIyLjUiIHN0eWxlPSJzdHJva2U6Izc4QThEODtzdHJva2Utd2lkdGg6MC41OyIgd2lkdGg9IjE4MiIgeD0iMjE2IiB5PSIxMzMuOTg0NCIvPjx0ZXh0IGZpbGw9IiMwMDAwMDAiIGZvbnQtZmFtaWx5PSJzYW5zLXNlcmlmIiBmb250LXNpemU9IjEyIiBmb250LXN0eWxlPSJpdGFsaWMiIGxlbmd0aEFkanVzdD0ic3BhY2luZyIgdGV4dExlbmd0aD0iNzIiIHg9IjI3MSIgeT0iMTU1LjMyODEiPiYjMTcxO2NvbXBvbmVudCYjMTg3OzwvdGV4dD48dGV4dCBmaWxsPSIjMDAwMDAwIiBmb250LWZhbWlseT0ic2Fucy1zZXJpZiIgZm9udC1zaXplPSIxNiIgZm9udC13ZWlnaHQ9ImJvbGQiIGxlbmd0aEFkanVzdD0ic3BhY2luZyIgdGV4dExlbmd0aD0iMTM2IiB4PSIyMzkiIHk9IjE3MS45NTMxIj5NZWRpY2FsQ29udHJvbGxlcjwvdGV4dD48dGV4dCBmaWxsPSIjMDAwMDAwIiBmb250LWZhbWlseT0ic2Fucy1zZXJpZiIgZm9udC1zaXplPSIxMiIgZm9udC1zdHlsZT0iaXRhbGljIiBsZW5ndGhBZGp1c3Q9InNwYWNpbmciIHRleHRMZW5ndGg9IjE2MiIgeD0iMjI2IiB5PSIxODUuMjk2OSI+WyYjMjI3ODg7JiMyOTcwMjsmIzIxMzA3OyYjMzAxMDM7JiMyNTkzNzsmIzIxMTYxOyYjMjA0NDk7JiMyNDY4NzsmIzMwNDU2OyYjMjA4NTE7JiMzMDM0MDsmIzM1ODMxOyYjMjc3MTQ7PC90ZXh0Pjx0ZXh0IGZpbGw9IiMwMDAwMDAiIGZvbnQtZmFtaWx5PSJzYW5zLXNlcmlmIiBmb250LXNpemU9IjEyIiBmb250LXN0eWxlPSJpdGFsaWMiIGxlbmd0aEFkanVzdD0ic3BhY2luZyIgdGV4dExlbmd0aD0iNzgiIHg9IjI2OCIgeT0iMTk4LjE0MDYiPigmIzIzNDU3OyYjMjY2ODA7JiMxMjI4OTsmIzI2NTk3OyYjMzA0NzU7KV08L3RleHQ+PC9nPjwhLS1lbnRpdHkgcmVjb3JkX2NvbnRyb2xsZXItLT48ZyBpZD0iZWxlbV9yZWNvcmRfY29udHJvbGxlciI+PHJlY3QgZmlsbD0iIzg1QkJGMCIgaGVpZ2h0PSI3NS42NTYzIiByeD0iMi41IiByeT0iMi41IiBzdHlsZT0ic3Ryb2tlOiM3OEE4RDg7c3Ryb2tlLXdpZHRoOjAuNTsiIHdpZHRoPSIxNTgiIHg9IjIzIiB5PSIxMzMuOTg0NCIvPjx0ZXh0IGZpbGw9IiMwMDAwMDAiIGZvbnQtZmFtaWx5PSJzYW5zLXNlcmlmIiBmb250LXNpemU9IjEyIiBmb250LXN0eWxlPSJpdGFsaWMiIGxlbmd0aEFkanVzdD0ic3BhY2luZyIgdGV4dExlbmd0aD0iNzIiIHg9IjY2IiB5PSIxNTUuMzI4MSI+JiMxNzE7Y29tcG9uZW50JiMxODc7PC90ZXh0Pjx0ZXh0IGZpbGw9IiMwMDAwMDAiIGZvbnQtZmFtaWx5PSJzYW5zLXNlcmlmIiBmb250LXNpemU9IjE2IiBmb250LXdlaWdodD0iYm9sZCIgbGVuZ3RoQWRqdXN0PSJzcGFjaW5nIiB0ZXh0TGVuZ3RoPSIxMjgiIHg9IjM4IiB5PSIxNzEuOTUzMSI+UmVjb3JkQ29udHJvbGxlcjwvdGV4dD48dGV4dCBmaWxsPSIjMDAwMDAwIiBmb250LWZhbWlseT0ic2Fucy1zZXJpZiIgZm9udC1zaXplPSIxMiIgZm9udC1zdHlsZT0iaXRhbGljIiBsZW5ndGhBZGp1c3Q9InNwYWNpbmciIHRleHRMZW5ndGg9IjEzOCIgeD0iMzMiIHk9IjE4NS4yOTY5Ij5bJiMyMjc4ODsmIzI5NzAyOyYjMjEzMDc7JiMzMDEwMzsmIzM1NzYwOyYjMjQ0MDU7JiMzMDQ1NjsmIzIwODUxOyYjMzAzNDA7JiMzNTgzMTsmIzI3NzE0OzwvdGV4dD48dGV4dCBmaWxsPSIjMDAwMDAwIiBmb250LWZhbWlseT0ic2Fucy1zZXJpZiIgZm9udC1zaXplPSIxMiIgZm9udC1zdHlsZT0iaXRhbGljIiBsZW5ndGhBZGp1c3Q9InNwYWNpbmciIHRleHRMZW5ndGg9Ijc4IiB4PSI2MyIgeT0iMTk4LjE0MDYiPigmIzI2NTk3OyYjMzA0NzU7JiMxMjI4OTsmIzMxNjQ5OyYjMjk3MDI7KV08L3RleHQ+PC9nPjwhLS1lbnRpdHkgbWVkaWNhbF9zZXJ2aWNlX2ltcGwtLT48ZyBpZD0iZWxlbV9tZWRpY2FsX3NlcnZpY2VfaW1wbCI+PHJlY3QgZmlsbD0iIzg1QkJGMCIgaGVpZ2h0PSI2Mi44MTI1IiByeD0iMi41IiByeT0iMi41IiBzdHlsZT0ic3Ryb2tlOiM3OEE4RDg7c3Ryb2tlLXdpZHRoOjAuNTsiIHdpZHRoPSIxNjQiIHg9IjIyNSIgeT0iMjgzLjk4NDQiLz48dGV4dCBmaWxsPSIjMDAwMDAwIiBmb250LWZhbWlseT0ic2Fucy1zZXJpZiIgZm9udC1zaXplPSIxMiIgZm9udC1zdHlsZT0iaXRhbGljIiBsZW5ndGhBZGp1c3Q9InNwYWNpbmciIHRleHRMZW5ndGg9IjcyIiB4PSIyNzEiIHk9IjMwNS4zMjgxIj4mIzE3MTtjb21wb25lbnQmIzE4Nzs8L3RleHQ+PHRleHQgZmlsbD0iIzAwMDAwMCIgZm9udC1mYW1pbHk9InNhbnMtc2VyaWYiIGZvbnQtc2l6ZT0iMTYiIGZvbnQtd2VpZ2h0PSJib2xkIiBsZW5ndGhBZGp1c3Q9InNwYWNpbmciIHRleHRMZW5ndGg9IjE0NCIgeD0iMjM1IiB5PSIzMjEuOTUzMSI+TWVkaWNhbFNlcnZpY2VJbXBsPC90ZXh0Pjx0ZXh0IGZpbGw9IiMwMDAwMDAiIGZvbnQtZmFtaWx5PSJzYW5zLXNlcmlmIiBmb250LXNpemU9IjEyIiBmb250LXN0eWxlPSJpdGFsaWMiIGxlbmd0aEFkanVzdD0ic3BhY2luZyIgdGV4dExlbmd0aD0iMTIwIiB4PSIyNDciIHk9IjMzNS4yOTY5Ij5bJiMyMTMwNzsmIzMwMTAzOyYjMjU5Mzc7JiMyMTE2MTsmIzI2MzgxOyYjMjExNTM7JiMyMzQ1NDsmIzI5NjE2OyYjMzE4Njc7XTwvdGV4dD48L2c+PCEtLWVudGl0eSByZWNvcmRfc2VydmljZV9pbXBsLS0+PGcgaWQ9ImVsZW1fcmVjb3JkX3NlcnZpY2VfaW1wbCI+PHJlY3QgZmlsbD0iIzg1QkJGMCIgaGVpZ2h0PSI2Mi44MTI1IiByeD0iMi41IiByeT0iMi41IiBzdHlsZT0ic3Ryb2tlOiM3OEE4RDg7c3Ryb2tlLXdpZHRoOjAuNTsiIHdpZHRoPSIxNTYiIHg9IjI0IiB5PSIyODMuOTg0NCIvPjx0ZXh0IGZpbGw9IiMwMDAwMDAiIGZvbnQtZmFtaWx5PSJzYW5zLXNlcmlmIiBmb250LXNpemU9IjEyIiBmb250LXN0eWxlPSJpdGFsaWMiIGxlbmd0aEFkanVzdD0ic3BhY2luZyIgdGV4dExlbmd0aD0iNzIiIHg9IjY2IiB5PSIzMDUuMzI4MSI+JiMxNzE7Y29tcG9uZW50JiMxODc7PC90ZXh0Pjx0ZXh0IGZpbGw9IiMwMDAwMDAiIGZvbnQtZmFtaWx5PSJzYW5zLXNlcmlmIiBmb250LXNpemU9IjE2IiBmb250LXdlaWdodD0iYm9sZCIgbGVuZ3RoQWRqdXN0PSJzcGFjaW5nIiB0ZXh0TGVuZ3RoPSIxMzYiIHg9IjM0IiB5PSIzMjEuOTUzMSI+UmVjb3JkU2VydmljZUltcGw8L3RleHQ+PHRleHQgZmlsbD0iIzAwMDAwMCIgZm9udC1mYW1pbHk9InNhbnMtc2VyaWYiIGZvbnQtc2l6ZT0iMTIiIGZvbnQtc3R5bGU9Iml0YWxpYyIgbGVuZ3RoQWRqdXN0PSJzcGFjaW5nIiB0ZXh0TGVuZ3RoPSIxMjAiIHg9IjQyIiB5PSIzMzUuMjk2OSI+WyYjMjEzMDc7JiMzMDEwMzsmIzM1NzYwOyYjMjQ0MDU7JiMyNjM4MTsmIzIxMTUzOyYjMjM0NTQ7JiMyOTYxNjsmIzMxODY3O108L3RleHQ+PC9nPjwhLS1lbnRpdHkgbWVkaWNhbF9yZXBvc2l0b3J5LS0+PGcgaWQ9ImVsZW1fbWVkaWNhbF9yZXBvc2l0b3J5Ij48cmVjdCBmaWxsPSIjODVCQkYwIiBoZWlnaHQ9IjYyLjgxMjUiIHJ4PSIyLjUiIHJ5PSIyLjUiIHN0eWxlPSJzdHJva2U6Izc4QThEODtzdHJva2Utd2lkdGg6MC41OyIgd2lkdGg9IjE2NCIgeD0iMjI1IiB5PSI0MjAuOTg0NCIvPjx0ZXh0IGZpbGw9IiMwMDAwMDAiIGZvbnQtZmFtaWx5PSJzYW5zLXNlcmlmIiBmb250LXNpemU9IjEyIiBmb250LXN0eWxlPSJpdGFsaWMiIGxlbmd0aEFkanVzdD0ic3BhY2luZyIgdGV4dExlbmd0aD0iNzIiIHg9IjI3MSIgeT0iNDQyLjMyODEiPiYjMTcxO2NvbXBvbmVudCYjMTg3OzwvdGV4dD48dGV4dCBmaWxsPSIjMDAwMDAwIiBmb250LWZhbWlseT0ic2Fucy1zZXJpZiIgZm9udC1zaXplPSIxNiIgZm9udC13ZWlnaHQ9ImJvbGQiIGxlbmd0aEFkanVzdD0ic3BhY2luZyIgdGV4dExlbmd0aD0iMTM2IiB4PSIyMzkiIHk9IjQ1OC45NTMxIj5NZWRpY2FsUmVwb3NpdG9yeTwvdGV4dD48dGV4dCBmaWxsPSIjMDAwMDAwIiBmb250LWZhbWlseT0ic2Fucy1zZXJpZiIgZm9udC1zaXplPSIxMiIgZm9udC1zdHlsZT0iaXRhbGljIiBsZW5ndGhBZGp1c3Q9InNwYWNpbmciIHRleHRMZW5ndGg9IjE0NCIgeD0iMjM1IiB5PSI0NzIuMjk2OSI+WyYjMjEzMDc7JiMzMDEwMzsmIzI1OTM3OyYjMjExNjE7JiMyMDQ0OTsmIzI0Njg3OyYjMjU5Njg7JiMyNTQ1NDsmIzM1Nzc1OyYjMzgzODI7JiMyMzYxODtdPC90ZXh0PjwvZz48IS0tZW50aXR5IHJlY29yZF9yZXBvc2l0b3J5LS0+PGcgaWQ9ImVsZW1fcmVjb3JkX3JlcG9zaXRvcnkiPjxyZWN0IGZpbGw9IiM4NUJCRjAiIGhlaWdodD0iNjIuODEyNSIgcng9IjIuNSIgcnk9IjIuNSIgc3R5bGU9InN0cm9rZTojNzhBOEQ4O3N0cm9rZS13aWR0aDowLjU7IiB3aWR0aD0iMTQ4IiB4PSIyOCIgeT0iNDIwLjk4NDQiLz48dGV4dCBmaWxsPSIjMDAwMDAwIiBmb250LWZhbWlseT0ic2Fucy1zZXJpZiIgZm9udC1zaXplPSIxMiIgZm9udC1zdHlsZT0iaXRhbGljIiBsZW5ndGhBZGp1c3Q9InNwYWNpbmciIHRleHRMZW5ndGg9IjcyIiB4PSI2NiIgeT0iNDQyLjMyODEiPiYjMTcxO2NvbXBvbmVudCYjMTg3OzwvdGV4dD48dGV4dCBmaWxsPSIjMDAwMDAwIiBmb250LWZhbWlseT0ic2Fucy1zZXJpZiIgZm9udC1zaXplPSIxNiIgZm9udC13ZWlnaHQ9ImJvbGQiIGxlbmd0aEFkanVzdD0ic3BhY2luZyIgdGV4dExlbmd0aD0iMTI4IiB4PSIzOCIgeT0iNDU4Ljk1MzEiPlJlY29yZFJlcG9zaXRvcnk8L3RleHQ+PHRleHQgZmlsbD0iIzAwMDAwMCIgZm9udC1mYW1pbHk9InNhbnMtc2VyaWYiIGZvbnQtc2l6ZT0iMTIiIGZvbnQtc3R5bGU9Iml0YWxpYyIgbGVuZ3RoQWRqdXN0PSJzcGFjaW5nIiB0ZXh0TGVuZ3RoPSIxMjAiIHg9IjQyIiB5PSI0NzIuMjk2OSI+WyYjMjEzMDc7JiMzMDEwMzsmIzM1NzYwOyYjMjQ0MDU7JiMyNTk2ODsmIzI1NDU0OyYjMzU3NzU7JiMzODM4MjsmIzIzNjE4O108L3RleHQ+PC9nPjwhLS1saW5rIG1lZGljYWxfY29udHJvbGxlciB0byBtZWRpY2FsX3NlcnZpY2VfaW1wbC0tPjxnIGlkPSJsaW5rX21lZGljYWxfY29udHJvbGxlcl9tZWRpY2FsX3NlcnZpY2VfaW1wbCI+PHBhdGggZD0iTTMwNywyMTAuMTY0NCBDMzA3LDIzMy4wODQ0IDMwNywyNTQuMTQ0NCAzMDcsMjc1Ljc1NDQgIiBmaWxsPSJub25lIiBpZD0ibWVkaWNhbF9jb250cm9sbGVyLXRvLW1lZGljYWxfc2VydmljZV9pbXBsIiBzdHlsZT0ic3Ryb2tlOiM2NjY2NjY7c3Ryb2tlLXdpZHRoOjEuMDsiLz48cG9seWdvbiBmaWxsPSIjNjY2NjY2IiBwb2ludHM9IjMwNywyODMuNzU0NCwzMTAsMjc1Ljc1NDQsMzA0LDI3NS43NTQ0LDMwNywyODMuNzU0NCIgc3R5bGU9InN0cm9rZTojNjY2NjY2O3N0cm9rZS13aWR0aDoxLjA7Ii8+PHRleHQgZmlsbD0iIzY2NjY2NiIgZm9udC1mYW1pbHk9InNhbnMtc2VyaWYiIGZvbnQtc2l6ZT0iMTIiIGZvbnQtd2VpZ2h0PSJib2xkIiBsZW5ndGhBZGp1c3Q9InNwYWNpbmciIHRleHRMZW5ndGg9IjI0IiB4PSIzMDgiIHk9IjI1Mi4zMjgxIj4mIzM1ODQzOyYjMjk5OTI7PC90ZXh0PjwvZz48IS0tbGluayByZWNvcmRfY29udHJvbGxlciB0byByZWNvcmRfc2VydmljZV9pbXBsLS0+PGcgaWQ9ImxpbmtfcmVjb3JkX2NvbnRyb2xsZXJfcmVjb3JkX3NlcnZpY2VfaW1wbCI+PHBhdGggZD0iTTEwMiwyMTAuMTY0NCBDMTAyLDIzMy4wODQ0IDEwMiwyNTQuMTQ0NCAxMDIsMjc1Ljc1NDQgIiBmaWxsPSJub25lIiBpZD0icmVjb3JkX2NvbnRyb2xsZXItdG8tcmVjb3JkX3NlcnZpY2VfaW1wbCIgc3R5bGU9InN0cm9rZTojNjY2NjY2O3N0cm9rZS13aWR0aDoxLjA7Ii8+PHBvbHlnb24gZmlsbD0iIzY2NjY2NiIgcG9pbnRzPSIxMDIsMjgzLjc1NDQsMTA1LDI3NS43NTQ0LDk5LDI3NS43NTQ0LDEwMiwyODMuNzU0NCIgc3R5bGU9InN0cm9rZTojNjY2NjY2O3N0cm9rZS13aWR0aDoxLjA7Ii8+PHRleHQgZmlsbD0iIzY2NjY2NiIgZm9udC1mYW1pbHk9InNhbnMtc2VyaWYiIGZvbnQtc2l6ZT0iMTIiIGZvbnQtd2VpZ2h0PSJib2xkIiBsZW5ndGhBZGp1c3Q9InNwYWNpbmciIHRleHRMZW5ndGg9IjI0IiB4PSIxMDMiIHk9IjI1Mi4zMjgxIj4mIzM1ODQzOyYjMjk5OTI7PC90ZXh0PjwvZz48IS0tbGluayBtZWRpY2FsX3NlcnZpY2VfaW1wbCB0byBtZWRpY2FsX3JlcG9zaXRvcnktLT48ZyBpZD0ibGlua19tZWRpY2FsX3NlcnZpY2VfaW1wbF9tZWRpY2FsX3JlcG9zaXRvcnkiPjxwYXRoIGQ9Ik0zMDcsMzQ3LjExNDQgQzMwNywzNjkuMjE0NCAzMDcsMzkwLjkwNDQgMzA3LDQxMi45NzQ0ICIgZmlsbD0ibm9uZSIgaWQ9Im1lZGljYWxfc2VydmljZV9pbXBsLXRvLW1lZGljYWxfcmVwb3NpdG9yeSIgc3R5bGU9InN0cm9rZTojNjY2NjY2O3N0cm9rZS13aWR0aDoxLjA7Ii8+PHBvbHlnb24gZmlsbD0iIzY2NjY2NiIgcG9pbnRzPSIzMDcsNDIwLjk3NDQsMzEwLDQxMi45NzQ0LDMwNCw0MTIuOTc0NCwzMDcsNDIwLjk3NDQiIHN0eWxlPSJzdHJva2U6IzY2NjY2NjtzdHJva2Utd2lkdGg6MS4wOyIvPjx0ZXh0IGZpbGw9IiM2NjY2NjYiIGZvbnQtZmFtaWx5PSJzYW5zLXNlcmlmIiBmb250LXNpemU9IjEyIiBmb250LXdlaWdodD0iYm9sZCIgbGVuZ3RoQWRqdXN0PSJzcGFjaW5nIiB0ZXh0TGVuZ3RoPSIyNCIgeD0iMzA4IiB5PSIzODkuMzI4MSI+JiMzNTg0MzsmIzI5OTkyOzwvdGV4dD48L2c+PCEtLWxpbmsgcmVjb3JkX3NlcnZpY2VfaW1wbCB0byByZWNvcmRfcmVwb3NpdG9yeS0tPjxnIGlkPSJsaW5rX3JlY29yZF9zZXJ2aWNlX2ltcGxfcmVjb3JkX3JlcG9zaXRvcnkiPjxwYXRoIGQ9Ik0xMDIsMzQ3LjExNDQgQzEwMiwzNjkuMjE0NCAxMDIsMzkwLjkwNDQgMTAyLDQxMi45NzQ0ICIgZmlsbD0ibm9uZSIgaWQ9InJlY29yZF9zZXJ2aWNlX2ltcGwtdG8tcmVjb3JkX3JlcG9zaXRvcnkiIHN0eWxlPSJzdHJva2U6IzY2NjY2NjtzdHJva2Utd2lkdGg6MS4wOyIvPjxwb2x5Z29uIGZpbGw9IiM2NjY2NjYiIHBvaW50cz0iMTAyLDQyMC45NzQ0LDEwNSw0MTIuOTc0NCw5OSw0MTIuOTc0NCwxMDIsNDIwLjk3NDQiIHN0eWxlPSJzdHJva2U6IzY2NjY2NjtzdHJva2Utd2lkdGg6MS4wOyIvPjx0ZXh0IGZpbGw9IiM2NjY2NjYiIGZvbnQtZmFtaWx5PSJzYW5zLXNlcmlmIiBmb250LXNpemU9IjEyIiBmb250LXdlaWdodD0iYm9sZCIgbGVuZ3RoQWRqdXN0PSJzcGFjaW5nIiB0ZXh0TGVuZ3RoPSIyNCIgeD0iMTAzIiB5PSIzODkuMzI4MSI+JiMzNTg0MzsmIzI5OTkyOzwvdGV4dD48L2c+PCEtLVNSQz1bVFA5Rkl5Q202Q1JsX0hJbjl1VF9VbDdhU0ppOTNjSllVTkhUcTQzUWIzSExYV1d3ZnVWZkhDNGZnQVczMVJ0SzNLNjVlVmltY2NQLTJ6RHJUN0lCcnVWdFZOeEZ5b1BKb0I2bU51Ty1uTTIzQ1RUUkQwbmdSaXNsOHhSWGJ0bUZLZWl1MzNmaXRZQXN1TUJKT1J3RHZwbk1uZ1hhdjFSY0xZOWZCUnppc0FSNzg5TElDS1RpYnBaSFpZamRET3FYWFk3V25ycm5TSGFzcHRaekVSbmZ5N2ZCVDZpX3RKVC1fUUxmRUdhbmFHRmZqMHRCbzM5bktQOHRhR0xkV0p3dmc0anJyUU44TUdUUEdYWU8wVmJBcmNKOHF5VjZWdGdqU0VfYlV0VWw3eEp2UHJDNEJONXdnNlYwaldQMGFaOTFIYXFmbUhYSVFQRUZuTG9ZM1JtVlFqOVdhWTJrRl9aMWd4WWd6TF9VbXF1TEpGRVc1VHZfSTcxdXpvWGtaWjl3OWFNYXEyQXFkME9NMWpoX2w2NjVTTDhDYUFJdU40SEliWGxVaXVYaTV1X2doU1JnYVhIcnZRYnZTMmpFc2dCSkxKU09TdXF4QTR0Wi0yZkpQTG1BTlU4WEhjWGI1QlFHUUVmdDNmbGppMTdxV3p4bFBTMHhMTk5ZYjc2U0wtS3haM2xYQTJxQjQya19wMy1OeGhWdG5WZEo4NG9xZ05Yd3pJc0psSjVhVWFudkJwS29sUVd3SHhBdHltUzBdLS0+PC9nPjwvc3ZnPg==;" parent="1" vertex="1"><mxGeometry x="513" y="776" width="420" height="505" as="geometry"/></mxCell></UserObject><UserObject label="" plantUmlData="{&#10;  &quot;data&quot;: &quot;@startuml\n!includeurl https://raw.githubusercontent.com/plantuml-stdlib/C4-PlantUML/master/C4_Component.puml\n\ntitle 领养服务组件图\n\nContainer(adoption_service, \&quot;领养服务\&quot;, \&quot;Spring Boot + MyBatis\&quot;, \&quot;领养申请审批、进度跟踪\&quot;) {\n  Component(adoption_controller, \&quot;AdoptionController\&quot;, \&quot;处理领养申请相关的请求 (查看、审批、跟踪)\&quot;)\n  \n  Component(adoption_service_impl, \&quot;AdoptionServiceImpl\&quot;, \&quot;领养服务实现类\&quot;)\n  Component(adoption_repository, \&quot;AdoptionRepository\&quot;, \&quot;领养申请数据访问层\&quot;)\n\n  Rel(adoption_controller, adoption_service_impl, \&quot;调用\&quot;)\n  Rel(adoption_service_impl, adoption_repository, \&quot;调用\&quot;)\n}\n\n@enduml&quot;,&#10;  &quot;format&quot;: &quot;svg&quot;&#10;}" id="iwc2kgBUIP-5sk2xWvdT-6"><mxCell style="shape=image;noLabel=1;verticalAlign=top;aspect=fixed;imageAspect=0;image=data:image/svg+xml,PD94bWwgdmVyc2lvbj0iMS4wIiBlbmNvZGluZz0idXMtYXNjaWkiIHN0YW5kYWxvbmU9Im5vIj8+PHN2ZyB4bWxucz0iaHR0cDovL3d3dy53My5vcmcvMjAwMC9zdmciIHhtbG5zOnhsaW5rPSJodHRwOi8vd3d3LnczLm9yZy8xOTk5L3hsaW5rIiBjb250ZW50U3R5bGVUeXBlPSJ0ZXh0L2NzcyIgaGVpZ2h0PSI1MDVweCIgcHJlc2VydmVBc3BlY3RSYXRpbz0ibm9uZSIgc3R5bGU9IndpZHRoOjIxN3B4O2hlaWdodDo1MDVweDtiYWNrZ3JvdW5kOiNGRkZGRkY7IiB2ZXJzaW9uPSIxLjEiIHZpZXdCb3g9IjAgMCAyMTcgNTA1IiB3aWR0aD0iMjE3cHgiIHpvb21BbmRQYW49Im1hZ25pZnkiPjxkZWZzLz48Zz48dGV4dCBmaWxsPSIjMDAwMDAwIiBmb250LWZhbWlseT0ic2Fucy1zZXJpZiIgZm9udC1zaXplPSIxNCIgZm9udC13ZWlnaHQ9ImJvbGQiIGxlbmd0aEFkanVzdD0ic3BhY2luZyIgdGV4dExlbmd0aD0iOTgiIHg9IjUyLjUiIHk9IjIzLjIzNDQiPiYjMzkwNDY7JiMyMDg1OTsmIzI2MzgxOyYjMjExNTM7JiMzMjQ1MjsmIzIwMjE0OyYjMjIyNzA7PC90ZXh0PjwhLS1jbHVzdGVyIGFkb3B0aW9uX3NlcnZpY2UtLT48ZyBpZD0iY2x1c3Rlcl9hZG9wdGlvbl9zZXJ2aWNlIj48cmVjdCBmaWxsPSIjNDM4REQ1IiBoZWlnaHQ9IjQ1NyIgcng9IjIuNSIgcnk9IjIuNSIgc3R5bGU9InN0cm9rZTojM0M3RkMwO3N0cm9rZS13aWR0aDoxLjA7IiB3aWR0aD0iMjA0IiB4PSI3IiB5PSI0Mi45ODQ0Ii8+PHRleHQgZmlsbD0iI0ZGRkZGRiIgZm9udC1mYW1pbHk9InNhbnMtc2VyaWYiIGZvbnQtc2l6ZT0iMTIiIGZvbnQtc3R5bGU9Iml0YWxpYyIgbGVuZ3RoQWRqdXN0PSJzcGFjaW5nIiB0ZXh0TGVuZ3RoPSI3MiIgeD0iNzMiIHk9IjU2LjMyODEiPiYjMTcxO2NvbnRhaW5lciYjMTg3OzwvdGV4dD48dGV4dCBmaWxsPSIjRkZGRkZGIiBmb250LWZhbWlseT0ic2Fucy1zZXJpZiIgZm9udC1zaXplPSIxNiIgZm9udC13ZWlnaHQ9ImJvbGQiIGxlbmd0aEFkanVzdD0ic3BhY2luZyIgdGV4dExlbmd0aD0iNjQiIHg9Ijc3IiB5PSI3Mi45NTMxIj4mIzM5MDQ2OyYjMjA4NTk7JiMyNjM4MTsmIzIxMTUzOzwvdGV4dD48dGV4dCBmaWxsPSIjRkZGRkZGIiBmb250LWZhbWlseT0ic2Fucy1zZXJpZiIgZm9udC1zaXplPSIxMiIgZm9udC1zdHlsZT0iaXRhbGljIiBmb250LXdlaWdodD0iYm9sZCIgbGVuZ3RoQWRqdXN0PSJzcGFjaW5nIiB0ZXh0TGVuZ3RoPSIxNTEiIHg9IjMzLjUiIHk9Ijg2LjI5NjkiPltTcHJpbmcgQm9vdCArIE15QmF0aXNdPC90ZXh0Pjx0ZXh0IGZpbGw9IiNGRkZGRkYiIGZvbnQtZmFtaWx5PSJzYW5zLXNlcmlmIiBmb250LXNpemU9IjE0IiBmb250LXdlaWdodD0iYm9sZCIgbGVuZ3RoQWRqdXN0PSJzcGFjaW5nIiB0ZXh0TGVuZ3RoPSI3IiB4PSIxMDUuNSIgeT0iMTAxLjAzMTMiPiYjMTYwOzwvdGV4dD48dGV4dCBmaWxsPSIjRkZGRkZGIiBmb250LWZhbWlseT0ic2Fucy1zZXJpZiIgZm9udC1zaXplPSIxNCIgZm9udC13ZWlnaHQ9ImJvbGQiIGxlbmd0aEFkanVzdD0ic3BhY2luZyIgdGV4dExlbmd0aD0iMTU0IiB4PSIzMiIgeT0iMTE2LjAxNTYiPiYjMzkwNDY7JiMyMDg1OTsmIzMwMDAzOyYjMzU4MzE7JiMyMzQ1NzsmIzI1MjA5OyYjMTIyODk7JiMzNjgyNzsmIzI0MjMwOyYjMzYzMTk7JiMzNjM5NDs8L3RleHQ+PC9nPjwhLS1lbnRpdHkgYWRvcHRpb25fY29udHJvbGxlci0tPjxnIGlkPSJlbGVtX2Fkb3B0aW9uX2NvbnRyb2xsZXIiPjxyZWN0IGZpbGw9IiM4NUJCRjAiIGhlaWdodD0iNzUuNjU2MyIgcng9IjIuNSIgcnk9IjIuNSIgc3R5bGU9InN0cm9rZTojNzhBOEQ4O3N0cm9rZS13aWR0aDowLjU7IiB3aWR0aD0iMTY0IiB4PSIyNyIgeT0iMTMzLjk4NDQiLz48dGV4dCBmaWxsPSIjMDAwMDAwIiBmb250LWZhbWlseT0ic2Fucy1zZXJpZiIgZm9udC1zaXplPSIxMiIgZm9udC1zdHlsZT0iaXRhbGljIiBsZW5ndGhBZGp1c3Q9InNwYWNpbmciIHRleHRMZW5ndGg9IjcyIiB4PSI3MyIgeT0iMTU1LjMyODEiPiYjMTcxO2NvbXBvbmVudCYjMTg3OzwvdGV4dD48dGV4dCBmaWxsPSIjMDAwMDAwIiBmb250LWZhbWlseT0ic2Fucy1zZXJpZiIgZm9udC1zaXplPSIxNiIgZm9udC13ZWlnaHQ9ImJvbGQiIGxlbmd0aEFkanVzdD0ic3BhY2luZyIgdGV4dExlbmd0aD0iMTQ0IiB4PSIzNyIgeT0iMTcxLjk1MzEiPkFkb3B0aW9uQ29udHJvbGxlcjwvdGV4dD48dGV4dCBmaWxsPSIjMDAwMDAwIiBmb250LWZhbWlseT0ic2Fucy1zZXJpZiIgZm9udC1zaXplPSIxMiIgZm9udC1zdHlsZT0iaXRhbGljIiBsZW5ndGhBZGp1c3Q9InNwYWNpbmciIHRleHRMZW5ndGg9IjEzOCIgeD0iNDAiIHk9IjE4NS4yOTY5Ij5bJiMyMjc4ODsmIzI5NzAyOyYjMzkwNDY7JiMyMDg1OTsmIzMwMDAzOyYjMzU4MzE7JiMzMDQ1NjsmIzIwODUxOyYjMzAzNDA7JiMzNTgzMTsmIzI3NzE0OzwvdGV4dD48dGV4dCBmaWxsPSIjMDAwMDAwIiBmb250LWZhbWlseT0ic2Fucy1zZXJpZiIgZm9udC1zaXplPSIxMiIgZm9udC1zdHlsZT0iaXRhbGljIiBsZW5ndGhBZGp1c3Q9InNwYWNpbmciIHRleHRMZW5ndGg9IjExNCIgeD0iNTIiIHk9IjE5OC4xNDA2Ij4oJiMyNjU5NzsmIzMwNDc1OyYjMTIyODk7JiMyMzQ1NzsmIzI1MjA5OyYjMTIyODk7JiMzNjMxOTsmIzM2Mzk0OyldPC90ZXh0PjwvZz48IS0tZW50aXR5IGFkb3B0aW9uX3NlcnZpY2VfaW1wbC0tPjxnIGlkPSJlbGVtX2Fkb3B0aW9uX3NlcnZpY2VfaW1wbCI+PHJlY3QgZmlsbD0iIzg1QkJGMCIgaGVpZ2h0PSI2Mi44MTI1IiByeD0iMi41IiByeT0iMi41IiBzdHlsZT0ic3Ryb2tlOiM3OEE4RDg7c3Ryb2tlLXdpZHRoOjAuNTsiIHdpZHRoPSIxNzIiIHg9IjIzIiB5PSIyODMuOTg0NCIvPjx0ZXh0IGZpbGw9IiMwMDAwMDAiIGZvbnQtZmFtaWx5PSJzYW5zLXNlcmlmIiBmb250LXNpemU9IjEyIiBmb250LXN0eWxlPSJpdGFsaWMiIGxlbmd0aEFkanVzdD0ic3BhY2luZyIgdGV4dExlbmd0aD0iNzIiIHg9IjczIiB5PSIzMDUuMzI4MSI+JiMxNzE7Y29tcG9uZW50JiMxODc7PC90ZXh0Pjx0ZXh0IGZpbGw9IiMwMDAwMDAiIGZvbnQtZmFtaWx5PSJzYW5zLXNlcmlmIiBmb250LXNpemU9IjE2IiBmb250LXdlaWdodD0iYm9sZCIgbGVuZ3RoQWRqdXN0PSJzcGFjaW5nIiB0ZXh0TGVuZ3RoPSIxNTIiIHg9IjMzIiB5PSIzMjEuOTUzMSI+QWRvcHRpb25TZXJ2aWNlSW1wbDwvdGV4dD48dGV4dCBmaWxsPSIjMDAwMDAwIiBmb250LWZhbWlseT0ic2Fucy1zZXJpZiIgZm9udC1zaXplPSIxMiIgZm9udC1zdHlsZT0iaXRhbGljIiBsZW5ndGhBZGp1c3Q9InNwYWNpbmciIHRleHRMZW5ndGg9Ijk2IiB4PSI2MSIgeT0iMzM1LjI5NjkiPlsmIzM5MDQ2OyYjMjA4NTk7JiMyNjM4MTsmIzIxMTUzOyYjMjM0NTQ7JiMyOTYxNjsmIzMxODY3O108L3RleHQ+PC9nPjwhLS1lbnRpdHkgYWRvcHRpb25fcmVwb3NpdG9yeS0tPjxnIGlkPSJlbGVtX2Fkb3B0aW9uX3JlcG9zaXRvcnkiPjxyZWN0IGZpbGw9IiM4NUJCRjAiIGhlaWdodD0iNjIuODEyNSIgcng9IjIuNSIgcnk9IjIuNSIgc3R5bGU9InN0cm9rZTojNzhBOEQ4O3N0cm9rZS13aWR0aDowLjU7IiB3aWR0aD0iMTY0IiB4PSIyNyIgeT0iNDIwLjk4NDQiLz48dGV4dCBmaWxsPSIjMDAwMDAwIiBmb250LWZhbWlseT0ic2Fucy1zZXJpZiIgZm9udC1zaXplPSIxMiIgZm9udC1zdHlsZT0iaXRhbGljIiBsZW5ndGhBZGp1c3Q9InNwYWNpbmciIHRleHRMZW5ndGg9IjcyIiB4PSI3MyIgeT0iNDQyLjMyODEiPiYjMTcxO2NvbXBvbmVudCYjMTg3OzwvdGV4dD48dGV4dCBmaWxsPSIjMDAwMDAwIiBmb250LWZhbWlseT0ic2Fucy1zZXJpZiIgZm9udC1zaXplPSIxNiIgZm9udC13ZWlnaHQ9ImJvbGQiIGxlbmd0aEFkanVzdD0ic3BhY2luZyIgdGV4dExlbmd0aD0iMTQ0IiB4PSIzNyIgeT0iNDU4Ljk1MzEiPkFkb3B0aW9uUmVwb3NpdG9yeTwvdGV4dD48dGV4dCBmaWxsPSIjMDAwMDAwIiBmb250LWZhbWlseT0ic2Fucy1zZXJpZiIgZm9udC1zaXplPSIxMiIgZm9udC1zdHlsZT0iaXRhbGljIiBsZW5ndGhBZGp1c3Q9InNwYWNpbmciIHRleHRMZW5ndGg9IjEyMCIgeD0iNDkiIHk9IjQ3Mi4yOTY5Ij5bJiMzOTA0NjsmIzIwODU5OyYjMzAwMDM7JiMzNTgzMTsmIzI1OTY4OyYjMjU0NTQ7JiMzNTc3NTsmIzM4MzgyOyYjMjM2MTg7XTwvdGV4dD48L2c+PCEtLWxpbmsgYWRvcHRpb25fY29udHJvbGxlciB0byBhZG9wdGlvbl9zZXJ2aWNlX2ltcGwtLT48ZyBpZD0ibGlua19hZG9wdGlvbl9jb250cm9sbGVyX2Fkb3B0aW9uX3NlcnZpY2VfaW1wbCI+PHBhdGggZD0iTTEwOSwyMTAuMTY0NCBDMTA5LDIzMy4wODQ0IDEwOSwyNTQuMTQ0NCAxMDksMjc1Ljc1NDQgIiBmaWxsPSJub25lIiBpZD0iYWRvcHRpb25fY29udHJvbGxlci10by1hZG9wdGlvbl9zZXJ2aWNlX2ltcGwiIHN0eWxlPSJzdHJva2U6IzY2NjY2NjtzdHJva2Utd2lkdGg6MS4wOyIvPjxwb2x5Z29uIGZpbGw9IiM2NjY2NjYiIHBvaW50cz0iMTA5LDI4My43NTQ0LDExMiwyNzUuNzU0NCwxMDYsMjc1Ljc1NDQsMTA5LDI4My43NTQ0IiBzdHlsZT0ic3Ryb2tlOiM2NjY2NjY7c3Ryb2tlLXdpZHRoOjEuMDsiLz48dGV4dCBmaWxsPSIjNjY2NjY2IiBmb250LWZhbWlseT0ic2Fucy1zZXJpZiIgZm9udC1zaXplPSIxMiIgZm9udC13ZWlnaHQ9ImJvbGQiIGxlbmd0aEFkanVzdD0ic3BhY2luZyIgdGV4dExlbmd0aD0iMjQiIHg9IjExMCIgeT0iMjUyLjMyODEiPiYjMzU4NDM7JiMyOTk5Mjs8L3RleHQ+PC9nPjwhLS1saW5rIGFkb3B0aW9uX3NlcnZpY2VfaW1wbCB0byBhZG9wdGlvbl9yZXBvc2l0b3J5LS0+PGcgaWQ9ImxpbmtfYWRvcHRpb25fc2VydmljZV9pbXBsX2Fkb3B0aW9uX3JlcG9zaXRvcnkiPjxwYXRoIGQ9Ik0xMDksMzQ3LjExNDQgQzEwOSwzNjkuMjE0NCAxMDksMzkwLjkwNDQgMTA5LDQxMi45NzQ0ICIgZmlsbD0ibm9uZSIgaWQ9ImFkb3B0aW9uX3NlcnZpY2VfaW1wbC10by1hZG9wdGlvbl9yZXBvc2l0b3J5IiBzdHlsZT0ic3Ryb2tlOiM2NjY2NjY7c3Ryb2tlLXdpZHRoOjEuMDsiLz48cG9seWdvbiBmaWxsPSIjNjY2NjY2IiBwb2ludHM9IjEwOSw0MjAuOTc0NCwxMTIsNDEyLjk3NDQsMTA2LDQxMi45NzQ0LDEwOSw0MjAuOTc0NCIgc3R5bGU9InN0cm9rZTojNjY2NjY2O3N0cm9rZS13aWR0aDoxLjA7Ii8+PHRleHQgZmlsbD0iIzY2NjY2NiIgZm9udC1mYW1pbHk9InNhbnMtc2VyaWYiIGZvbnQtc2l6ZT0iMTIiIGZvbnQtd2VpZ2h0PSJib2xkIiBsZW5ndGhBZGp1c3Q9InNwYWNpbmciIHRleHRMZW5ndGg9IjI0IiB4PSIxMTAiIHk9IjM4OS4zMjgxIj4mIzM1ODQzOyYjMjk5OTI7PC90ZXh0PjwvZz48IS0tU1JDPVtUUDExSW05MTY4Umwtb2tjRkljTFUtZEtCVlNLOThKSE1MT1RUNjFzUHZjVEJJSTJDWEtnWjB2NmE1NE81VDVYS3VBcVhGbW5ESmxSbHNaTU9ibDVSWkNsdF9pLXhfVkQ4UWswdEk5cUFHUGJuY25kTVRFZWlQcWc4TFBzeXd1M1FPNU8zNWVpTEkyY1BjRjNPZ3c5NW5yTW4yWWx3S2tCd3c2cWNMZEpKQ0RYYTRlZmZuRko5YlJlaVVNaWVaMzRDMEhWRG1yVTdfZ05KTnhLNFNGUXZfMjVqenlMSFBWbjFoOFdKSFg1T1pENGg5bzRSZzQyTjAxZ3RBRkFfdVBEYUxLMlFLOE9jMFVQSWpmV281NlpHVDV3M2Z4d3RFbHVYd3lWVV9sMWdDdFZ4ZUYtVEoxdUw5RFdIbTRXZ2xQNzJfVVoxNkQ4UFN4QWh3ZjdPZlpFUnNsWWoxNWRZRlEwcnZfNUhLcy1fTHVMOUZwaEV0NXZCQTVfejM0dGdJT2JUWlJ2VHl5U0NjcVNPc195b0FqSUxRVGttQnFoU1Q4TGxVNHVUS09hWEpQbjQyRXE0V2xDSGtCcWdWb3Boal9xMGNfcVRVeG5OYk1jb2pXaW5CRWx5cl9uZTdpV01XX1pJWEZVb1I3UDdJRmx4WlMwXS0tPjwvZz48L3N2Zz4=;" parent="1" vertex="1"><mxGeometry x="713.5" y="230" width="217" height="505" as="geometry"/></mxCell></UserObject></root></mxGraphModel></diagram></mxfile>